G04 (created by PCBNEW (2013-05-31 BZR 4019)-stable) date 16/09/2013 19:17:57*
%MOIN*%
G04 Gerber Fmt 3.4, Leading zero omitted, Abs format*
%FSLAX34Y34*%
G01*
G70*
G90*
G04 APERTURE LIST*
%ADD10C,0.005*%
%ADD11C,0.00590551*%
%ADD12C,0.00787402*%
%ADD13C,0.011811*%
G04 APERTURE END LIST*
G54D10*
G54D11*
X44550Y-43950D02*
X62900Y-43950D01*
X44550Y-35300D02*
X62900Y-35300D01*
X44550Y-35300D02*
X44550Y-43950D01*
X62916Y-35300D02*
X62916Y-43961D01*
G54D12*
X44951Y-40551D02*
X45148Y-40748D01*
X45148Y-40551D02*
X44951Y-40748D01*
X46301Y-39451D02*
X46498Y-39648D01*
X46498Y-39451D02*
X46301Y-39648D01*
X46401Y-38601D02*
X46598Y-38798D01*
X46598Y-38601D02*
X46401Y-38798D01*
X47751Y-39051D02*
X47948Y-39248D01*
X47948Y-39051D02*
X47751Y-39248D01*
X49201Y-37351D02*
X49398Y-37548D01*
X49398Y-37351D02*
X49201Y-37548D01*
X49201Y-38801D02*
X49398Y-38998D01*
X49398Y-38801D02*
X49201Y-38998D01*
X51051Y-38301D02*
X51248Y-38498D01*
X51248Y-38301D02*
X51051Y-38498D01*
X51451Y-43301D02*
X51648Y-43498D01*
X51648Y-43301D02*
X51451Y-43498D01*
X51501Y-37501D02*
X51698Y-37698D01*
X51698Y-37501D02*
X51501Y-37698D01*
X51601Y-41551D02*
X51798Y-41748D01*
X51798Y-41551D02*
X51601Y-41748D01*
X53451Y-42101D02*
X53648Y-42298D01*
X53648Y-42101D02*
X53451Y-42298D01*
X54251Y-40051D02*
X54448Y-40248D01*
X54448Y-40051D02*
X54251Y-40248D01*
X55201Y-39251D02*
X55398Y-39448D01*
X55398Y-39251D02*
X55201Y-39448D01*
X55401Y-42051D02*
X55598Y-42248D01*
X55598Y-42051D02*
X55401Y-42248D01*
X55801Y-37701D02*
X55998Y-37898D01*
X55998Y-37701D02*
X55801Y-37898D01*
X56451Y-37201D02*
X56648Y-37398D01*
X56648Y-37201D02*
X56451Y-37398D01*
X58101Y-40351D02*
X58298Y-40548D01*
X58298Y-40351D02*
X58101Y-40548D01*
X58151Y-39651D02*
X58348Y-39848D01*
X58348Y-39651D02*
X58151Y-39848D01*
X58551Y-40801D02*
X58748Y-40998D01*
X58748Y-40801D02*
X58551Y-40998D01*
X59101Y-37901D02*
X59298Y-38098D01*
X59298Y-37901D02*
X59101Y-38098D01*
X61301Y-42001D02*
X61498Y-42198D01*
X61498Y-42001D02*
X61301Y-42198D01*
X61601Y-37151D02*
X61798Y-37348D01*
X61798Y-37151D02*
X61601Y-37348D01*
X52796Y-36050D02*
G75*
G03X52796Y-36050I-196J0D01*
G74*
G01*
X53796Y-36050D02*
G75*
G03X53796Y-36050I-196J0D01*
G74*
G01*
X45600Y-35900D02*
X45600Y-36300D01*
X45400Y-36100D02*
X45800Y-36100D01*
X45600Y-42900D02*
X45600Y-43300D01*
X45400Y-43100D02*
X45800Y-43100D01*
X46600Y-35900D02*
X46600Y-36300D01*
X46400Y-36100D02*
X46800Y-36100D01*
X46600Y-42900D02*
X46600Y-43300D01*
X46400Y-43100D02*
X46800Y-43100D01*
X47600Y-35900D02*
X47600Y-36300D01*
X47400Y-36100D02*
X47800Y-36100D01*
X47600Y-42900D02*
X47600Y-43300D01*
X47400Y-43100D02*
X47800Y-43100D01*
X48600Y-35900D02*
X48600Y-36300D01*
X48400Y-36100D02*
X48800Y-36100D01*
X48600Y-42900D02*
X48600Y-43300D01*
X48400Y-43100D02*
X48800Y-43100D01*
X49600Y-35900D02*
X49600Y-36300D01*
X49400Y-36100D02*
X49800Y-36100D01*
X49600Y-42900D02*
X49600Y-43300D01*
X49400Y-43100D02*
X49800Y-43100D01*
X50600Y-35900D02*
X50600Y-36300D01*
X50400Y-36100D02*
X50800Y-36100D01*
X50600Y-42900D02*
X50600Y-43300D01*
X50400Y-43100D02*
X50800Y-43100D01*
X52600Y-36900D02*
X52600Y-37300D01*
X52400Y-37100D02*
X52800Y-37100D01*
X53600Y-36900D02*
X53600Y-37300D01*
X53400Y-37100D02*
X53800Y-37100D01*
X56600Y-35900D02*
X56600Y-36300D01*
X56400Y-36100D02*
X56800Y-36100D01*
X56600Y-42900D02*
X56600Y-43300D01*
X56400Y-43100D02*
X56800Y-43100D01*
X57600Y-35900D02*
X57600Y-36300D01*
X57400Y-36100D02*
X57800Y-36100D01*
X57600Y-42900D02*
X57600Y-43300D01*
X57400Y-43100D02*
X57800Y-43100D01*
X58600Y-35900D02*
X58600Y-36300D01*
X58400Y-36100D02*
X58800Y-36100D01*
X58600Y-42900D02*
X58600Y-43300D01*
X58400Y-43100D02*
X58800Y-43100D01*
X59600Y-35900D02*
X59600Y-36300D01*
X59400Y-36100D02*
X59800Y-36100D01*
X59600Y-42900D02*
X59600Y-43300D01*
X59400Y-43100D02*
X59800Y-43100D01*
X60600Y-35900D02*
X60600Y-36300D01*
X60400Y-36100D02*
X60800Y-36100D01*
X60600Y-38400D02*
X60600Y-38800D01*
X60400Y-38600D02*
X60800Y-38600D01*
X60600Y-39400D02*
X60600Y-39800D01*
X60400Y-39600D02*
X60800Y-39600D01*
X60600Y-40400D02*
X60600Y-40800D01*
X60400Y-40600D02*
X60800Y-40600D01*
X60600Y-42900D02*
X60600Y-43300D01*
X60400Y-43100D02*
X60800Y-43100D01*
X61600Y-35900D02*
X61600Y-36300D01*
X61400Y-36100D02*
X61800Y-36100D01*
X61600Y-38400D02*
X61600Y-38800D01*
X61400Y-38600D02*
X61800Y-38600D01*
X61600Y-39400D02*
X61600Y-39800D01*
X61400Y-39600D02*
X61800Y-39600D01*
X61600Y-40400D02*
X61600Y-40800D01*
X61400Y-40600D02*
X61800Y-40600D01*
X61600Y-42900D02*
X61600Y-43300D01*
X61400Y-43100D02*
X61800Y-43100D01*
G54D13*
X45589Y-45768D02*
X45589Y-44587D01*
X45870Y-44587D01*
X46039Y-44643D01*
X46151Y-44755D01*
X46207Y-44868D01*
X46264Y-45093D01*
X46264Y-45262D01*
X46207Y-45487D01*
X46151Y-45599D01*
X46039Y-45711D01*
X45870Y-45768D01*
X45589Y-45768D01*
X46770Y-45768D02*
X46770Y-44980D01*
X46770Y-45205D02*
X46826Y-45093D01*
X46882Y-45037D01*
X46995Y-44980D01*
X47107Y-44980D01*
X47501Y-45768D02*
X47501Y-44980D01*
X47501Y-44587D02*
X47445Y-44643D01*
X47501Y-44699D01*
X47557Y-44643D01*
X47501Y-44587D01*
X47501Y-44699D01*
X48232Y-45768D02*
X48120Y-45711D01*
X48063Y-45599D01*
X48063Y-44587D01*
X48851Y-45768D02*
X48738Y-45711D01*
X48682Y-45599D01*
X48682Y-44587D01*
X50201Y-45768D02*
X50201Y-44587D01*
X50594Y-45430D01*
X50988Y-44587D01*
X50988Y-45768D01*
X52057Y-45768D02*
X52057Y-45149D01*
X52000Y-45037D01*
X51888Y-44980D01*
X51663Y-44980D01*
X51550Y-45037D01*
X52057Y-45711D02*
X51944Y-45768D01*
X51663Y-45768D01*
X51550Y-45711D01*
X51494Y-45599D01*
X51494Y-45487D01*
X51550Y-45374D01*
X51663Y-45318D01*
X51944Y-45318D01*
X52057Y-45262D01*
X52619Y-44980D02*
X52619Y-46161D01*
X52619Y-45037D02*
X52731Y-44980D01*
X52956Y-44980D01*
X53069Y-45037D01*
X53125Y-45093D01*
X53181Y-45205D01*
X53181Y-45543D01*
X53125Y-45655D01*
X53069Y-45711D01*
X52956Y-45768D01*
X52731Y-45768D01*
X52619Y-45711D01*
X53688Y-45655D02*
X53744Y-45711D01*
X53688Y-45768D01*
X53631Y-45711D01*
X53688Y-45655D01*
X53688Y-45768D01*
X53688Y-45037D02*
X53744Y-45093D01*
X53688Y-45149D01*
X53631Y-45093D01*
X53688Y-45037D01*
X53688Y-45149D01*
X44323Y-47672D02*
X44520Y-47868D01*
X44520Y-47672D02*
X44323Y-47868D01*
X45814Y-47067D02*
X45926Y-47067D01*
X46039Y-47123D01*
X46095Y-47179D01*
X46151Y-47292D01*
X46207Y-47517D01*
X46207Y-47798D01*
X46151Y-48023D01*
X46095Y-48136D01*
X46039Y-48192D01*
X45926Y-48248D01*
X45814Y-48248D01*
X45701Y-48192D01*
X45645Y-48136D01*
X45589Y-48023D01*
X45532Y-47798D01*
X45532Y-47517D01*
X45589Y-47292D01*
X45645Y-47179D01*
X45701Y-47123D01*
X45814Y-47067D01*
X46713Y-48136D02*
X46770Y-48192D01*
X46713Y-48248D01*
X46657Y-48192D01*
X46713Y-48136D01*
X46713Y-48248D01*
X47838Y-47067D02*
X47276Y-47067D01*
X47220Y-47629D01*
X47276Y-47573D01*
X47388Y-47517D01*
X47670Y-47517D01*
X47782Y-47573D01*
X47838Y-47629D01*
X47895Y-47742D01*
X47895Y-48023D01*
X47838Y-48136D01*
X47782Y-48192D01*
X47670Y-48248D01*
X47388Y-48248D01*
X47276Y-48192D01*
X47220Y-48136D01*
X48626Y-47067D02*
X48738Y-47067D01*
X48851Y-47123D01*
X48907Y-47179D01*
X48963Y-47292D01*
X49019Y-47517D01*
X49019Y-47798D01*
X48963Y-48023D01*
X48907Y-48136D01*
X48851Y-48192D01*
X48738Y-48248D01*
X48626Y-48248D01*
X48513Y-48192D01*
X48457Y-48136D01*
X48401Y-48023D01*
X48344Y-47798D01*
X48344Y-47517D01*
X48401Y-47292D01*
X48457Y-47179D01*
X48513Y-47123D01*
X48626Y-47067D01*
X49526Y-48248D02*
X49526Y-47461D01*
X49526Y-47573D02*
X49582Y-47517D01*
X49694Y-47461D01*
X49863Y-47461D01*
X49976Y-47517D01*
X50032Y-47629D01*
X50032Y-48248D01*
X50032Y-47629D02*
X50088Y-47517D01*
X50201Y-47461D01*
X50369Y-47461D01*
X50482Y-47517D01*
X50538Y-47629D01*
X50538Y-48248D01*
X51100Y-48248D02*
X51100Y-47461D01*
X51100Y-47573D02*
X51157Y-47517D01*
X51269Y-47461D01*
X51438Y-47461D01*
X51550Y-47517D01*
X51607Y-47629D01*
X51607Y-48248D01*
X51607Y-47629D02*
X51663Y-47517D01*
X51775Y-47461D01*
X51944Y-47461D01*
X52057Y-47517D01*
X52113Y-47629D01*
X52113Y-48248D01*
X54419Y-47011D02*
X53406Y-48529D01*
X55937Y-47067D02*
X56050Y-47067D01*
X56162Y-47123D01*
X56219Y-47179D01*
X56275Y-47292D01*
X56331Y-47517D01*
X56331Y-47798D01*
X56275Y-48023D01*
X56219Y-48136D01*
X56162Y-48192D01*
X56050Y-48248D01*
X55937Y-48248D01*
X55825Y-48192D01*
X55769Y-48136D01*
X55712Y-48023D01*
X55656Y-47798D01*
X55656Y-47517D01*
X55712Y-47292D01*
X55769Y-47179D01*
X55825Y-47123D01*
X55937Y-47067D01*
X56837Y-48136D02*
X56893Y-48192D01*
X56837Y-48248D01*
X56781Y-48192D01*
X56837Y-48136D01*
X56837Y-48248D01*
X57625Y-47067D02*
X57737Y-47067D01*
X57850Y-47123D01*
X57906Y-47179D01*
X57962Y-47292D01*
X58018Y-47517D01*
X58018Y-47798D01*
X57962Y-48023D01*
X57906Y-48136D01*
X57850Y-48192D01*
X57737Y-48248D01*
X57625Y-48248D01*
X57512Y-48192D01*
X57456Y-48136D01*
X57400Y-48023D01*
X57343Y-47798D01*
X57343Y-47517D01*
X57400Y-47292D01*
X57456Y-47179D01*
X57512Y-47123D01*
X57625Y-47067D01*
X58468Y-47179D02*
X58524Y-47123D01*
X58637Y-47067D01*
X58918Y-47067D01*
X59031Y-47123D01*
X59087Y-47179D01*
X59143Y-47292D01*
X59143Y-47404D01*
X59087Y-47573D01*
X58412Y-48248D01*
X59143Y-48248D01*
X59874Y-47067D02*
X59987Y-47067D01*
X60099Y-47123D01*
X60156Y-47179D01*
X60212Y-47292D01*
X60268Y-47517D01*
X60268Y-47798D01*
X60212Y-48023D01*
X60156Y-48136D01*
X60099Y-48192D01*
X59987Y-48248D01*
X59874Y-48248D01*
X59762Y-48192D01*
X59706Y-48136D01*
X59649Y-48023D01*
X59593Y-47798D01*
X59593Y-47517D01*
X59649Y-47292D01*
X59706Y-47179D01*
X59762Y-47123D01*
X59874Y-47067D01*
X60718Y-47067D02*
X60718Y-47292D01*
X61168Y-47067D02*
X61168Y-47292D01*
X62911Y-48698D02*
X62855Y-48642D01*
X62743Y-48473D01*
X62686Y-48361D01*
X62630Y-48192D01*
X62574Y-47911D01*
X62574Y-47686D01*
X62630Y-47404D01*
X62686Y-47236D01*
X62743Y-47123D01*
X62855Y-46954D01*
X62911Y-46898D01*
X63305Y-47179D02*
X63361Y-47123D01*
X63474Y-47067D01*
X63755Y-47067D01*
X63868Y-47123D01*
X63924Y-47179D01*
X63980Y-47292D01*
X63980Y-47404D01*
X63924Y-47573D01*
X63249Y-48248D01*
X63980Y-48248D01*
X64430Y-47179D02*
X64486Y-47123D01*
X64599Y-47067D01*
X64880Y-47067D01*
X64992Y-47123D01*
X65049Y-47179D01*
X65105Y-47292D01*
X65105Y-47404D01*
X65049Y-47573D01*
X64374Y-48248D01*
X65105Y-48248D01*
X66511Y-48248D02*
X66511Y-47067D01*
X67017Y-48248D02*
X67017Y-47629D01*
X66961Y-47517D01*
X66848Y-47461D01*
X66680Y-47461D01*
X66567Y-47517D01*
X66511Y-47573D01*
X67748Y-48248D02*
X67636Y-48192D01*
X67580Y-48136D01*
X67523Y-48023D01*
X67523Y-47686D01*
X67580Y-47573D01*
X67636Y-47517D01*
X67748Y-47461D01*
X67917Y-47461D01*
X68030Y-47517D01*
X68086Y-47573D01*
X68142Y-47686D01*
X68142Y-48023D01*
X68086Y-48136D01*
X68030Y-48192D01*
X67917Y-48248D01*
X67748Y-48248D01*
X68817Y-48248D02*
X68704Y-48192D01*
X68648Y-48079D01*
X68648Y-47067D01*
X69717Y-48192D02*
X69604Y-48248D01*
X69379Y-48248D01*
X69267Y-48192D01*
X69211Y-48079D01*
X69211Y-47629D01*
X69267Y-47517D01*
X69379Y-47461D01*
X69604Y-47461D01*
X69717Y-47517D01*
X69773Y-47629D01*
X69773Y-47742D01*
X69211Y-47854D01*
X70223Y-48192D02*
X70335Y-48248D01*
X70560Y-48248D01*
X70673Y-48192D01*
X70729Y-48079D01*
X70729Y-48023D01*
X70673Y-47911D01*
X70560Y-47854D01*
X70392Y-47854D01*
X70279Y-47798D01*
X70223Y-47686D01*
X70223Y-47629D01*
X70279Y-47517D01*
X70392Y-47461D01*
X70560Y-47461D01*
X70673Y-47517D01*
X71123Y-48698D02*
X71179Y-48642D01*
X71292Y-48473D01*
X71348Y-48361D01*
X71404Y-48192D01*
X71460Y-47911D01*
X71460Y-47686D01*
X71404Y-47404D01*
X71348Y-47236D01*
X71292Y-47123D01*
X71179Y-46954D01*
X71123Y-46898D01*
G54D12*
X44520Y-49329D02*
G75*
G03X44520Y-49329I-196J0D01*
G74*
G01*
G54D13*
X46207Y-49807D02*
X45532Y-49807D01*
X45870Y-49807D02*
X45870Y-48626D01*
X45757Y-48795D01*
X45645Y-48907D01*
X45532Y-48963D01*
X46713Y-49695D02*
X46770Y-49751D01*
X46713Y-49807D01*
X46657Y-49751D01*
X46713Y-49695D01*
X46713Y-49807D01*
X47501Y-48626D02*
X47613Y-48626D01*
X47726Y-48682D01*
X47782Y-48738D01*
X47838Y-48851D01*
X47895Y-49076D01*
X47895Y-49357D01*
X47838Y-49582D01*
X47782Y-49695D01*
X47726Y-49751D01*
X47613Y-49807D01*
X47501Y-49807D01*
X47388Y-49751D01*
X47332Y-49695D01*
X47276Y-49582D01*
X47220Y-49357D01*
X47220Y-49076D01*
X47276Y-48851D01*
X47332Y-48738D01*
X47388Y-48682D01*
X47501Y-48626D01*
X48626Y-48626D02*
X48738Y-48626D01*
X48851Y-48682D01*
X48907Y-48738D01*
X48963Y-48851D01*
X49019Y-49076D01*
X49019Y-49357D01*
X48963Y-49582D01*
X48907Y-49695D01*
X48851Y-49751D01*
X48738Y-49807D01*
X48626Y-49807D01*
X48513Y-49751D01*
X48457Y-49695D01*
X48401Y-49582D01*
X48344Y-49357D01*
X48344Y-49076D01*
X48401Y-48851D01*
X48457Y-48738D01*
X48513Y-48682D01*
X48626Y-48626D01*
X49526Y-49807D02*
X49526Y-49020D01*
X49526Y-49132D02*
X49582Y-49076D01*
X49694Y-49020D01*
X49863Y-49020D01*
X49976Y-49076D01*
X50032Y-49188D01*
X50032Y-49807D01*
X50032Y-49188D02*
X50088Y-49076D01*
X50201Y-49020D01*
X50369Y-49020D01*
X50482Y-49076D01*
X50538Y-49188D01*
X50538Y-49807D01*
X51100Y-49807D02*
X51100Y-49020D01*
X51100Y-49132D02*
X51157Y-49076D01*
X51269Y-49020D01*
X51438Y-49020D01*
X51550Y-49076D01*
X51607Y-49188D01*
X51607Y-49807D01*
X51607Y-49188D02*
X51663Y-49076D01*
X51775Y-49020D01*
X51944Y-49020D01*
X52057Y-49076D01*
X52113Y-49188D01*
X52113Y-49807D01*
X54419Y-48570D02*
X53406Y-50088D01*
X55937Y-48626D02*
X56050Y-48626D01*
X56162Y-48682D01*
X56219Y-48738D01*
X56275Y-48851D01*
X56331Y-49076D01*
X56331Y-49357D01*
X56275Y-49582D01*
X56219Y-49695D01*
X56162Y-49751D01*
X56050Y-49807D01*
X55937Y-49807D01*
X55825Y-49751D01*
X55769Y-49695D01*
X55712Y-49582D01*
X55656Y-49357D01*
X55656Y-49076D01*
X55712Y-48851D01*
X55769Y-48738D01*
X55825Y-48682D01*
X55937Y-48626D01*
X56837Y-49695D02*
X56893Y-49751D01*
X56837Y-49807D01*
X56781Y-49751D01*
X56837Y-49695D01*
X56837Y-49807D01*
X57625Y-48626D02*
X57737Y-48626D01*
X57850Y-48682D01*
X57906Y-48738D01*
X57962Y-48851D01*
X58018Y-49076D01*
X58018Y-49357D01*
X57962Y-49582D01*
X57906Y-49695D01*
X57850Y-49751D01*
X57737Y-49807D01*
X57625Y-49807D01*
X57512Y-49751D01*
X57456Y-49695D01*
X57400Y-49582D01*
X57343Y-49357D01*
X57343Y-49076D01*
X57400Y-48851D01*
X57456Y-48738D01*
X57512Y-48682D01*
X57625Y-48626D01*
X58412Y-48626D02*
X59143Y-48626D01*
X58749Y-49076D01*
X58918Y-49076D01*
X59031Y-49132D01*
X59087Y-49188D01*
X59143Y-49301D01*
X59143Y-49582D01*
X59087Y-49695D01*
X59031Y-49751D01*
X58918Y-49807D01*
X58581Y-49807D01*
X58468Y-49751D01*
X58412Y-49695D01*
X59706Y-49807D02*
X59931Y-49807D01*
X60043Y-49751D01*
X60099Y-49695D01*
X60212Y-49526D01*
X60268Y-49301D01*
X60268Y-48851D01*
X60212Y-48738D01*
X60156Y-48682D01*
X60043Y-48626D01*
X59818Y-48626D01*
X59706Y-48682D01*
X59649Y-48738D01*
X59593Y-48851D01*
X59593Y-49132D01*
X59649Y-49245D01*
X59706Y-49301D01*
X59818Y-49357D01*
X60043Y-49357D01*
X60156Y-49301D01*
X60212Y-49245D01*
X60268Y-49132D01*
X60718Y-48626D02*
X60718Y-48851D01*
X61168Y-48626D02*
X61168Y-48851D01*
X62911Y-50257D02*
X62855Y-50201D01*
X62743Y-50032D01*
X62686Y-49920D01*
X62630Y-49751D01*
X62574Y-49470D01*
X62574Y-49245D01*
X62630Y-48963D01*
X62686Y-48795D01*
X62743Y-48682D01*
X62855Y-48514D01*
X62911Y-48457D01*
X63305Y-48738D02*
X63361Y-48682D01*
X63474Y-48626D01*
X63755Y-48626D01*
X63868Y-48682D01*
X63924Y-48738D01*
X63980Y-48851D01*
X63980Y-48963D01*
X63924Y-49132D01*
X63249Y-49807D01*
X63980Y-49807D01*
X65386Y-49807D02*
X65386Y-48626D01*
X65892Y-49807D02*
X65892Y-49188D01*
X65836Y-49076D01*
X65724Y-49020D01*
X65555Y-49020D01*
X65442Y-49076D01*
X65386Y-49132D01*
X66623Y-49807D02*
X66511Y-49751D01*
X66455Y-49695D01*
X66398Y-49582D01*
X66398Y-49245D01*
X66455Y-49132D01*
X66511Y-49076D01*
X66623Y-49020D01*
X66792Y-49020D01*
X66905Y-49076D01*
X66961Y-49132D01*
X67017Y-49245D01*
X67017Y-49582D01*
X66961Y-49695D01*
X66905Y-49751D01*
X66792Y-49807D01*
X66623Y-49807D01*
X67692Y-49807D02*
X67580Y-49751D01*
X67523Y-49638D01*
X67523Y-48626D01*
X68592Y-49751D02*
X68479Y-49807D01*
X68255Y-49807D01*
X68142Y-49751D01*
X68086Y-49638D01*
X68086Y-49188D01*
X68142Y-49076D01*
X68255Y-49020D01*
X68479Y-49020D01*
X68592Y-49076D01*
X68648Y-49188D01*
X68648Y-49301D01*
X68086Y-49413D01*
X69098Y-49751D02*
X69211Y-49807D01*
X69436Y-49807D01*
X69548Y-49751D01*
X69604Y-49638D01*
X69604Y-49582D01*
X69548Y-49470D01*
X69436Y-49413D01*
X69267Y-49413D01*
X69154Y-49357D01*
X69098Y-49245D01*
X69098Y-49188D01*
X69154Y-49076D01*
X69267Y-49020D01*
X69436Y-49020D01*
X69548Y-49076D01*
X69998Y-50257D02*
X70054Y-50201D01*
X70167Y-50032D01*
X70223Y-49920D01*
X70279Y-49751D01*
X70335Y-49470D01*
X70335Y-49245D01*
X70279Y-48963D01*
X70223Y-48795D01*
X70167Y-48682D01*
X70054Y-48514D01*
X69998Y-48457D01*
X44320Y-50688D02*
X44320Y-51088D01*
X44120Y-50888D02*
X44520Y-50888D01*
X46207Y-51366D02*
X45532Y-51366D01*
X45870Y-51366D02*
X45870Y-50185D01*
X45757Y-50354D01*
X45645Y-50466D01*
X45532Y-50523D01*
X46713Y-51254D02*
X46770Y-51310D01*
X46713Y-51366D01*
X46657Y-51310D01*
X46713Y-51254D01*
X46713Y-51366D01*
X47501Y-50185D02*
X47613Y-50185D01*
X47726Y-50241D01*
X47782Y-50298D01*
X47838Y-50410D01*
X47895Y-50635D01*
X47895Y-50916D01*
X47838Y-51141D01*
X47782Y-51254D01*
X47726Y-51310D01*
X47613Y-51366D01*
X47501Y-51366D01*
X47388Y-51310D01*
X47332Y-51254D01*
X47276Y-51141D01*
X47220Y-50916D01*
X47220Y-50635D01*
X47276Y-50410D01*
X47332Y-50298D01*
X47388Y-50241D01*
X47501Y-50185D01*
X48344Y-50298D02*
X48401Y-50241D01*
X48513Y-50185D01*
X48794Y-50185D01*
X48907Y-50241D01*
X48963Y-50298D01*
X49019Y-50410D01*
X49019Y-50523D01*
X48963Y-50691D01*
X48288Y-51366D01*
X49019Y-51366D01*
X49526Y-51366D02*
X49526Y-50579D01*
X49526Y-50691D02*
X49582Y-50635D01*
X49694Y-50579D01*
X49863Y-50579D01*
X49976Y-50635D01*
X50032Y-50747D01*
X50032Y-51366D01*
X50032Y-50747D02*
X50088Y-50635D01*
X50201Y-50579D01*
X50369Y-50579D01*
X50482Y-50635D01*
X50538Y-50747D01*
X50538Y-51366D01*
X51100Y-51366D02*
X51100Y-50579D01*
X51100Y-50691D02*
X51157Y-50635D01*
X51269Y-50579D01*
X51438Y-50579D01*
X51550Y-50635D01*
X51607Y-50747D01*
X51607Y-51366D01*
X51607Y-50747D02*
X51663Y-50635D01*
X51775Y-50579D01*
X51944Y-50579D01*
X52057Y-50635D01*
X52113Y-50747D01*
X52113Y-51366D01*
X54419Y-50129D02*
X53406Y-51647D01*
X55937Y-50185D02*
X56050Y-50185D01*
X56162Y-50241D01*
X56219Y-50298D01*
X56275Y-50410D01*
X56331Y-50635D01*
X56331Y-50916D01*
X56275Y-51141D01*
X56219Y-51254D01*
X56162Y-51310D01*
X56050Y-51366D01*
X55937Y-51366D01*
X55825Y-51310D01*
X55769Y-51254D01*
X55712Y-51141D01*
X55656Y-50916D01*
X55656Y-50635D01*
X55712Y-50410D01*
X55769Y-50298D01*
X55825Y-50241D01*
X55937Y-50185D01*
X56837Y-51254D02*
X56893Y-51310D01*
X56837Y-51366D01*
X56781Y-51310D01*
X56837Y-51254D01*
X56837Y-51366D01*
X57625Y-50185D02*
X57737Y-50185D01*
X57850Y-50241D01*
X57906Y-50298D01*
X57962Y-50410D01*
X58018Y-50635D01*
X58018Y-50916D01*
X57962Y-51141D01*
X57906Y-51254D01*
X57850Y-51310D01*
X57737Y-51366D01*
X57625Y-51366D01*
X57512Y-51310D01*
X57456Y-51254D01*
X57400Y-51141D01*
X57343Y-50916D01*
X57343Y-50635D01*
X57400Y-50410D01*
X57456Y-50298D01*
X57512Y-50241D01*
X57625Y-50185D01*
X59031Y-50579D02*
X59031Y-51366D01*
X58749Y-50129D02*
X58468Y-50972D01*
X59199Y-50972D01*
X59874Y-50185D02*
X59987Y-50185D01*
X60099Y-50241D01*
X60156Y-50298D01*
X60212Y-50410D01*
X60268Y-50635D01*
X60268Y-50916D01*
X60212Y-51141D01*
X60156Y-51254D01*
X60099Y-51310D01*
X59987Y-51366D01*
X59874Y-51366D01*
X59762Y-51310D01*
X59706Y-51254D01*
X59649Y-51141D01*
X59593Y-50916D01*
X59593Y-50635D01*
X59649Y-50410D01*
X59706Y-50298D01*
X59762Y-50241D01*
X59874Y-50185D01*
X60718Y-50185D02*
X60718Y-50410D01*
X61168Y-50185D02*
X61168Y-50410D01*
X62911Y-51816D02*
X62855Y-51760D01*
X62743Y-51591D01*
X62686Y-51479D01*
X62630Y-51310D01*
X62574Y-51029D01*
X62574Y-50804D01*
X62630Y-50523D01*
X62686Y-50354D01*
X62743Y-50241D01*
X62855Y-50073D01*
X62911Y-50016D01*
X63249Y-50185D02*
X63980Y-50185D01*
X63586Y-50635D01*
X63755Y-50635D01*
X63868Y-50691D01*
X63924Y-50747D01*
X63980Y-50860D01*
X63980Y-51141D01*
X63924Y-51254D01*
X63868Y-51310D01*
X63755Y-51366D01*
X63418Y-51366D01*
X63305Y-51310D01*
X63249Y-51254D01*
X64430Y-50298D02*
X64486Y-50241D01*
X64599Y-50185D01*
X64880Y-50185D01*
X64992Y-50241D01*
X65049Y-50298D01*
X65105Y-50410D01*
X65105Y-50523D01*
X65049Y-50691D01*
X64374Y-51366D01*
X65105Y-51366D01*
X66511Y-51366D02*
X66511Y-50185D01*
X67017Y-51366D02*
X67017Y-50747D01*
X66961Y-50635D01*
X66848Y-50579D01*
X66680Y-50579D01*
X66567Y-50635D01*
X66511Y-50691D01*
X67748Y-51366D02*
X67636Y-51310D01*
X67580Y-51254D01*
X67523Y-51141D01*
X67523Y-50804D01*
X67580Y-50691D01*
X67636Y-50635D01*
X67748Y-50579D01*
X67917Y-50579D01*
X68030Y-50635D01*
X68086Y-50691D01*
X68142Y-50804D01*
X68142Y-51141D01*
X68086Y-51254D01*
X68030Y-51310D01*
X67917Y-51366D01*
X67748Y-51366D01*
X68817Y-51366D02*
X68704Y-51310D01*
X68648Y-51197D01*
X68648Y-50185D01*
X69717Y-51310D02*
X69604Y-51366D01*
X69379Y-51366D01*
X69267Y-51310D01*
X69211Y-51197D01*
X69211Y-50747D01*
X69267Y-50635D01*
X69379Y-50579D01*
X69604Y-50579D01*
X69717Y-50635D01*
X69773Y-50747D01*
X69773Y-50860D01*
X69211Y-50972D01*
X70223Y-51310D02*
X70335Y-51366D01*
X70560Y-51366D01*
X70673Y-51310D01*
X70729Y-51197D01*
X70729Y-51141D01*
X70673Y-51029D01*
X70560Y-50972D01*
X70392Y-50972D01*
X70279Y-50916D01*
X70223Y-50804D01*
X70223Y-50747D01*
X70279Y-50635D01*
X70392Y-50579D01*
X70560Y-50579D01*
X70673Y-50635D01*
X71123Y-51816D02*
X71179Y-51760D01*
X71292Y-51591D01*
X71348Y-51479D01*
X71404Y-51310D01*
X71460Y-51029D01*
X71460Y-50804D01*
X71404Y-50523D01*
X71348Y-50354D01*
X71292Y-50241D01*
X71179Y-50073D01*
X71123Y-50016D01*
M02*
