G04 (created by PCBNEW (2013-05-31 BZR 4019)-stable) date 16/09/2013 19:50:50*
%MOIN*%
G04 Gerber Fmt 3.4, Leading zero omitted, Abs format*
%FSLAX34Y34*%
G01*
G70*
G90*
G04 APERTURE LIST*
%ADD10C,0.00590551*%
%ADD11R,0.06X0.06*%
%ADD12C,0.06*%
%ADD13R,0.025X0.05*%
%ADD14R,0.11X0.07*%
%ADD15R,0.055X0.035*%
%ADD16R,0.035X0.055*%
%ADD17R,0.03X0.02*%
%ADD18R,0.08X0.06*%
%ADD19R,0.06X0.08*%
%ADD20R,0.0394X0.0315*%
%ADD21R,0.0472X0.0472*%
%ADD22R,0.0315X0.0394*%
%ADD23C,0.0393701*%
%ADD24R,0.05X0.1*%
%ADD25C,0.035*%
%ADD26C,0.0354331*%
%ADD27C,0.015748*%
%ADD28C,0.015*%
%ADD29C,0.01*%
%ADD30C,0.023622*%
G04 APERTURE END LIST*
G54D10*
G54D11*
X61600Y-36100D03*
G54D12*
X60600Y-36100D03*
X59600Y-36100D03*
X58600Y-36100D03*
X57600Y-36100D03*
X56600Y-36100D03*
G54D11*
X50600Y-36100D03*
G54D12*
X49600Y-36100D03*
X48600Y-36100D03*
X47600Y-36100D03*
X46600Y-36100D03*
X45600Y-36100D03*
G54D11*
X45600Y-43100D03*
G54D12*
X46600Y-43100D03*
X47600Y-43100D03*
X48600Y-43100D03*
X49600Y-43100D03*
X50600Y-43100D03*
G54D11*
X56600Y-43100D03*
G54D12*
X57600Y-43100D03*
X58600Y-43100D03*
X59600Y-43100D03*
X60600Y-43100D03*
X61600Y-43100D03*
G54D13*
X52850Y-43327D03*
X53350Y-43327D03*
X53850Y-43327D03*
X54350Y-43327D03*
X53850Y-41075D03*
X54350Y-41075D03*
X53350Y-41075D03*
X52850Y-41075D03*
G54D14*
X57200Y-41700D03*
X57200Y-40300D03*
G54D15*
X57750Y-39175D03*
X57750Y-38425D03*
X56850Y-38425D03*
X56850Y-39175D03*
G54D16*
X57225Y-37300D03*
X57975Y-37300D03*
X58825Y-37300D03*
X59575Y-37300D03*
G54D15*
X54100Y-39375D03*
X54100Y-38625D03*
G54D17*
X47250Y-39625D03*
X47250Y-40375D03*
X48250Y-39625D03*
X47250Y-40000D03*
X48250Y-40375D03*
G54D16*
X47575Y-41500D03*
X46825Y-41500D03*
G54D18*
X55250Y-37150D03*
X55250Y-38450D03*
G54D15*
X52050Y-39375D03*
X52050Y-38625D03*
G54D16*
X45975Y-41500D03*
X45225Y-41500D03*
G54D19*
X48500Y-41500D03*
X49800Y-41500D03*
G54D16*
X49175Y-40300D03*
X49925Y-40300D03*
G54D20*
X59483Y-38800D03*
X58617Y-39175D03*
X58617Y-38425D03*
G54D14*
X45650Y-38800D03*
X45650Y-37400D03*
G54D15*
X45700Y-40575D03*
X45700Y-39825D03*
X51050Y-39375D03*
X51050Y-40125D03*
X53100Y-38625D03*
X53100Y-39375D03*
X50050Y-39375D03*
X50050Y-38625D03*
G54D21*
X50187Y-37600D03*
X51013Y-37600D03*
G54D16*
X58925Y-40200D03*
X59675Y-40200D03*
G54D22*
X59250Y-41067D03*
X59625Y-41933D03*
X58875Y-41933D03*
G54D11*
X60600Y-38600D03*
G54D12*
X61600Y-38600D03*
X60600Y-39600D03*
X61600Y-39600D03*
X60600Y-40600D03*
X61600Y-40600D03*
G54D11*
X52600Y-37100D03*
G54D12*
X53600Y-37100D03*
G54D23*
X52600Y-36050D03*
X53600Y-36050D03*
G54D24*
X47350Y-38250D03*
X48550Y-38250D03*
G54D25*
X46400Y-39550D03*
G54D26*
X51150Y-38400D03*
X59200Y-38000D03*
G54D25*
X55300Y-39350D03*
G54D26*
X51600Y-37600D03*
X49300Y-38900D03*
X58650Y-40900D03*
X49300Y-37450D03*
X53550Y-42200D03*
X58200Y-40450D03*
X58250Y-39750D03*
X45150Y-40650D03*
X56550Y-37300D03*
G54D27*
X45975Y-41500D02*
X45975Y-41325D01*
X45975Y-41325D02*
X46925Y-40375D01*
X45975Y-41500D02*
X45975Y-41800D01*
X45700Y-43000D02*
X45600Y-43100D01*
X45700Y-42075D02*
X45700Y-43000D01*
X45975Y-41800D02*
X45700Y-42075D01*
X47250Y-38250D02*
X47250Y-37850D01*
X48200Y-36900D02*
X50600Y-36900D01*
X47250Y-37850D02*
X48200Y-36900D01*
X50600Y-36900D02*
X50600Y-36100D01*
G54D28*
X50600Y-36100D02*
X50600Y-36900D01*
X50600Y-36900D02*
X50600Y-36900D01*
G54D27*
X50600Y-36900D02*
X52350Y-36900D01*
G54D28*
X47250Y-39625D02*
X46900Y-39625D01*
X46900Y-39625D02*
X46900Y-39625D01*
X46900Y-39625D02*
X46900Y-40400D01*
X46900Y-40400D02*
X46875Y-40375D01*
X46875Y-40375D02*
X46925Y-40375D01*
X46925Y-40375D02*
X47250Y-40375D01*
X47200Y-38500D02*
X47200Y-39575D01*
X47200Y-39575D02*
X47250Y-39625D01*
G54D27*
X57600Y-36100D02*
X57600Y-36750D01*
X55750Y-36750D02*
X55350Y-37150D01*
X57600Y-36750D02*
X55750Y-36750D01*
G54D29*
X57600Y-36750D02*
X57600Y-36750D01*
G54D27*
X57975Y-37300D02*
X58825Y-37300D01*
G54D29*
X57600Y-36100D02*
X57600Y-36750D01*
G54D27*
X57975Y-37125D02*
X57975Y-37300D01*
X57600Y-36750D02*
X57975Y-37125D01*
X45700Y-39825D02*
X46125Y-39825D01*
X46125Y-39825D02*
X46400Y-39550D01*
X45700Y-38800D02*
X45700Y-39050D01*
X45700Y-39050D02*
X46600Y-38150D01*
X46600Y-38150D02*
X46600Y-36000D01*
X45700Y-39825D02*
X45700Y-38800D01*
X53100Y-38625D02*
X53100Y-38350D01*
X53100Y-38350D02*
X52900Y-38150D01*
X52900Y-38150D02*
X51400Y-38150D01*
X51400Y-38150D02*
X51150Y-38400D01*
X55800Y-39350D02*
X55300Y-39350D01*
X56050Y-39100D02*
X55800Y-39350D01*
X56050Y-38350D02*
X56050Y-39100D01*
X56400Y-38000D02*
X56050Y-38350D01*
G54D29*
X56400Y-38000D02*
X56400Y-38000D01*
G54D27*
X59200Y-38000D02*
X56400Y-38000D01*
X54100Y-39375D02*
X55275Y-39375D01*
G54D29*
X55275Y-39375D02*
X55300Y-39350D01*
G54D30*
X60600Y-43100D02*
X60600Y-43000D01*
G54D27*
X60600Y-43000D02*
X60150Y-42550D01*
X60150Y-42550D02*
X58050Y-42550D01*
X58050Y-42550D02*
X57200Y-41700D01*
X59625Y-41933D02*
X60017Y-41933D01*
X60017Y-41933D02*
X60600Y-41350D01*
X60600Y-41350D02*
X60600Y-40600D01*
G54D29*
X51600Y-37600D02*
X51013Y-37600D01*
G54D27*
X49300Y-37450D02*
X49300Y-38900D01*
X58650Y-40900D02*
X58650Y-40475D01*
G54D29*
X58650Y-40475D02*
X58925Y-40200D01*
X58875Y-41933D02*
X58875Y-41925D01*
G54D27*
X58650Y-40475D02*
X58925Y-40200D01*
X58650Y-41700D02*
X58650Y-40475D01*
X58875Y-41925D02*
X58650Y-41700D01*
X57600Y-43100D02*
X57600Y-42800D01*
X57600Y-42800D02*
X57200Y-42400D01*
X57200Y-42400D02*
X56400Y-42400D01*
X56400Y-42400D02*
X56100Y-42100D01*
X56100Y-42100D02*
X56100Y-39550D01*
X56100Y-39550D02*
X56475Y-39175D01*
X56475Y-39175D02*
X56800Y-39175D01*
X51050Y-40125D02*
X51050Y-42300D01*
X51050Y-42300D02*
X50850Y-42500D01*
X49600Y-43100D02*
X50200Y-42500D01*
X50200Y-42500D02*
X50850Y-42500D01*
X53350Y-41650D02*
X53350Y-41075D01*
X51350Y-42500D02*
X52500Y-42500D01*
X50850Y-42500D02*
X51350Y-42500D01*
X52500Y-42500D02*
X53350Y-41650D01*
X46600Y-42050D02*
X46600Y-41725D01*
X46600Y-43100D02*
X46600Y-42050D01*
X46600Y-41725D02*
X46825Y-41500D01*
X53850Y-41075D02*
X53850Y-41900D01*
X53850Y-41900D02*
X53550Y-42200D01*
G54D28*
X57200Y-40300D02*
X58000Y-40300D01*
X58000Y-40300D02*
X58150Y-40450D01*
X58150Y-40450D02*
X58200Y-40450D01*
G54D27*
X56800Y-38425D02*
X57750Y-38425D01*
X57750Y-38425D02*
X58617Y-38425D01*
G54D29*
X50050Y-38625D02*
X50050Y-37737D01*
X50050Y-37737D02*
X50187Y-37600D01*
G54D27*
X48500Y-38500D02*
X48500Y-39375D01*
X48500Y-39375D02*
X48250Y-39625D01*
G54D28*
X47575Y-41500D02*
X48500Y-41500D01*
X58250Y-39175D02*
X58617Y-39175D01*
X58250Y-39750D02*
X58250Y-39175D01*
X57750Y-39175D02*
X58617Y-39175D01*
G54D27*
X52050Y-39375D02*
X52050Y-40025D01*
X52050Y-40025D02*
X52850Y-40825D01*
G54D28*
X51050Y-39375D02*
X52050Y-39375D01*
X50050Y-39375D02*
X51050Y-39375D01*
X49175Y-40300D02*
X49175Y-39675D01*
X49475Y-39375D02*
X50050Y-39375D01*
X49175Y-39675D02*
X49475Y-39375D01*
X49175Y-40300D02*
X48950Y-40300D01*
G54D27*
X48950Y-40300D02*
X48500Y-40750D01*
G54D28*
X48500Y-41500D02*
X48500Y-40750D01*
X48500Y-40750D02*
X48500Y-40625D01*
X48500Y-40625D02*
X48250Y-40375D01*
X48500Y-41500D02*
X48500Y-43000D01*
X48500Y-43000D02*
X48600Y-43100D01*
G54D27*
X45300Y-40600D02*
X45675Y-40600D01*
X45675Y-40600D02*
X45700Y-40575D01*
X45150Y-40650D02*
X45200Y-40600D01*
X45200Y-40600D02*
X45300Y-40600D01*
X61600Y-38600D02*
X61600Y-38200D01*
X59483Y-38417D02*
X59483Y-38800D01*
X59850Y-38050D02*
X59483Y-38417D01*
X61450Y-38050D02*
X59850Y-38050D01*
X61600Y-38200D02*
X61450Y-38050D01*
X56550Y-37300D02*
X57225Y-37300D01*
G54D10*
G36*
X58605Y-42283D02*
X58160Y-42283D01*
X58000Y-42123D01*
X58000Y-40699D01*
X58000Y-40412D01*
X57937Y-40350D01*
X57250Y-40350D01*
X57250Y-40837D01*
X57312Y-40900D01*
X57700Y-40900D01*
X57799Y-40899D01*
X57891Y-40861D01*
X57962Y-40791D01*
X58000Y-40699D01*
X58000Y-42123D01*
X57937Y-42060D01*
X57937Y-42012D01*
X57937Y-41312D01*
X57909Y-41243D01*
X57856Y-41190D01*
X57787Y-41162D01*
X57712Y-41162D01*
X57150Y-41162D01*
X57150Y-40837D01*
X57150Y-40350D01*
X57150Y-40250D01*
X57150Y-39762D01*
X57087Y-39700D01*
X56699Y-39699D01*
X56600Y-39700D01*
X56508Y-39738D01*
X56437Y-39808D01*
X56399Y-39900D01*
X56400Y-40187D01*
X56462Y-40250D01*
X57150Y-40250D01*
X57150Y-40350D01*
X56462Y-40350D01*
X56400Y-40412D01*
X56399Y-40699D01*
X56437Y-40791D01*
X56508Y-40861D01*
X56600Y-40899D01*
X56699Y-40900D01*
X57087Y-40900D01*
X57150Y-40837D01*
X57150Y-41162D01*
X56612Y-41162D01*
X56543Y-41190D01*
X56490Y-41243D01*
X56462Y-41312D01*
X56462Y-41387D01*
X56462Y-42085D01*
X56366Y-41989D01*
X56366Y-39660D01*
X56503Y-39523D01*
X56537Y-39537D01*
X56612Y-39537D01*
X57162Y-39537D01*
X57231Y-39509D01*
X57284Y-39456D01*
X57300Y-39418D01*
X57315Y-39456D01*
X57368Y-39509D01*
X57437Y-39537D01*
X57512Y-39537D01*
X57945Y-39537D01*
X57940Y-39542D01*
X57885Y-39677D01*
X57885Y-39735D01*
X57799Y-39700D01*
X57700Y-39699D01*
X57312Y-39700D01*
X57250Y-39762D01*
X57250Y-40250D01*
X57937Y-40250D01*
X58000Y-40187D01*
X58000Y-40016D01*
X58042Y-40059D01*
X58177Y-40114D01*
X58322Y-40115D01*
X58456Y-40059D01*
X58559Y-39957D01*
X58562Y-39949D01*
X58562Y-39962D01*
X58562Y-40185D01*
X58461Y-40286D01*
X58403Y-40373D01*
X58383Y-40475D01*
X58383Y-40650D01*
X58340Y-40692D01*
X58285Y-40827D01*
X58284Y-40972D01*
X58340Y-41106D01*
X58383Y-41149D01*
X58383Y-41700D01*
X58403Y-41801D01*
X58461Y-41888D01*
X58529Y-41956D01*
X58529Y-42167D01*
X58558Y-42236D01*
X58605Y-42283D01*
X58605Y-42283D01*
G37*
G54D29*
X58605Y-42283D02*
X58160Y-42283D01*
X58000Y-42123D01*
X58000Y-40699D01*
X58000Y-40412D01*
X57937Y-40350D01*
X57250Y-40350D01*
X57250Y-40837D01*
X57312Y-40900D01*
X57700Y-40900D01*
X57799Y-40899D01*
X57891Y-40861D01*
X57962Y-40791D01*
X58000Y-40699D01*
X58000Y-42123D01*
X57937Y-42060D01*
X57937Y-42012D01*
X57937Y-41312D01*
X57909Y-41243D01*
X57856Y-41190D01*
X57787Y-41162D01*
X57712Y-41162D01*
X57150Y-41162D01*
X57150Y-40837D01*
X57150Y-40350D01*
X57150Y-40250D01*
X57150Y-39762D01*
X57087Y-39700D01*
X56699Y-39699D01*
X56600Y-39700D01*
X56508Y-39738D01*
X56437Y-39808D01*
X56399Y-39900D01*
X56400Y-40187D01*
X56462Y-40250D01*
X57150Y-40250D01*
X57150Y-40350D01*
X56462Y-40350D01*
X56400Y-40412D01*
X56399Y-40699D01*
X56437Y-40791D01*
X56508Y-40861D01*
X56600Y-40899D01*
X56699Y-40900D01*
X57087Y-40900D01*
X57150Y-40837D01*
X57150Y-41162D01*
X56612Y-41162D01*
X56543Y-41190D01*
X56490Y-41243D01*
X56462Y-41312D01*
X56462Y-41387D01*
X56462Y-42085D01*
X56366Y-41989D01*
X56366Y-39660D01*
X56503Y-39523D01*
X56537Y-39537D01*
X56612Y-39537D01*
X57162Y-39537D01*
X57231Y-39509D01*
X57284Y-39456D01*
X57300Y-39418D01*
X57315Y-39456D01*
X57368Y-39509D01*
X57437Y-39537D01*
X57512Y-39537D01*
X57945Y-39537D01*
X57940Y-39542D01*
X57885Y-39677D01*
X57885Y-39735D01*
X57799Y-39700D01*
X57700Y-39699D01*
X57312Y-39700D01*
X57250Y-39762D01*
X57250Y-40250D01*
X57937Y-40250D01*
X58000Y-40187D01*
X58000Y-40016D01*
X58042Y-40059D01*
X58177Y-40114D01*
X58322Y-40115D01*
X58456Y-40059D01*
X58559Y-39957D01*
X58562Y-39949D01*
X58562Y-39962D01*
X58562Y-40185D01*
X58461Y-40286D01*
X58403Y-40373D01*
X58383Y-40475D01*
X58383Y-40650D01*
X58340Y-40692D01*
X58285Y-40827D01*
X58284Y-40972D01*
X58340Y-41106D01*
X58383Y-41149D01*
X58383Y-41700D01*
X58403Y-41801D01*
X58461Y-41888D01*
X58529Y-41956D01*
X58529Y-42167D01*
X58558Y-42236D01*
X58605Y-42283D01*
G54D10*
G36*
X62698Y-43732D02*
X62154Y-43732D01*
X62154Y-40681D01*
X62154Y-39681D01*
X62143Y-39463D01*
X62087Y-39328D01*
X62087Y-38503D01*
X62087Y-38503D01*
X62087Y-36362D01*
X62087Y-35762D01*
X62059Y-35693D01*
X62006Y-35640D01*
X61937Y-35612D01*
X61862Y-35612D01*
X61262Y-35612D01*
X61193Y-35640D01*
X61140Y-35693D01*
X61112Y-35762D01*
X61112Y-35837D01*
X61112Y-36437D01*
X61140Y-36506D01*
X61193Y-36559D01*
X61262Y-36587D01*
X61337Y-36587D01*
X61937Y-36587D01*
X62006Y-36559D01*
X62059Y-36506D01*
X62087Y-36437D01*
X62087Y-36362D01*
X62087Y-38503D01*
X62013Y-38324D01*
X61876Y-38186D01*
X61862Y-38180D01*
X61846Y-38098D01*
X61846Y-38098D01*
X61817Y-38054D01*
X61788Y-38011D01*
X61788Y-38011D01*
X61638Y-37861D01*
X61551Y-37803D01*
X61450Y-37783D01*
X61087Y-37783D01*
X61087Y-36003D01*
X61013Y-35824D01*
X60876Y-35686D01*
X60697Y-35612D01*
X60503Y-35612D01*
X60324Y-35686D01*
X60186Y-35823D01*
X60136Y-35944D01*
X60081Y-35812D01*
X59985Y-35784D01*
X59915Y-35855D01*
X59915Y-35714D01*
X59887Y-35618D01*
X59681Y-35545D01*
X59463Y-35556D01*
X59312Y-35618D01*
X59284Y-35714D01*
X59600Y-36029D01*
X59915Y-35714D01*
X59915Y-35855D01*
X59670Y-36100D01*
X59985Y-36415D01*
X60081Y-36387D01*
X60132Y-36245D01*
X60186Y-36375D01*
X60323Y-36513D01*
X60502Y-36587D01*
X60696Y-36587D01*
X60875Y-36513D01*
X61013Y-36376D01*
X61087Y-36197D01*
X61087Y-36003D01*
X61087Y-37783D01*
X59895Y-37783D01*
X59961Y-37716D01*
X59999Y-37624D01*
X60000Y-37525D01*
X60000Y-37074D01*
X59999Y-36975D01*
X59961Y-36883D01*
X59915Y-36836D01*
X59915Y-36485D01*
X59600Y-36170D01*
X59529Y-36241D01*
X59529Y-36100D01*
X59214Y-35784D01*
X59118Y-35812D01*
X59067Y-35954D01*
X59013Y-35824D01*
X58876Y-35686D01*
X58697Y-35612D01*
X58503Y-35612D01*
X58324Y-35686D01*
X58186Y-35823D01*
X58112Y-36002D01*
X58112Y-36196D01*
X58186Y-36375D01*
X58323Y-36513D01*
X58502Y-36587D01*
X58696Y-36587D01*
X58875Y-36513D01*
X59013Y-36376D01*
X59063Y-36255D01*
X59118Y-36387D01*
X59214Y-36415D01*
X59529Y-36100D01*
X59529Y-36241D01*
X59284Y-36485D01*
X59312Y-36581D01*
X59518Y-36654D01*
X59736Y-36643D01*
X59887Y-36581D01*
X59915Y-36485D01*
X59915Y-36836D01*
X59891Y-36812D01*
X59799Y-36774D01*
X59687Y-36775D01*
X59625Y-36837D01*
X59625Y-37250D01*
X59937Y-37250D01*
X60000Y-37187D01*
X60000Y-37074D01*
X60000Y-37525D01*
X60000Y-37412D01*
X59937Y-37350D01*
X59625Y-37350D01*
X59625Y-37762D01*
X59687Y-37825D01*
X59716Y-37825D01*
X59661Y-37861D01*
X59564Y-37958D01*
X59565Y-37927D01*
X59509Y-37793D01*
X59501Y-37785D01*
X59525Y-37762D01*
X59525Y-37350D01*
X59517Y-37350D01*
X59517Y-37250D01*
X59525Y-37250D01*
X59525Y-36837D01*
X59462Y-36775D01*
X59350Y-36774D01*
X59258Y-36812D01*
X59188Y-36883D01*
X59166Y-36935D01*
X59159Y-36918D01*
X59106Y-36865D01*
X59037Y-36837D01*
X58962Y-36837D01*
X58612Y-36837D01*
X58543Y-36865D01*
X58490Y-36918D01*
X58462Y-36987D01*
X58462Y-37033D01*
X58337Y-37033D01*
X58337Y-36987D01*
X58309Y-36918D01*
X58256Y-36865D01*
X58187Y-36837D01*
X58112Y-36837D01*
X58064Y-36837D01*
X57866Y-36639D01*
X57866Y-36517D01*
X57875Y-36513D01*
X58013Y-36376D01*
X58087Y-36197D01*
X58087Y-36003D01*
X58013Y-35824D01*
X57876Y-35686D01*
X57697Y-35612D01*
X57503Y-35612D01*
X57324Y-35686D01*
X57186Y-35823D01*
X57112Y-36002D01*
X57112Y-36196D01*
X57186Y-36375D01*
X57293Y-36483D01*
X56906Y-36483D01*
X57013Y-36376D01*
X57087Y-36197D01*
X57087Y-36003D01*
X57013Y-35824D01*
X56876Y-35686D01*
X56697Y-35612D01*
X56503Y-35612D01*
X56324Y-35686D01*
X56186Y-35823D01*
X56112Y-36002D01*
X56112Y-36196D01*
X56186Y-36375D01*
X56293Y-36483D01*
X55750Y-36483D01*
X55648Y-36503D01*
X55561Y-36561D01*
X55460Y-36662D01*
X54812Y-36662D01*
X54743Y-36690D01*
X54690Y-36743D01*
X54662Y-36812D01*
X54662Y-36887D01*
X54662Y-37487D01*
X54690Y-37556D01*
X54743Y-37609D01*
X54812Y-37637D01*
X54887Y-37637D01*
X55687Y-37637D01*
X55756Y-37609D01*
X55809Y-37556D01*
X55837Y-37487D01*
X55837Y-37412D01*
X55837Y-37039D01*
X55860Y-37016D01*
X56317Y-37016D01*
X56240Y-37092D01*
X56185Y-37227D01*
X56184Y-37372D01*
X56240Y-37506D01*
X56342Y-37609D01*
X56477Y-37664D01*
X56622Y-37665D01*
X56756Y-37609D01*
X56799Y-37566D01*
X56862Y-37566D01*
X56862Y-37612D01*
X56890Y-37681D01*
X56942Y-37733D01*
X56400Y-37733D01*
X56298Y-37753D01*
X56211Y-37811D01*
X55900Y-38123D01*
X55900Y-38100D01*
X55862Y-38008D01*
X55791Y-37938D01*
X55699Y-37900D01*
X55600Y-37899D01*
X55362Y-37900D01*
X55300Y-37962D01*
X55300Y-38400D01*
X55307Y-38400D01*
X55307Y-38500D01*
X55300Y-38500D01*
X55300Y-38507D01*
X55200Y-38507D01*
X55200Y-38500D01*
X55192Y-38500D01*
X55192Y-38400D01*
X55200Y-38400D01*
X55200Y-37962D01*
X55137Y-37900D01*
X54899Y-37899D01*
X54800Y-37900D01*
X54708Y-37938D01*
X54637Y-38008D01*
X54599Y-38100D01*
X54600Y-38337D01*
X54662Y-38399D01*
X54624Y-38399D01*
X54587Y-38308D01*
X54516Y-38238D01*
X54424Y-38200D01*
X54325Y-38199D01*
X54212Y-38200D01*
X54154Y-38257D01*
X54154Y-37181D01*
X54143Y-36963D01*
X54081Y-36812D01*
X53985Y-36784D01*
X53984Y-36785D01*
X53984Y-35973D01*
X53926Y-35832D01*
X53818Y-35724D01*
X53676Y-35665D01*
X53523Y-35665D01*
X53382Y-35723D01*
X53274Y-35831D01*
X53215Y-35973D01*
X53215Y-36126D01*
X53273Y-36267D01*
X53381Y-36375D01*
X53523Y-36434D01*
X53676Y-36434D01*
X53817Y-36376D01*
X53925Y-36268D01*
X53984Y-36126D01*
X53984Y-35973D01*
X53984Y-36785D01*
X53915Y-36855D01*
X53915Y-36714D01*
X53887Y-36618D01*
X53681Y-36545D01*
X53463Y-36556D01*
X53312Y-36618D01*
X53284Y-36714D01*
X53600Y-37029D01*
X53915Y-36714D01*
X53915Y-36855D01*
X53670Y-37100D01*
X53985Y-37415D01*
X54081Y-37387D01*
X54154Y-37181D01*
X54154Y-38257D01*
X54150Y-38262D01*
X54150Y-38575D01*
X54157Y-38575D01*
X54157Y-38675D01*
X54150Y-38675D01*
X54150Y-38682D01*
X54050Y-38682D01*
X54050Y-38675D01*
X54050Y-38575D01*
X54050Y-38262D01*
X53987Y-38200D01*
X53915Y-38199D01*
X53915Y-37485D01*
X53600Y-37170D01*
X53284Y-37485D01*
X53312Y-37581D01*
X53518Y-37654D01*
X53736Y-37643D01*
X53887Y-37581D01*
X53915Y-37485D01*
X53915Y-38199D01*
X53874Y-38199D01*
X53775Y-38200D01*
X53683Y-38238D01*
X53612Y-38308D01*
X53574Y-38400D01*
X53575Y-38512D01*
X53637Y-38575D01*
X54050Y-38575D01*
X54050Y-38675D01*
X53637Y-38675D01*
X53575Y-38737D01*
X53574Y-38849D01*
X53612Y-38941D01*
X53683Y-39011D01*
X53735Y-39033D01*
X53718Y-39040D01*
X53665Y-39093D01*
X53637Y-39162D01*
X53637Y-39237D01*
X53637Y-39587D01*
X53665Y-39656D01*
X53718Y-39709D01*
X53787Y-39737D01*
X53862Y-39737D01*
X54412Y-39737D01*
X54481Y-39709D01*
X54534Y-39656D01*
X54540Y-39641D01*
X55078Y-39641D01*
X55094Y-39657D01*
X55227Y-39712D01*
X55371Y-39712D01*
X55505Y-39657D01*
X55546Y-39616D01*
X55800Y-39616D01*
X55833Y-39609D01*
X55833Y-42100D01*
X55853Y-42201D01*
X55911Y-42288D01*
X56211Y-42588D01*
X56211Y-42588D01*
X56253Y-42616D01*
X56193Y-42640D01*
X56140Y-42693D01*
X56112Y-42762D01*
X56112Y-42837D01*
X56112Y-43437D01*
X56140Y-43506D01*
X56193Y-43559D01*
X56262Y-43587D01*
X56337Y-43587D01*
X56937Y-43587D01*
X57006Y-43559D01*
X57059Y-43506D01*
X57087Y-43437D01*
X57087Y-43362D01*
X57087Y-42762D01*
X57059Y-42693D01*
X57032Y-42666D01*
X57089Y-42666D01*
X57216Y-42793D01*
X57186Y-42823D01*
X57112Y-43002D01*
X57112Y-43196D01*
X57186Y-43375D01*
X57323Y-43513D01*
X57502Y-43587D01*
X57696Y-43587D01*
X57875Y-43513D01*
X58013Y-43376D01*
X58063Y-43255D01*
X58118Y-43387D01*
X58214Y-43415D01*
X58529Y-43100D01*
X58523Y-43094D01*
X58594Y-43023D01*
X58600Y-43029D01*
X58605Y-43023D01*
X58676Y-43094D01*
X58670Y-43100D01*
X58985Y-43415D01*
X59081Y-43387D01*
X59132Y-43245D01*
X59186Y-43375D01*
X59323Y-43513D01*
X59502Y-43587D01*
X59696Y-43587D01*
X59875Y-43513D01*
X60013Y-43376D01*
X60087Y-43197D01*
X60087Y-43003D01*
X60013Y-42824D01*
X60006Y-42816D01*
X60039Y-42816D01*
X60145Y-42922D01*
X60112Y-43002D01*
X60112Y-43196D01*
X60186Y-43375D01*
X60323Y-43513D01*
X60502Y-43587D01*
X60696Y-43587D01*
X60875Y-43513D01*
X61013Y-43376D01*
X61087Y-43197D01*
X61087Y-43003D01*
X61013Y-42824D01*
X60876Y-42686D01*
X60697Y-42612D01*
X60589Y-42612D01*
X60338Y-42361D01*
X60251Y-42303D01*
X60150Y-42283D01*
X59894Y-42283D01*
X59941Y-42236D01*
X59956Y-42199D01*
X60017Y-42199D01*
X60118Y-42179D01*
X60118Y-42179D01*
X60205Y-42121D01*
X60788Y-41538D01*
X60788Y-41538D01*
X60846Y-41451D01*
X60866Y-41350D01*
X60866Y-41350D01*
X60866Y-41017D01*
X60875Y-41013D01*
X61013Y-40876D01*
X61063Y-40755D01*
X61118Y-40887D01*
X61214Y-40915D01*
X61529Y-40600D01*
X61214Y-40284D01*
X61118Y-40312D01*
X61067Y-40454D01*
X61013Y-40324D01*
X60876Y-40186D01*
X60697Y-40112D01*
X60503Y-40112D01*
X60324Y-40186D01*
X60186Y-40323D01*
X60112Y-40502D01*
X60112Y-40696D01*
X60186Y-40875D01*
X60323Y-41013D01*
X60333Y-41017D01*
X60333Y-41239D01*
X60100Y-41473D01*
X60100Y-40425D01*
X60100Y-39974D01*
X60099Y-39875D01*
X60061Y-39783D01*
X59991Y-39712D01*
X59899Y-39674D01*
X59787Y-39675D01*
X59725Y-39737D01*
X59725Y-40150D01*
X60037Y-40150D01*
X60100Y-40087D01*
X60100Y-39974D01*
X60100Y-40425D01*
X60100Y-40312D01*
X60037Y-40250D01*
X59725Y-40250D01*
X59725Y-40662D01*
X59787Y-40725D01*
X59899Y-40725D01*
X59991Y-40687D01*
X60061Y-40616D01*
X60099Y-40524D01*
X60100Y-40425D01*
X60100Y-41473D01*
X59942Y-41630D01*
X59941Y-41629D01*
X59889Y-41576D01*
X59820Y-41548D01*
X59745Y-41548D01*
X59657Y-41548D01*
X59657Y-41214D01*
X59657Y-41179D01*
X59595Y-41117D01*
X59300Y-41117D01*
X59300Y-41451D01*
X59362Y-41514D01*
X59457Y-41514D01*
X59548Y-41476D01*
X59619Y-41405D01*
X59657Y-41313D01*
X59657Y-41214D01*
X59657Y-41548D01*
X59430Y-41548D01*
X59361Y-41576D01*
X59308Y-41629D01*
X59279Y-41698D01*
X59279Y-41773D01*
X59279Y-42167D01*
X59308Y-42236D01*
X59355Y-42283D01*
X59144Y-42283D01*
X59191Y-42236D01*
X59220Y-42167D01*
X59220Y-42092D01*
X59220Y-41698D01*
X59191Y-41629D01*
X59139Y-41576D01*
X59070Y-41548D01*
X58995Y-41548D01*
X58916Y-41548D01*
X58916Y-41441D01*
X58951Y-41476D01*
X59042Y-41514D01*
X59137Y-41514D01*
X59200Y-41451D01*
X59200Y-41117D01*
X59192Y-41117D01*
X59192Y-41017D01*
X59200Y-41017D01*
X59200Y-40682D01*
X59167Y-40650D01*
X59206Y-40634D01*
X59259Y-40581D01*
X59266Y-40564D01*
X59288Y-40616D01*
X59326Y-40655D01*
X59300Y-40682D01*
X59300Y-41017D01*
X59595Y-41017D01*
X59657Y-40954D01*
X59657Y-40919D01*
X59657Y-40820D01*
X59619Y-40728D01*
X59589Y-40698D01*
X59625Y-40662D01*
X59625Y-40250D01*
X59617Y-40250D01*
X59617Y-40150D01*
X59625Y-40150D01*
X59625Y-39737D01*
X59562Y-39675D01*
X59450Y-39674D01*
X59358Y-39712D01*
X59288Y-39783D01*
X59266Y-39835D01*
X59259Y-39818D01*
X59206Y-39765D01*
X59137Y-39737D01*
X59062Y-39737D01*
X58712Y-39737D01*
X58643Y-39765D01*
X58614Y-39794D01*
X58615Y-39677D01*
X58559Y-39543D01*
X58536Y-39520D01*
X58851Y-39520D01*
X58920Y-39491D01*
X58973Y-39439D01*
X59001Y-39370D01*
X59001Y-39295D01*
X59001Y-38980D01*
X58973Y-38911D01*
X58920Y-38858D01*
X58851Y-38829D01*
X58776Y-38829D01*
X58382Y-38829D01*
X58313Y-38858D01*
X58260Y-38910D01*
X58260Y-38912D01*
X58250Y-38912D01*
X58191Y-38912D01*
X58184Y-38893D01*
X58131Y-38840D01*
X58062Y-38812D01*
X57987Y-38812D01*
X57437Y-38812D01*
X57368Y-38840D01*
X57315Y-38893D01*
X57299Y-38931D01*
X57284Y-38893D01*
X57231Y-38840D01*
X57162Y-38812D01*
X57087Y-38812D01*
X56537Y-38812D01*
X56468Y-38840D01*
X56415Y-38893D01*
X56403Y-38922D01*
X56373Y-38928D01*
X56329Y-38957D01*
X56316Y-38966D01*
X56316Y-38460D01*
X56387Y-38389D01*
X56387Y-38637D01*
X56415Y-38706D01*
X56468Y-38759D01*
X56537Y-38787D01*
X56612Y-38787D01*
X57162Y-38787D01*
X57231Y-38759D01*
X57284Y-38706D01*
X57290Y-38691D01*
X57309Y-38691D01*
X57315Y-38706D01*
X57368Y-38759D01*
X57437Y-38787D01*
X57512Y-38787D01*
X58062Y-38787D01*
X58131Y-38759D01*
X58184Y-38706D01*
X58190Y-38691D01*
X58263Y-38691D01*
X58313Y-38741D01*
X58382Y-38770D01*
X58457Y-38770D01*
X58851Y-38770D01*
X58920Y-38741D01*
X58973Y-38689D01*
X59001Y-38620D01*
X59001Y-38545D01*
X59001Y-38312D01*
X59127Y-38364D01*
X59226Y-38364D01*
X59216Y-38417D01*
X59216Y-38468D01*
X59179Y-38483D01*
X59126Y-38535D01*
X59098Y-38604D01*
X59098Y-38679D01*
X59098Y-38994D01*
X59126Y-39063D01*
X59179Y-39116D01*
X59248Y-39145D01*
X59323Y-39145D01*
X59717Y-39145D01*
X59786Y-39116D01*
X59839Y-39064D01*
X59867Y-38995D01*
X59867Y-38920D01*
X59867Y-38605D01*
X59839Y-38536D01*
X59790Y-38486D01*
X59960Y-38316D01*
X60112Y-38316D01*
X60112Y-38337D01*
X60112Y-38937D01*
X60140Y-39006D01*
X60193Y-39059D01*
X60262Y-39087D01*
X60337Y-39087D01*
X60937Y-39087D01*
X61006Y-39059D01*
X61059Y-39006D01*
X61087Y-38937D01*
X61087Y-38862D01*
X61087Y-38316D01*
X61193Y-38316D01*
X61186Y-38323D01*
X61112Y-38502D01*
X61112Y-38696D01*
X61186Y-38875D01*
X61323Y-39013D01*
X61444Y-39063D01*
X61312Y-39118D01*
X61284Y-39214D01*
X61600Y-39529D01*
X61915Y-39214D01*
X61887Y-39118D01*
X61745Y-39067D01*
X61875Y-39013D01*
X62013Y-38876D01*
X62087Y-38697D01*
X62087Y-38503D01*
X62087Y-39328D01*
X62081Y-39312D01*
X61985Y-39284D01*
X61670Y-39600D01*
X61985Y-39915D01*
X62081Y-39887D01*
X62154Y-39681D01*
X62154Y-40681D01*
X62143Y-40463D01*
X62081Y-40312D01*
X61985Y-40284D01*
X61915Y-40355D01*
X61915Y-40214D01*
X61887Y-40118D01*
X61839Y-40101D01*
X61887Y-40081D01*
X61915Y-39985D01*
X61600Y-39670D01*
X61529Y-39741D01*
X61529Y-39600D01*
X61214Y-39284D01*
X61118Y-39312D01*
X61067Y-39454D01*
X61013Y-39324D01*
X60876Y-39186D01*
X60697Y-39112D01*
X60503Y-39112D01*
X60324Y-39186D01*
X60186Y-39323D01*
X60112Y-39502D01*
X60112Y-39696D01*
X60186Y-39875D01*
X60323Y-40013D01*
X60502Y-40087D01*
X60696Y-40087D01*
X60875Y-40013D01*
X61013Y-39876D01*
X61063Y-39755D01*
X61118Y-39887D01*
X61214Y-39915D01*
X61529Y-39600D01*
X61529Y-39741D01*
X61284Y-39985D01*
X61312Y-40081D01*
X61360Y-40098D01*
X61312Y-40118D01*
X61284Y-40214D01*
X61600Y-40529D01*
X61915Y-40214D01*
X61915Y-40355D01*
X61670Y-40600D01*
X61985Y-40915D01*
X62081Y-40887D01*
X62154Y-40681D01*
X62154Y-43732D01*
X62087Y-43732D01*
X62087Y-43003D01*
X62013Y-42824D01*
X61915Y-42725D01*
X61915Y-40985D01*
X61600Y-40670D01*
X61284Y-40985D01*
X61312Y-41081D01*
X61518Y-41154D01*
X61736Y-41143D01*
X61887Y-41081D01*
X61915Y-40985D01*
X61915Y-42725D01*
X61876Y-42686D01*
X61697Y-42612D01*
X61503Y-42612D01*
X61324Y-42686D01*
X61186Y-42823D01*
X61112Y-43002D01*
X61112Y-43196D01*
X61186Y-43375D01*
X61323Y-43513D01*
X61502Y-43587D01*
X61696Y-43587D01*
X61875Y-43513D01*
X62013Y-43376D01*
X62087Y-43197D01*
X62087Y-43003D01*
X62087Y-43732D01*
X58915Y-43732D01*
X58915Y-43485D01*
X58600Y-43170D01*
X58284Y-43485D01*
X58312Y-43581D01*
X58518Y-43654D01*
X58736Y-43643D01*
X58887Y-43581D01*
X58915Y-43485D01*
X58915Y-43732D01*
X54725Y-43732D01*
X54725Y-41374D01*
X54725Y-40775D01*
X54687Y-40683D01*
X54616Y-40613D01*
X54524Y-40575D01*
X54425Y-40574D01*
X54462Y-40575D01*
X54400Y-40637D01*
X54400Y-41025D01*
X54662Y-41025D01*
X54725Y-40962D01*
X54725Y-40775D01*
X54725Y-41374D01*
X54725Y-41187D01*
X54662Y-41125D01*
X54400Y-41125D01*
X54400Y-41512D01*
X54462Y-41575D01*
X54425Y-41575D01*
X54524Y-41574D01*
X54616Y-41536D01*
X54687Y-41466D01*
X54725Y-41374D01*
X54725Y-43732D01*
X54584Y-43732D01*
X54634Y-43683D01*
X54662Y-43614D01*
X54662Y-43539D01*
X54662Y-43039D01*
X54634Y-42970D01*
X54581Y-42917D01*
X54512Y-42889D01*
X54437Y-42889D01*
X54300Y-42889D01*
X54300Y-41512D01*
X54300Y-41125D01*
X54292Y-41125D01*
X54292Y-41025D01*
X54300Y-41025D01*
X54300Y-40637D01*
X54237Y-40575D01*
X54274Y-40574D01*
X54175Y-40575D01*
X54083Y-40613D01*
X54045Y-40650D01*
X54012Y-40637D01*
X53937Y-40637D01*
X53687Y-40637D01*
X53625Y-40663D01*
X53625Y-39599D01*
X53625Y-39487D01*
X53562Y-39425D01*
X53150Y-39425D01*
X53150Y-39737D01*
X53212Y-39800D01*
X53325Y-39800D01*
X53424Y-39799D01*
X53516Y-39761D01*
X53587Y-39691D01*
X53625Y-39599D01*
X53625Y-40663D01*
X53618Y-40665D01*
X53600Y-40684D01*
X53581Y-40665D01*
X53512Y-40637D01*
X53437Y-40637D01*
X53187Y-40637D01*
X53118Y-40665D01*
X53100Y-40684D01*
X53081Y-40665D01*
X53050Y-40652D01*
X53050Y-39737D01*
X53050Y-39425D01*
X52637Y-39425D01*
X52575Y-39487D01*
X52574Y-39599D01*
X52612Y-39691D01*
X52683Y-39761D01*
X52775Y-39799D01*
X52874Y-39800D01*
X52987Y-39800D01*
X53050Y-39737D01*
X53050Y-40652D01*
X53049Y-40652D01*
X53038Y-40636D01*
X52316Y-39914D01*
X52316Y-39737D01*
X52362Y-39737D01*
X52431Y-39709D01*
X52484Y-39656D01*
X52512Y-39587D01*
X52512Y-39512D01*
X52512Y-39162D01*
X52484Y-39093D01*
X52431Y-39040D01*
X52414Y-39033D01*
X52466Y-39011D01*
X52537Y-38941D01*
X52575Y-38849D01*
X52575Y-38737D01*
X52512Y-38675D01*
X52100Y-38675D01*
X52100Y-38682D01*
X52000Y-38682D01*
X52000Y-38675D01*
X51587Y-38675D01*
X51525Y-38737D01*
X51524Y-38849D01*
X51562Y-38941D01*
X51633Y-39011D01*
X51685Y-39033D01*
X51668Y-39040D01*
X51615Y-39093D01*
X51608Y-39112D01*
X51491Y-39112D01*
X51484Y-39093D01*
X51431Y-39040D01*
X51362Y-39012D01*
X51287Y-39012D01*
X50737Y-39012D01*
X50668Y-39040D01*
X50615Y-39093D01*
X50608Y-39112D01*
X50491Y-39112D01*
X50484Y-39093D01*
X50431Y-39040D01*
X50362Y-39012D01*
X50287Y-39012D01*
X49737Y-39012D01*
X49668Y-39040D01*
X49615Y-39093D01*
X49608Y-39112D01*
X49604Y-39112D01*
X49609Y-39107D01*
X49664Y-38972D01*
X49664Y-38955D01*
X49668Y-38959D01*
X49737Y-38987D01*
X49812Y-38987D01*
X50362Y-38987D01*
X50431Y-38959D01*
X50484Y-38906D01*
X50512Y-38837D01*
X50512Y-38762D01*
X50512Y-38412D01*
X50484Y-38343D01*
X50431Y-38290D01*
X50362Y-38262D01*
X50287Y-38262D01*
X50287Y-38262D01*
X50287Y-38023D01*
X50460Y-38023D01*
X50529Y-37995D01*
X50582Y-37942D01*
X50600Y-37899D01*
X50617Y-37942D01*
X50670Y-37995D01*
X50739Y-38023D01*
X50814Y-38023D01*
X51149Y-38023D01*
X51138Y-38035D01*
X51077Y-38034D01*
X50943Y-38090D01*
X50840Y-38192D01*
X50785Y-38327D01*
X50784Y-38472D01*
X50840Y-38606D01*
X50942Y-38709D01*
X51077Y-38764D01*
X51222Y-38765D01*
X51356Y-38709D01*
X51459Y-38607D01*
X51514Y-38472D01*
X51514Y-38416D01*
X51524Y-38416D01*
X51525Y-38512D01*
X51587Y-38575D01*
X52000Y-38575D01*
X52000Y-38567D01*
X52100Y-38567D01*
X52100Y-38575D01*
X52512Y-38575D01*
X52575Y-38512D01*
X52575Y-38416D01*
X52637Y-38416D01*
X52637Y-38487D01*
X52637Y-38837D01*
X52665Y-38906D01*
X52718Y-38959D01*
X52735Y-38966D01*
X52683Y-38988D01*
X52612Y-39058D01*
X52574Y-39150D01*
X52575Y-39262D01*
X52637Y-39325D01*
X53050Y-39325D01*
X53050Y-39317D01*
X53150Y-39317D01*
X53150Y-39325D01*
X53562Y-39325D01*
X53625Y-39262D01*
X53625Y-39150D01*
X53587Y-39058D01*
X53516Y-38988D01*
X53464Y-38966D01*
X53481Y-38959D01*
X53534Y-38906D01*
X53562Y-38837D01*
X53562Y-38762D01*
X53562Y-38412D01*
X53534Y-38343D01*
X53481Y-38290D01*
X53412Y-38262D01*
X53349Y-38262D01*
X53346Y-38248D01*
X53346Y-38248D01*
X53317Y-38204D01*
X53288Y-38161D01*
X53288Y-38161D01*
X53088Y-37961D01*
X53001Y-37903D01*
X52900Y-37883D01*
X51832Y-37883D01*
X51909Y-37807D01*
X51964Y-37672D01*
X51965Y-37527D01*
X51909Y-37393D01*
X51807Y-37290D01*
X51672Y-37235D01*
X51527Y-37234D01*
X51417Y-37280D01*
X51408Y-37257D01*
X51355Y-37204D01*
X51286Y-37176D01*
X51211Y-37176D01*
X50739Y-37176D01*
X50670Y-37204D01*
X50617Y-37257D01*
X50599Y-37300D01*
X50582Y-37257D01*
X50529Y-37204D01*
X50460Y-37176D01*
X50385Y-37176D01*
X49913Y-37176D01*
X49844Y-37204D01*
X49791Y-37257D01*
X49763Y-37326D01*
X49763Y-37401D01*
X49763Y-37873D01*
X49791Y-37942D01*
X49812Y-37962D01*
X49812Y-38262D01*
X49737Y-38262D01*
X49668Y-38290D01*
X49615Y-38343D01*
X49587Y-38412D01*
X49587Y-38487D01*
X49587Y-38671D01*
X49566Y-38650D01*
X49566Y-37699D01*
X49609Y-37657D01*
X49664Y-37522D01*
X49665Y-37377D01*
X49609Y-37243D01*
X49532Y-37166D01*
X50600Y-37166D01*
X52112Y-37166D01*
X52112Y-37437D01*
X52140Y-37506D01*
X52193Y-37559D01*
X52262Y-37587D01*
X52337Y-37587D01*
X52937Y-37587D01*
X53006Y-37559D01*
X53059Y-37506D01*
X53087Y-37437D01*
X53087Y-37362D01*
X53087Y-37313D01*
X53118Y-37387D01*
X53214Y-37415D01*
X53529Y-37100D01*
X53214Y-36784D01*
X53118Y-36812D01*
X53087Y-36898D01*
X53087Y-36762D01*
X53059Y-36693D01*
X53006Y-36640D01*
X52984Y-36631D01*
X52984Y-35973D01*
X52926Y-35832D01*
X52818Y-35724D01*
X52676Y-35665D01*
X52523Y-35665D01*
X52382Y-35723D01*
X52274Y-35831D01*
X52215Y-35973D01*
X52215Y-36126D01*
X52273Y-36267D01*
X52381Y-36375D01*
X52523Y-36434D01*
X52676Y-36434D01*
X52817Y-36376D01*
X52925Y-36268D01*
X52984Y-36126D01*
X52984Y-35973D01*
X52984Y-36631D01*
X52937Y-36612D01*
X52862Y-36612D01*
X52262Y-36612D01*
X52211Y-36633D01*
X50866Y-36633D01*
X50866Y-36587D01*
X50937Y-36587D01*
X51006Y-36559D01*
X51059Y-36506D01*
X51087Y-36437D01*
X51087Y-36362D01*
X51087Y-35762D01*
X51059Y-35693D01*
X51006Y-35640D01*
X50937Y-35612D01*
X50862Y-35612D01*
X50262Y-35612D01*
X50193Y-35640D01*
X50140Y-35693D01*
X50112Y-35762D01*
X50112Y-35837D01*
X50112Y-36437D01*
X50140Y-36506D01*
X50193Y-36559D01*
X50262Y-36587D01*
X50333Y-36587D01*
X50333Y-36633D01*
X50087Y-36633D01*
X50087Y-36003D01*
X50013Y-35824D01*
X49876Y-35686D01*
X49697Y-35612D01*
X49503Y-35612D01*
X49324Y-35686D01*
X49186Y-35823D01*
X49136Y-35944D01*
X49081Y-35812D01*
X48985Y-35784D01*
X48915Y-35855D01*
X48915Y-35714D01*
X48887Y-35618D01*
X48681Y-35545D01*
X48463Y-35556D01*
X48312Y-35618D01*
X48284Y-35714D01*
X48600Y-36029D01*
X48915Y-35714D01*
X48915Y-35855D01*
X48670Y-36100D01*
X48985Y-36415D01*
X49081Y-36387D01*
X49132Y-36245D01*
X49186Y-36375D01*
X49323Y-36513D01*
X49502Y-36587D01*
X49696Y-36587D01*
X49875Y-36513D01*
X50013Y-36376D01*
X50087Y-36197D01*
X50087Y-36003D01*
X50087Y-36633D01*
X48761Y-36633D01*
X48887Y-36581D01*
X48915Y-36485D01*
X48600Y-36170D01*
X48529Y-36241D01*
X48529Y-36100D01*
X48214Y-35784D01*
X48118Y-35812D01*
X48067Y-35954D01*
X48013Y-35824D01*
X47876Y-35686D01*
X47697Y-35612D01*
X47503Y-35612D01*
X47324Y-35686D01*
X47186Y-35823D01*
X47112Y-36002D01*
X47112Y-36196D01*
X47186Y-36375D01*
X47323Y-36513D01*
X47502Y-36587D01*
X47696Y-36587D01*
X47875Y-36513D01*
X48013Y-36376D01*
X48063Y-36255D01*
X48118Y-36387D01*
X48214Y-36415D01*
X48529Y-36100D01*
X48529Y-36241D01*
X48284Y-36485D01*
X48312Y-36581D01*
X48458Y-36633D01*
X48200Y-36633D01*
X48098Y-36653D01*
X48054Y-36682D01*
X48011Y-36711D01*
X47160Y-37562D01*
X47062Y-37562D01*
X46993Y-37590D01*
X46940Y-37643D01*
X46912Y-37712D01*
X46912Y-37787D01*
X46912Y-38787D01*
X46937Y-38847D01*
X46937Y-39362D01*
X46900Y-39362D01*
X46799Y-39382D01*
X46739Y-39422D01*
X46707Y-39344D01*
X46605Y-39242D01*
X46472Y-39187D01*
X46387Y-39187D01*
X46387Y-39112D01*
X46387Y-38739D01*
X46788Y-38338D01*
X46846Y-38251D01*
X46846Y-38251D01*
X46866Y-38150D01*
X46866Y-38150D01*
X46866Y-36517D01*
X46875Y-36513D01*
X47013Y-36376D01*
X47087Y-36197D01*
X47087Y-36003D01*
X47013Y-35824D01*
X46876Y-35686D01*
X46697Y-35612D01*
X46503Y-35612D01*
X46324Y-35686D01*
X46186Y-35823D01*
X46112Y-36002D01*
X46112Y-36196D01*
X46186Y-36375D01*
X46323Y-36513D01*
X46333Y-36517D01*
X46333Y-36834D01*
X46249Y-36800D01*
X46150Y-36799D01*
X46087Y-36799D01*
X46087Y-36003D01*
X46013Y-35824D01*
X45876Y-35686D01*
X45697Y-35612D01*
X45503Y-35612D01*
X45324Y-35686D01*
X45186Y-35823D01*
X45112Y-36002D01*
X45112Y-36196D01*
X45186Y-36375D01*
X45323Y-36513D01*
X45502Y-36587D01*
X45696Y-36587D01*
X45875Y-36513D01*
X46013Y-36376D01*
X46087Y-36197D01*
X46087Y-36003D01*
X46087Y-36799D01*
X45762Y-36800D01*
X45700Y-36862D01*
X45700Y-37350D01*
X45707Y-37350D01*
X45707Y-37450D01*
X45700Y-37450D01*
X45700Y-37937D01*
X45762Y-38000D01*
X46150Y-38000D01*
X46249Y-37999D01*
X46333Y-37965D01*
X46333Y-38039D01*
X46110Y-38262D01*
X45600Y-38262D01*
X45600Y-37937D01*
X45600Y-37450D01*
X45600Y-37350D01*
X45600Y-36862D01*
X45537Y-36800D01*
X45149Y-36799D01*
X45050Y-36800D01*
X44958Y-36838D01*
X44887Y-36908D01*
X44849Y-37000D01*
X44850Y-37287D01*
X44912Y-37350D01*
X45600Y-37350D01*
X45600Y-37450D01*
X44912Y-37450D01*
X44850Y-37512D01*
X44849Y-37799D01*
X44887Y-37891D01*
X44958Y-37961D01*
X45050Y-37999D01*
X45149Y-38000D01*
X45537Y-38000D01*
X45600Y-37937D01*
X45600Y-38262D01*
X45062Y-38262D01*
X44993Y-38290D01*
X44940Y-38343D01*
X44912Y-38412D01*
X44912Y-38487D01*
X44912Y-39187D01*
X44940Y-39256D01*
X44993Y-39309D01*
X45062Y-39337D01*
X45137Y-39337D01*
X45433Y-39337D01*
X45433Y-39462D01*
X45387Y-39462D01*
X45318Y-39490D01*
X45265Y-39543D01*
X45237Y-39612D01*
X45237Y-39687D01*
X45237Y-40037D01*
X45265Y-40106D01*
X45318Y-40159D01*
X45387Y-40187D01*
X45462Y-40187D01*
X46012Y-40187D01*
X46081Y-40159D01*
X46134Y-40106D01*
X46141Y-40088D01*
X46226Y-40071D01*
X46226Y-40071D01*
X46313Y-40013D01*
X46414Y-39912D01*
X46471Y-39912D01*
X46605Y-39857D01*
X46637Y-39825D01*
X46637Y-40266D01*
X46632Y-40274D01*
X46628Y-40294D01*
X46162Y-40760D01*
X46162Y-40712D01*
X46162Y-40362D01*
X46134Y-40293D01*
X46081Y-40240D01*
X46012Y-40212D01*
X45937Y-40212D01*
X45387Y-40212D01*
X45318Y-40240D01*
X45265Y-40293D01*
X45262Y-40301D01*
X45222Y-40285D01*
X45077Y-40284D01*
X44943Y-40340D01*
X44840Y-40442D01*
X44785Y-40577D01*
X44784Y-40722D01*
X44840Y-40856D01*
X44942Y-40959D01*
X44990Y-40979D01*
X44908Y-41012D01*
X44838Y-41083D01*
X44800Y-41175D01*
X44799Y-41274D01*
X44800Y-41387D01*
X44862Y-41450D01*
X45175Y-41450D01*
X45175Y-41442D01*
X45275Y-41442D01*
X45275Y-41450D01*
X45282Y-41450D01*
X45282Y-41550D01*
X45275Y-41550D01*
X45275Y-41962D01*
X45337Y-42025D01*
X45443Y-42025D01*
X45433Y-42075D01*
X45433Y-42612D01*
X45262Y-42612D01*
X45193Y-42640D01*
X45175Y-42659D01*
X45175Y-41962D01*
X45175Y-41550D01*
X44862Y-41550D01*
X44800Y-41612D01*
X44799Y-41725D01*
X44800Y-41824D01*
X44838Y-41916D01*
X44908Y-41987D01*
X45000Y-42025D01*
X45112Y-42025D01*
X45175Y-41962D01*
X45175Y-42659D01*
X45140Y-42693D01*
X45112Y-42762D01*
X45112Y-42837D01*
X45112Y-43437D01*
X45140Y-43506D01*
X45193Y-43559D01*
X45262Y-43587D01*
X45337Y-43587D01*
X45937Y-43587D01*
X46006Y-43559D01*
X46059Y-43506D01*
X46087Y-43437D01*
X46087Y-43362D01*
X46087Y-42762D01*
X46059Y-42693D01*
X46006Y-42640D01*
X45966Y-42624D01*
X45966Y-42185D01*
X46163Y-41988D01*
X46180Y-41962D01*
X46187Y-41962D01*
X46256Y-41934D01*
X46309Y-41881D01*
X46333Y-41822D01*
X46333Y-42050D01*
X46333Y-42682D01*
X46324Y-42686D01*
X46186Y-42823D01*
X46112Y-43002D01*
X46112Y-43196D01*
X46186Y-43375D01*
X46323Y-43513D01*
X46502Y-43587D01*
X46696Y-43587D01*
X46875Y-43513D01*
X47013Y-43376D01*
X47063Y-43255D01*
X47118Y-43387D01*
X47214Y-43415D01*
X47529Y-43100D01*
X47214Y-42784D01*
X47118Y-42812D01*
X47067Y-42954D01*
X47013Y-42824D01*
X46876Y-42686D01*
X46866Y-42682D01*
X46866Y-42050D01*
X46866Y-41962D01*
X47037Y-41962D01*
X47106Y-41934D01*
X47159Y-41881D01*
X47187Y-41812D01*
X47187Y-41737D01*
X47187Y-41187D01*
X47159Y-41118D01*
X47106Y-41065D01*
X47037Y-41037D01*
X46962Y-41037D01*
X46639Y-41037D01*
X47028Y-40648D01*
X47062Y-40662D01*
X47137Y-40662D01*
X47437Y-40662D01*
X47506Y-40634D01*
X47559Y-40581D01*
X47587Y-40512D01*
X47587Y-40437D01*
X47587Y-40265D01*
X47612Y-40241D01*
X47650Y-40149D01*
X47650Y-40112D01*
X47587Y-40050D01*
X47300Y-40050D01*
X47300Y-40057D01*
X47200Y-40057D01*
X47200Y-40050D01*
X47192Y-40050D01*
X47192Y-39950D01*
X47200Y-39950D01*
X47200Y-39942D01*
X47300Y-39942D01*
X47300Y-39950D01*
X47587Y-39950D01*
X47650Y-39887D01*
X47650Y-39850D01*
X47612Y-39758D01*
X47587Y-39734D01*
X47587Y-39687D01*
X47587Y-39487D01*
X47559Y-39418D01*
X47506Y-39365D01*
X47462Y-39347D01*
X47462Y-38937D01*
X47637Y-38937D01*
X47706Y-38909D01*
X47759Y-38856D01*
X47787Y-38787D01*
X47787Y-38712D01*
X47787Y-37712D01*
X47780Y-37696D01*
X48310Y-37166D01*
X49067Y-37166D01*
X48990Y-37242D01*
X48935Y-37377D01*
X48934Y-37522D01*
X48990Y-37656D01*
X49033Y-37699D01*
X49033Y-38650D01*
X48990Y-38692D01*
X48987Y-38700D01*
X48987Y-37712D01*
X48959Y-37643D01*
X48906Y-37590D01*
X48837Y-37562D01*
X48762Y-37562D01*
X48262Y-37562D01*
X48193Y-37590D01*
X48140Y-37643D01*
X48112Y-37712D01*
X48112Y-37787D01*
X48112Y-38787D01*
X48140Y-38856D01*
X48193Y-38909D01*
X48233Y-38925D01*
X48233Y-39264D01*
X48160Y-39337D01*
X48062Y-39337D01*
X47993Y-39365D01*
X47940Y-39418D01*
X47912Y-39487D01*
X47912Y-39562D01*
X47912Y-39762D01*
X47940Y-39831D01*
X47993Y-39884D01*
X48062Y-39912D01*
X48137Y-39912D01*
X48437Y-39912D01*
X48506Y-39884D01*
X48559Y-39831D01*
X48587Y-39762D01*
X48587Y-39687D01*
X48587Y-39664D01*
X48688Y-39563D01*
X48688Y-39563D01*
X48746Y-39476D01*
X48766Y-39375D01*
X48766Y-39375D01*
X48766Y-38937D01*
X48837Y-38937D01*
X48906Y-38909D01*
X48935Y-38880D01*
X48934Y-38972D01*
X48990Y-39106D01*
X49092Y-39209D01*
X49217Y-39260D01*
X48989Y-39489D01*
X48932Y-39574D01*
X48912Y-39675D01*
X48912Y-39858D01*
X48893Y-39865D01*
X48840Y-39918D01*
X48812Y-39987D01*
X48812Y-40062D01*
X48812Y-40077D01*
X48761Y-40111D01*
X48587Y-40285D01*
X48587Y-40237D01*
X48559Y-40168D01*
X48506Y-40115D01*
X48437Y-40087D01*
X48362Y-40087D01*
X48062Y-40087D01*
X47993Y-40115D01*
X47940Y-40168D01*
X47912Y-40237D01*
X47912Y-40312D01*
X47912Y-40512D01*
X47940Y-40581D01*
X47993Y-40634D01*
X48062Y-40662D01*
X48137Y-40662D01*
X48166Y-40662D01*
X48236Y-40733D01*
X48233Y-40750D01*
X48237Y-40768D01*
X48237Y-40912D01*
X48162Y-40912D01*
X48093Y-40940D01*
X48040Y-40993D01*
X48012Y-41062D01*
X48012Y-41137D01*
X48012Y-41237D01*
X47937Y-41237D01*
X47937Y-41187D01*
X47909Y-41118D01*
X47856Y-41065D01*
X47787Y-41037D01*
X47712Y-41037D01*
X47362Y-41037D01*
X47293Y-41065D01*
X47240Y-41118D01*
X47212Y-41187D01*
X47212Y-41262D01*
X47212Y-41812D01*
X47240Y-41881D01*
X47293Y-41934D01*
X47362Y-41962D01*
X47437Y-41962D01*
X47787Y-41962D01*
X47856Y-41934D01*
X47909Y-41881D01*
X47937Y-41812D01*
X47937Y-41762D01*
X48012Y-41762D01*
X48012Y-41937D01*
X48040Y-42006D01*
X48093Y-42059D01*
X48162Y-42087D01*
X48237Y-42087D01*
X48237Y-42087D01*
X48237Y-42772D01*
X48186Y-42823D01*
X48136Y-42944D01*
X48081Y-42812D01*
X47985Y-42784D01*
X47915Y-42855D01*
X47915Y-42714D01*
X47887Y-42618D01*
X47681Y-42545D01*
X47463Y-42556D01*
X47312Y-42618D01*
X47284Y-42714D01*
X47600Y-43029D01*
X47915Y-42714D01*
X47915Y-42855D01*
X47670Y-43100D01*
X47985Y-43415D01*
X48081Y-43387D01*
X48132Y-43245D01*
X48186Y-43375D01*
X48323Y-43513D01*
X48502Y-43587D01*
X48696Y-43587D01*
X48875Y-43513D01*
X49013Y-43376D01*
X49087Y-43197D01*
X49087Y-43003D01*
X49013Y-42824D01*
X48876Y-42686D01*
X48762Y-42639D01*
X48762Y-42087D01*
X48837Y-42087D01*
X48906Y-42059D01*
X48959Y-42006D01*
X48987Y-41937D01*
X48987Y-41862D01*
X48987Y-41062D01*
X48959Y-40993D01*
X48906Y-40940D01*
X48837Y-40912D01*
X48762Y-40912D01*
X48762Y-40912D01*
X48762Y-40864D01*
X48893Y-40733D01*
X48893Y-40734D01*
X48962Y-40762D01*
X49037Y-40762D01*
X49387Y-40762D01*
X49456Y-40734D01*
X49509Y-40681D01*
X49516Y-40664D01*
X49538Y-40716D01*
X49608Y-40787D01*
X49700Y-40825D01*
X49812Y-40825D01*
X49875Y-40762D01*
X49875Y-40350D01*
X49867Y-40350D01*
X49867Y-40250D01*
X49875Y-40250D01*
X49875Y-39837D01*
X49812Y-39775D01*
X49700Y-39774D01*
X49608Y-39812D01*
X49538Y-39883D01*
X49516Y-39935D01*
X49509Y-39918D01*
X49456Y-39865D01*
X49437Y-39858D01*
X49437Y-39783D01*
X49583Y-39637D01*
X49608Y-39637D01*
X49615Y-39656D01*
X49668Y-39709D01*
X49737Y-39737D01*
X49812Y-39737D01*
X50362Y-39737D01*
X50431Y-39709D01*
X50484Y-39656D01*
X50491Y-39637D01*
X50608Y-39637D01*
X50615Y-39656D01*
X50668Y-39709D01*
X50737Y-39737D01*
X50812Y-39737D01*
X51362Y-39737D01*
X51431Y-39709D01*
X51484Y-39656D01*
X51491Y-39637D01*
X51608Y-39637D01*
X51615Y-39656D01*
X51668Y-39709D01*
X51737Y-39737D01*
X51783Y-39737D01*
X51783Y-40025D01*
X51803Y-40126D01*
X51861Y-40213D01*
X52537Y-40889D01*
X52537Y-41362D01*
X52565Y-41431D01*
X52618Y-41484D01*
X52687Y-41512D01*
X52762Y-41512D01*
X53012Y-41512D01*
X53081Y-41484D01*
X53083Y-41482D01*
X53083Y-41539D01*
X52389Y-42233D01*
X51350Y-42233D01*
X51316Y-42233D01*
X51316Y-40487D01*
X51362Y-40487D01*
X51431Y-40459D01*
X51484Y-40406D01*
X51512Y-40337D01*
X51512Y-40262D01*
X51512Y-39912D01*
X51484Y-39843D01*
X51431Y-39790D01*
X51362Y-39762D01*
X51287Y-39762D01*
X50737Y-39762D01*
X50668Y-39790D01*
X50615Y-39843D01*
X50587Y-39912D01*
X50587Y-39987D01*
X50587Y-40337D01*
X50615Y-40406D01*
X50668Y-40459D01*
X50737Y-40487D01*
X50783Y-40487D01*
X50783Y-42189D01*
X50739Y-42233D01*
X50350Y-42233D01*
X50350Y-41850D01*
X50350Y-41149D01*
X50350Y-40525D01*
X50350Y-40074D01*
X50349Y-39975D01*
X50311Y-39883D01*
X50241Y-39812D01*
X50149Y-39774D01*
X50037Y-39775D01*
X49975Y-39837D01*
X49975Y-40250D01*
X50287Y-40250D01*
X50350Y-40187D01*
X50350Y-40074D01*
X50350Y-40525D01*
X50350Y-40412D01*
X50287Y-40350D01*
X49975Y-40350D01*
X49975Y-40762D01*
X50037Y-40825D01*
X50149Y-40825D01*
X50241Y-40787D01*
X50311Y-40716D01*
X50349Y-40624D01*
X50350Y-40525D01*
X50350Y-41149D01*
X50349Y-41050D01*
X50311Y-40958D01*
X50241Y-40887D01*
X50149Y-40849D01*
X49912Y-40850D01*
X49850Y-40912D01*
X49850Y-41450D01*
X50287Y-41450D01*
X50350Y-41387D01*
X50350Y-41149D01*
X50350Y-41850D01*
X50350Y-41612D01*
X50287Y-41550D01*
X49850Y-41550D01*
X49850Y-42087D01*
X49912Y-42150D01*
X50149Y-42150D01*
X50241Y-42112D01*
X50311Y-42041D01*
X50349Y-41949D01*
X50350Y-41850D01*
X50350Y-42233D01*
X50200Y-42233D01*
X50098Y-42253D01*
X50054Y-42282D01*
X50011Y-42311D01*
X49750Y-42573D01*
X49750Y-42087D01*
X49750Y-41550D01*
X49750Y-41450D01*
X49750Y-40912D01*
X49687Y-40850D01*
X49450Y-40849D01*
X49358Y-40887D01*
X49288Y-40958D01*
X49250Y-41050D01*
X49249Y-41149D01*
X49250Y-41387D01*
X49312Y-41450D01*
X49750Y-41450D01*
X49750Y-41550D01*
X49312Y-41550D01*
X49250Y-41612D01*
X49249Y-41850D01*
X49250Y-41949D01*
X49288Y-42041D01*
X49358Y-42112D01*
X49450Y-42150D01*
X49687Y-42150D01*
X49750Y-42087D01*
X49750Y-42573D01*
X49706Y-42616D01*
X49697Y-42612D01*
X49503Y-42612D01*
X49324Y-42686D01*
X49186Y-42823D01*
X49112Y-43002D01*
X49112Y-43196D01*
X49186Y-43375D01*
X49323Y-43513D01*
X49502Y-43587D01*
X49696Y-43587D01*
X49875Y-43513D01*
X50013Y-43376D01*
X50087Y-43197D01*
X50087Y-43003D01*
X50083Y-42993D01*
X50139Y-42937D01*
X50112Y-43002D01*
X50112Y-43196D01*
X50186Y-43375D01*
X50323Y-43513D01*
X50502Y-43587D01*
X50696Y-43587D01*
X50875Y-43513D01*
X51013Y-43376D01*
X51087Y-43197D01*
X51087Y-43003D01*
X51013Y-42824D01*
X50956Y-42766D01*
X51350Y-42766D01*
X52500Y-42766D01*
X52601Y-42746D01*
X52601Y-42746D01*
X52688Y-42688D01*
X53185Y-42191D01*
X53184Y-42272D01*
X53240Y-42406D01*
X53342Y-42509D01*
X53477Y-42564D01*
X53622Y-42565D01*
X53756Y-42509D01*
X53859Y-42407D01*
X53914Y-42272D01*
X53914Y-42211D01*
X54038Y-42088D01*
X54038Y-42088D01*
X54096Y-42001D01*
X54116Y-41900D01*
X54116Y-41900D01*
X54116Y-41550D01*
X54175Y-41574D01*
X54274Y-41575D01*
X54237Y-41575D01*
X54300Y-41512D01*
X54300Y-42889D01*
X54187Y-42889D01*
X54118Y-42917D01*
X54100Y-42936D01*
X54081Y-42917D01*
X54012Y-42889D01*
X53937Y-42889D01*
X53687Y-42889D01*
X53618Y-42917D01*
X53600Y-42936D01*
X53581Y-42917D01*
X53512Y-42889D01*
X53437Y-42889D01*
X53187Y-42889D01*
X53118Y-42917D01*
X53100Y-42936D01*
X53081Y-42917D01*
X53012Y-42889D01*
X52937Y-42889D01*
X52687Y-42889D01*
X52618Y-42917D01*
X52565Y-42970D01*
X52537Y-43039D01*
X52537Y-43114D01*
X52537Y-43614D01*
X52565Y-43683D01*
X52615Y-43732D01*
X47915Y-43732D01*
X47915Y-43485D01*
X47600Y-43170D01*
X47284Y-43485D01*
X47312Y-43581D01*
X47518Y-43654D01*
X47736Y-43643D01*
X47887Y-43581D01*
X47915Y-43485D01*
X47915Y-43732D01*
X44767Y-43732D01*
X44767Y-35517D01*
X62698Y-35517D01*
X62698Y-43732D01*
X62698Y-43732D01*
G37*
G54D29*
X62698Y-43732D02*
X62154Y-43732D01*
X62154Y-40681D01*
X62154Y-39681D01*
X62143Y-39463D01*
X62087Y-39328D01*
X62087Y-38503D01*
X62087Y-38503D01*
X62087Y-36362D01*
X62087Y-35762D01*
X62059Y-35693D01*
X62006Y-35640D01*
X61937Y-35612D01*
X61862Y-35612D01*
X61262Y-35612D01*
X61193Y-35640D01*
X61140Y-35693D01*
X61112Y-35762D01*
X61112Y-35837D01*
X61112Y-36437D01*
X61140Y-36506D01*
X61193Y-36559D01*
X61262Y-36587D01*
X61337Y-36587D01*
X61937Y-36587D01*
X62006Y-36559D01*
X62059Y-36506D01*
X62087Y-36437D01*
X62087Y-36362D01*
X62087Y-38503D01*
X62013Y-38324D01*
X61876Y-38186D01*
X61862Y-38180D01*
X61846Y-38098D01*
X61846Y-38098D01*
X61817Y-38054D01*
X61788Y-38011D01*
X61788Y-38011D01*
X61638Y-37861D01*
X61551Y-37803D01*
X61450Y-37783D01*
X61087Y-37783D01*
X61087Y-36003D01*
X61013Y-35824D01*
X60876Y-35686D01*
X60697Y-35612D01*
X60503Y-35612D01*
X60324Y-35686D01*
X60186Y-35823D01*
X60136Y-35944D01*
X60081Y-35812D01*
X59985Y-35784D01*
X59915Y-35855D01*
X59915Y-35714D01*
X59887Y-35618D01*
X59681Y-35545D01*
X59463Y-35556D01*
X59312Y-35618D01*
X59284Y-35714D01*
X59600Y-36029D01*
X59915Y-35714D01*
X59915Y-35855D01*
X59670Y-36100D01*
X59985Y-36415D01*
X60081Y-36387D01*
X60132Y-36245D01*
X60186Y-36375D01*
X60323Y-36513D01*
X60502Y-36587D01*
X60696Y-36587D01*
X60875Y-36513D01*
X61013Y-36376D01*
X61087Y-36197D01*
X61087Y-36003D01*
X61087Y-37783D01*
X59895Y-37783D01*
X59961Y-37716D01*
X59999Y-37624D01*
X60000Y-37525D01*
X60000Y-37074D01*
X59999Y-36975D01*
X59961Y-36883D01*
X59915Y-36836D01*
X59915Y-36485D01*
X59600Y-36170D01*
X59529Y-36241D01*
X59529Y-36100D01*
X59214Y-35784D01*
X59118Y-35812D01*
X59067Y-35954D01*
X59013Y-35824D01*
X58876Y-35686D01*
X58697Y-35612D01*
X58503Y-35612D01*
X58324Y-35686D01*
X58186Y-35823D01*
X58112Y-36002D01*
X58112Y-36196D01*
X58186Y-36375D01*
X58323Y-36513D01*
X58502Y-36587D01*
X58696Y-36587D01*
X58875Y-36513D01*
X59013Y-36376D01*
X59063Y-36255D01*
X59118Y-36387D01*
X59214Y-36415D01*
X59529Y-36100D01*
X59529Y-36241D01*
X59284Y-36485D01*
X59312Y-36581D01*
X59518Y-36654D01*
X59736Y-36643D01*
X59887Y-36581D01*
X59915Y-36485D01*
X59915Y-36836D01*
X59891Y-36812D01*
X59799Y-36774D01*
X59687Y-36775D01*
X59625Y-36837D01*
X59625Y-37250D01*
X59937Y-37250D01*
X60000Y-37187D01*
X60000Y-37074D01*
X60000Y-37525D01*
X60000Y-37412D01*
X59937Y-37350D01*
X59625Y-37350D01*
X59625Y-37762D01*
X59687Y-37825D01*
X59716Y-37825D01*
X59661Y-37861D01*
X59564Y-37958D01*
X59565Y-37927D01*
X59509Y-37793D01*
X59501Y-37785D01*
X59525Y-37762D01*
X59525Y-37350D01*
X59517Y-37350D01*
X59517Y-37250D01*
X59525Y-37250D01*
X59525Y-36837D01*
X59462Y-36775D01*
X59350Y-36774D01*
X59258Y-36812D01*
X59188Y-36883D01*
X59166Y-36935D01*
X59159Y-36918D01*
X59106Y-36865D01*
X59037Y-36837D01*
X58962Y-36837D01*
X58612Y-36837D01*
X58543Y-36865D01*
X58490Y-36918D01*
X58462Y-36987D01*
X58462Y-37033D01*
X58337Y-37033D01*
X58337Y-36987D01*
X58309Y-36918D01*
X58256Y-36865D01*
X58187Y-36837D01*
X58112Y-36837D01*
X58064Y-36837D01*
X57866Y-36639D01*
X57866Y-36517D01*
X57875Y-36513D01*
X58013Y-36376D01*
X58087Y-36197D01*
X58087Y-36003D01*
X58013Y-35824D01*
X57876Y-35686D01*
X57697Y-35612D01*
X57503Y-35612D01*
X57324Y-35686D01*
X57186Y-35823D01*
X57112Y-36002D01*
X57112Y-36196D01*
X57186Y-36375D01*
X57293Y-36483D01*
X56906Y-36483D01*
X57013Y-36376D01*
X57087Y-36197D01*
X57087Y-36003D01*
X57013Y-35824D01*
X56876Y-35686D01*
X56697Y-35612D01*
X56503Y-35612D01*
X56324Y-35686D01*
X56186Y-35823D01*
X56112Y-36002D01*
X56112Y-36196D01*
X56186Y-36375D01*
X56293Y-36483D01*
X55750Y-36483D01*
X55648Y-36503D01*
X55561Y-36561D01*
X55460Y-36662D01*
X54812Y-36662D01*
X54743Y-36690D01*
X54690Y-36743D01*
X54662Y-36812D01*
X54662Y-36887D01*
X54662Y-37487D01*
X54690Y-37556D01*
X54743Y-37609D01*
X54812Y-37637D01*
X54887Y-37637D01*
X55687Y-37637D01*
X55756Y-37609D01*
X55809Y-37556D01*
X55837Y-37487D01*
X55837Y-37412D01*
X55837Y-37039D01*
X55860Y-37016D01*
X56317Y-37016D01*
X56240Y-37092D01*
X56185Y-37227D01*
X56184Y-37372D01*
X56240Y-37506D01*
X56342Y-37609D01*
X56477Y-37664D01*
X56622Y-37665D01*
X56756Y-37609D01*
X56799Y-37566D01*
X56862Y-37566D01*
X56862Y-37612D01*
X56890Y-37681D01*
X56942Y-37733D01*
X56400Y-37733D01*
X56298Y-37753D01*
X56211Y-37811D01*
X55900Y-38123D01*
X55900Y-38100D01*
X55862Y-38008D01*
X55791Y-37938D01*
X55699Y-37900D01*
X55600Y-37899D01*
X55362Y-37900D01*
X55300Y-37962D01*
X55300Y-38400D01*
X55307Y-38400D01*
X55307Y-38500D01*
X55300Y-38500D01*
X55300Y-38507D01*
X55200Y-38507D01*
X55200Y-38500D01*
X55192Y-38500D01*
X55192Y-38400D01*
X55200Y-38400D01*
X55200Y-37962D01*
X55137Y-37900D01*
X54899Y-37899D01*
X54800Y-37900D01*
X54708Y-37938D01*
X54637Y-38008D01*
X54599Y-38100D01*
X54600Y-38337D01*
X54662Y-38399D01*
X54624Y-38399D01*
X54587Y-38308D01*
X54516Y-38238D01*
X54424Y-38200D01*
X54325Y-38199D01*
X54212Y-38200D01*
X54154Y-38257D01*
X54154Y-37181D01*
X54143Y-36963D01*
X54081Y-36812D01*
X53985Y-36784D01*
X53984Y-36785D01*
X53984Y-35973D01*
X53926Y-35832D01*
X53818Y-35724D01*
X53676Y-35665D01*
X53523Y-35665D01*
X53382Y-35723D01*
X53274Y-35831D01*
X53215Y-35973D01*
X53215Y-36126D01*
X53273Y-36267D01*
X53381Y-36375D01*
X53523Y-36434D01*
X53676Y-36434D01*
X53817Y-36376D01*
X53925Y-36268D01*
X53984Y-36126D01*
X53984Y-35973D01*
X53984Y-36785D01*
X53915Y-36855D01*
X53915Y-36714D01*
X53887Y-36618D01*
X53681Y-36545D01*
X53463Y-36556D01*
X53312Y-36618D01*
X53284Y-36714D01*
X53600Y-37029D01*
X53915Y-36714D01*
X53915Y-36855D01*
X53670Y-37100D01*
X53985Y-37415D01*
X54081Y-37387D01*
X54154Y-37181D01*
X54154Y-38257D01*
X54150Y-38262D01*
X54150Y-38575D01*
X54157Y-38575D01*
X54157Y-38675D01*
X54150Y-38675D01*
X54150Y-38682D01*
X54050Y-38682D01*
X54050Y-38675D01*
X54050Y-38575D01*
X54050Y-38262D01*
X53987Y-38200D01*
X53915Y-38199D01*
X53915Y-37485D01*
X53600Y-37170D01*
X53284Y-37485D01*
X53312Y-37581D01*
X53518Y-37654D01*
X53736Y-37643D01*
X53887Y-37581D01*
X53915Y-37485D01*
X53915Y-38199D01*
X53874Y-38199D01*
X53775Y-38200D01*
X53683Y-38238D01*
X53612Y-38308D01*
X53574Y-38400D01*
X53575Y-38512D01*
X53637Y-38575D01*
X54050Y-38575D01*
X54050Y-38675D01*
X53637Y-38675D01*
X53575Y-38737D01*
X53574Y-38849D01*
X53612Y-38941D01*
X53683Y-39011D01*
X53735Y-39033D01*
X53718Y-39040D01*
X53665Y-39093D01*
X53637Y-39162D01*
X53637Y-39237D01*
X53637Y-39587D01*
X53665Y-39656D01*
X53718Y-39709D01*
X53787Y-39737D01*
X53862Y-39737D01*
X54412Y-39737D01*
X54481Y-39709D01*
X54534Y-39656D01*
X54540Y-39641D01*
X55078Y-39641D01*
X55094Y-39657D01*
X55227Y-39712D01*
X55371Y-39712D01*
X55505Y-39657D01*
X55546Y-39616D01*
X55800Y-39616D01*
X55833Y-39609D01*
X55833Y-42100D01*
X55853Y-42201D01*
X55911Y-42288D01*
X56211Y-42588D01*
X56211Y-42588D01*
X56253Y-42616D01*
X56193Y-42640D01*
X56140Y-42693D01*
X56112Y-42762D01*
X56112Y-42837D01*
X56112Y-43437D01*
X56140Y-43506D01*
X56193Y-43559D01*
X56262Y-43587D01*
X56337Y-43587D01*
X56937Y-43587D01*
X57006Y-43559D01*
X57059Y-43506D01*
X57087Y-43437D01*
X57087Y-43362D01*
X57087Y-42762D01*
X57059Y-42693D01*
X57032Y-42666D01*
X57089Y-42666D01*
X57216Y-42793D01*
X57186Y-42823D01*
X57112Y-43002D01*
X57112Y-43196D01*
X57186Y-43375D01*
X57323Y-43513D01*
X57502Y-43587D01*
X57696Y-43587D01*
X57875Y-43513D01*
X58013Y-43376D01*
X58063Y-43255D01*
X58118Y-43387D01*
X58214Y-43415D01*
X58529Y-43100D01*
X58523Y-43094D01*
X58594Y-43023D01*
X58600Y-43029D01*
X58605Y-43023D01*
X58676Y-43094D01*
X58670Y-43100D01*
X58985Y-43415D01*
X59081Y-43387D01*
X59132Y-43245D01*
X59186Y-43375D01*
X59323Y-43513D01*
X59502Y-43587D01*
X59696Y-43587D01*
X59875Y-43513D01*
X60013Y-43376D01*
X60087Y-43197D01*
X60087Y-43003D01*
X60013Y-42824D01*
X60006Y-42816D01*
X60039Y-42816D01*
X60145Y-42922D01*
X60112Y-43002D01*
X60112Y-43196D01*
X60186Y-43375D01*
X60323Y-43513D01*
X60502Y-43587D01*
X60696Y-43587D01*
X60875Y-43513D01*
X61013Y-43376D01*
X61087Y-43197D01*
X61087Y-43003D01*
X61013Y-42824D01*
X60876Y-42686D01*
X60697Y-42612D01*
X60589Y-42612D01*
X60338Y-42361D01*
X60251Y-42303D01*
X60150Y-42283D01*
X59894Y-42283D01*
X59941Y-42236D01*
X59956Y-42199D01*
X60017Y-42199D01*
X60118Y-42179D01*
X60118Y-42179D01*
X60205Y-42121D01*
X60788Y-41538D01*
X60788Y-41538D01*
X60846Y-41451D01*
X60866Y-41350D01*
X60866Y-41350D01*
X60866Y-41017D01*
X60875Y-41013D01*
X61013Y-40876D01*
X61063Y-40755D01*
X61118Y-40887D01*
X61214Y-40915D01*
X61529Y-40600D01*
X61214Y-40284D01*
X61118Y-40312D01*
X61067Y-40454D01*
X61013Y-40324D01*
X60876Y-40186D01*
X60697Y-40112D01*
X60503Y-40112D01*
X60324Y-40186D01*
X60186Y-40323D01*
X60112Y-40502D01*
X60112Y-40696D01*
X60186Y-40875D01*
X60323Y-41013D01*
X60333Y-41017D01*
X60333Y-41239D01*
X60100Y-41473D01*
X60100Y-40425D01*
X60100Y-39974D01*
X60099Y-39875D01*
X60061Y-39783D01*
X59991Y-39712D01*
X59899Y-39674D01*
X59787Y-39675D01*
X59725Y-39737D01*
X59725Y-40150D01*
X60037Y-40150D01*
X60100Y-40087D01*
X60100Y-39974D01*
X60100Y-40425D01*
X60100Y-40312D01*
X60037Y-40250D01*
X59725Y-40250D01*
X59725Y-40662D01*
X59787Y-40725D01*
X59899Y-40725D01*
X59991Y-40687D01*
X60061Y-40616D01*
X60099Y-40524D01*
X60100Y-40425D01*
X60100Y-41473D01*
X59942Y-41630D01*
X59941Y-41629D01*
X59889Y-41576D01*
X59820Y-41548D01*
X59745Y-41548D01*
X59657Y-41548D01*
X59657Y-41214D01*
X59657Y-41179D01*
X59595Y-41117D01*
X59300Y-41117D01*
X59300Y-41451D01*
X59362Y-41514D01*
X59457Y-41514D01*
X59548Y-41476D01*
X59619Y-41405D01*
X59657Y-41313D01*
X59657Y-41214D01*
X59657Y-41548D01*
X59430Y-41548D01*
X59361Y-41576D01*
X59308Y-41629D01*
X59279Y-41698D01*
X59279Y-41773D01*
X59279Y-42167D01*
X59308Y-42236D01*
X59355Y-42283D01*
X59144Y-42283D01*
X59191Y-42236D01*
X59220Y-42167D01*
X59220Y-42092D01*
X59220Y-41698D01*
X59191Y-41629D01*
X59139Y-41576D01*
X59070Y-41548D01*
X58995Y-41548D01*
X58916Y-41548D01*
X58916Y-41441D01*
X58951Y-41476D01*
X59042Y-41514D01*
X59137Y-41514D01*
X59200Y-41451D01*
X59200Y-41117D01*
X59192Y-41117D01*
X59192Y-41017D01*
X59200Y-41017D01*
X59200Y-40682D01*
X59167Y-40650D01*
X59206Y-40634D01*
X59259Y-40581D01*
X59266Y-40564D01*
X59288Y-40616D01*
X59326Y-40655D01*
X59300Y-40682D01*
X59300Y-41017D01*
X59595Y-41017D01*
X59657Y-40954D01*
X59657Y-40919D01*
X59657Y-40820D01*
X59619Y-40728D01*
X59589Y-40698D01*
X59625Y-40662D01*
X59625Y-40250D01*
X59617Y-40250D01*
X59617Y-40150D01*
X59625Y-40150D01*
X59625Y-39737D01*
X59562Y-39675D01*
X59450Y-39674D01*
X59358Y-39712D01*
X59288Y-39783D01*
X59266Y-39835D01*
X59259Y-39818D01*
X59206Y-39765D01*
X59137Y-39737D01*
X59062Y-39737D01*
X58712Y-39737D01*
X58643Y-39765D01*
X58614Y-39794D01*
X58615Y-39677D01*
X58559Y-39543D01*
X58536Y-39520D01*
X58851Y-39520D01*
X58920Y-39491D01*
X58973Y-39439D01*
X59001Y-39370D01*
X59001Y-39295D01*
X59001Y-38980D01*
X58973Y-38911D01*
X58920Y-38858D01*
X58851Y-38829D01*
X58776Y-38829D01*
X58382Y-38829D01*
X58313Y-38858D01*
X58260Y-38910D01*
X58260Y-38912D01*
X58250Y-38912D01*
X58191Y-38912D01*
X58184Y-38893D01*
X58131Y-38840D01*
X58062Y-38812D01*
X57987Y-38812D01*
X57437Y-38812D01*
X57368Y-38840D01*
X57315Y-38893D01*
X57299Y-38931D01*
X57284Y-38893D01*
X57231Y-38840D01*
X57162Y-38812D01*
X57087Y-38812D01*
X56537Y-38812D01*
X56468Y-38840D01*
X56415Y-38893D01*
X56403Y-38922D01*
X56373Y-38928D01*
X56329Y-38957D01*
X56316Y-38966D01*
X56316Y-38460D01*
X56387Y-38389D01*
X56387Y-38637D01*
X56415Y-38706D01*
X56468Y-38759D01*
X56537Y-38787D01*
X56612Y-38787D01*
X57162Y-38787D01*
X57231Y-38759D01*
X57284Y-38706D01*
X57290Y-38691D01*
X57309Y-38691D01*
X57315Y-38706D01*
X57368Y-38759D01*
X57437Y-38787D01*
X57512Y-38787D01*
X58062Y-38787D01*
X58131Y-38759D01*
X58184Y-38706D01*
X58190Y-38691D01*
X58263Y-38691D01*
X58313Y-38741D01*
X58382Y-38770D01*
X58457Y-38770D01*
X58851Y-38770D01*
X58920Y-38741D01*
X58973Y-38689D01*
X59001Y-38620D01*
X59001Y-38545D01*
X59001Y-38312D01*
X59127Y-38364D01*
X59226Y-38364D01*
X59216Y-38417D01*
X59216Y-38468D01*
X59179Y-38483D01*
X59126Y-38535D01*
X59098Y-38604D01*
X59098Y-38679D01*
X59098Y-38994D01*
X59126Y-39063D01*
X59179Y-39116D01*
X59248Y-39145D01*
X59323Y-39145D01*
X59717Y-39145D01*
X59786Y-39116D01*
X59839Y-39064D01*
X59867Y-38995D01*
X59867Y-38920D01*
X59867Y-38605D01*
X59839Y-38536D01*
X59790Y-38486D01*
X59960Y-38316D01*
X60112Y-38316D01*
X60112Y-38337D01*
X60112Y-38937D01*
X60140Y-39006D01*
X60193Y-39059D01*
X60262Y-39087D01*
X60337Y-39087D01*
X60937Y-39087D01*
X61006Y-39059D01*
X61059Y-39006D01*
X61087Y-38937D01*
X61087Y-38862D01*
X61087Y-38316D01*
X61193Y-38316D01*
X61186Y-38323D01*
X61112Y-38502D01*
X61112Y-38696D01*
X61186Y-38875D01*
X61323Y-39013D01*
X61444Y-39063D01*
X61312Y-39118D01*
X61284Y-39214D01*
X61600Y-39529D01*
X61915Y-39214D01*
X61887Y-39118D01*
X61745Y-39067D01*
X61875Y-39013D01*
X62013Y-38876D01*
X62087Y-38697D01*
X62087Y-38503D01*
X62087Y-39328D01*
X62081Y-39312D01*
X61985Y-39284D01*
X61670Y-39600D01*
X61985Y-39915D01*
X62081Y-39887D01*
X62154Y-39681D01*
X62154Y-40681D01*
X62143Y-40463D01*
X62081Y-40312D01*
X61985Y-40284D01*
X61915Y-40355D01*
X61915Y-40214D01*
X61887Y-40118D01*
X61839Y-40101D01*
X61887Y-40081D01*
X61915Y-39985D01*
X61600Y-39670D01*
X61529Y-39741D01*
X61529Y-39600D01*
X61214Y-39284D01*
X61118Y-39312D01*
X61067Y-39454D01*
X61013Y-39324D01*
X60876Y-39186D01*
X60697Y-39112D01*
X60503Y-39112D01*
X60324Y-39186D01*
X60186Y-39323D01*
X60112Y-39502D01*
X60112Y-39696D01*
X60186Y-39875D01*
X60323Y-40013D01*
X60502Y-40087D01*
X60696Y-40087D01*
X60875Y-40013D01*
X61013Y-39876D01*
X61063Y-39755D01*
X61118Y-39887D01*
X61214Y-39915D01*
X61529Y-39600D01*
X61529Y-39741D01*
X61284Y-39985D01*
X61312Y-40081D01*
X61360Y-40098D01*
X61312Y-40118D01*
X61284Y-40214D01*
X61600Y-40529D01*
X61915Y-40214D01*
X61915Y-40355D01*
X61670Y-40600D01*
X61985Y-40915D01*
X62081Y-40887D01*
X62154Y-40681D01*
X62154Y-43732D01*
X62087Y-43732D01*
X62087Y-43003D01*
X62013Y-42824D01*
X61915Y-42725D01*
X61915Y-40985D01*
X61600Y-40670D01*
X61284Y-40985D01*
X61312Y-41081D01*
X61518Y-41154D01*
X61736Y-41143D01*
X61887Y-41081D01*
X61915Y-40985D01*
X61915Y-42725D01*
X61876Y-42686D01*
X61697Y-42612D01*
X61503Y-42612D01*
X61324Y-42686D01*
X61186Y-42823D01*
X61112Y-43002D01*
X61112Y-43196D01*
X61186Y-43375D01*
X61323Y-43513D01*
X61502Y-43587D01*
X61696Y-43587D01*
X61875Y-43513D01*
X62013Y-43376D01*
X62087Y-43197D01*
X62087Y-43003D01*
X62087Y-43732D01*
X58915Y-43732D01*
X58915Y-43485D01*
X58600Y-43170D01*
X58284Y-43485D01*
X58312Y-43581D01*
X58518Y-43654D01*
X58736Y-43643D01*
X58887Y-43581D01*
X58915Y-43485D01*
X58915Y-43732D01*
X54725Y-43732D01*
X54725Y-41374D01*
X54725Y-40775D01*
X54687Y-40683D01*
X54616Y-40613D01*
X54524Y-40575D01*
X54425Y-40574D01*
X54462Y-40575D01*
X54400Y-40637D01*
X54400Y-41025D01*
X54662Y-41025D01*
X54725Y-40962D01*
X54725Y-40775D01*
X54725Y-41374D01*
X54725Y-41187D01*
X54662Y-41125D01*
X54400Y-41125D01*
X54400Y-41512D01*
X54462Y-41575D01*
X54425Y-41575D01*
X54524Y-41574D01*
X54616Y-41536D01*
X54687Y-41466D01*
X54725Y-41374D01*
X54725Y-43732D01*
X54584Y-43732D01*
X54634Y-43683D01*
X54662Y-43614D01*
X54662Y-43539D01*
X54662Y-43039D01*
X54634Y-42970D01*
X54581Y-42917D01*
X54512Y-42889D01*
X54437Y-42889D01*
X54300Y-42889D01*
X54300Y-41512D01*
X54300Y-41125D01*
X54292Y-41125D01*
X54292Y-41025D01*
X54300Y-41025D01*
X54300Y-40637D01*
X54237Y-40575D01*
X54274Y-40574D01*
X54175Y-40575D01*
X54083Y-40613D01*
X54045Y-40650D01*
X54012Y-40637D01*
X53937Y-40637D01*
X53687Y-40637D01*
X53625Y-40663D01*
X53625Y-39599D01*
X53625Y-39487D01*
X53562Y-39425D01*
X53150Y-39425D01*
X53150Y-39737D01*
X53212Y-39800D01*
X53325Y-39800D01*
X53424Y-39799D01*
X53516Y-39761D01*
X53587Y-39691D01*
X53625Y-39599D01*
X53625Y-40663D01*
X53618Y-40665D01*
X53600Y-40684D01*
X53581Y-40665D01*
X53512Y-40637D01*
X53437Y-40637D01*
X53187Y-40637D01*
X53118Y-40665D01*
X53100Y-40684D01*
X53081Y-40665D01*
X53050Y-40652D01*
X53050Y-39737D01*
X53050Y-39425D01*
X52637Y-39425D01*
X52575Y-39487D01*
X52574Y-39599D01*
X52612Y-39691D01*
X52683Y-39761D01*
X52775Y-39799D01*
X52874Y-39800D01*
X52987Y-39800D01*
X53050Y-39737D01*
X53050Y-40652D01*
X53049Y-40652D01*
X53038Y-40636D01*
X52316Y-39914D01*
X52316Y-39737D01*
X52362Y-39737D01*
X52431Y-39709D01*
X52484Y-39656D01*
X52512Y-39587D01*
X52512Y-39512D01*
X52512Y-39162D01*
X52484Y-39093D01*
X52431Y-39040D01*
X52414Y-39033D01*
X52466Y-39011D01*
X52537Y-38941D01*
X52575Y-38849D01*
X52575Y-38737D01*
X52512Y-38675D01*
X52100Y-38675D01*
X52100Y-38682D01*
X52000Y-38682D01*
X52000Y-38675D01*
X51587Y-38675D01*
X51525Y-38737D01*
X51524Y-38849D01*
X51562Y-38941D01*
X51633Y-39011D01*
X51685Y-39033D01*
X51668Y-39040D01*
X51615Y-39093D01*
X51608Y-39112D01*
X51491Y-39112D01*
X51484Y-39093D01*
X51431Y-39040D01*
X51362Y-39012D01*
X51287Y-39012D01*
X50737Y-39012D01*
X50668Y-39040D01*
X50615Y-39093D01*
X50608Y-39112D01*
X50491Y-39112D01*
X50484Y-39093D01*
X50431Y-39040D01*
X50362Y-39012D01*
X50287Y-39012D01*
X49737Y-39012D01*
X49668Y-39040D01*
X49615Y-39093D01*
X49608Y-39112D01*
X49604Y-39112D01*
X49609Y-39107D01*
X49664Y-38972D01*
X49664Y-38955D01*
X49668Y-38959D01*
X49737Y-38987D01*
X49812Y-38987D01*
X50362Y-38987D01*
X50431Y-38959D01*
X50484Y-38906D01*
X50512Y-38837D01*
X50512Y-38762D01*
X50512Y-38412D01*
X50484Y-38343D01*
X50431Y-38290D01*
X50362Y-38262D01*
X50287Y-38262D01*
X50287Y-38262D01*
X50287Y-38023D01*
X50460Y-38023D01*
X50529Y-37995D01*
X50582Y-37942D01*
X50600Y-37899D01*
X50617Y-37942D01*
X50670Y-37995D01*
X50739Y-38023D01*
X50814Y-38023D01*
X51149Y-38023D01*
X51138Y-38035D01*
X51077Y-38034D01*
X50943Y-38090D01*
X50840Y-38192D01*
X50785Y-38327D01*
X50784Y-38472D01*
X50840Y-38606D01*
X50942Y-38709D01*
X51077Y-38764D01*
X51222Y-38765D01*
X51356Y-38709D01*
X51459Y-38607D01*
X51514Y-38472D01*
X51514Y-38416D01*
X51524Y-38416D01*
X51525Y-38512D01*
X51587Y-38575D01*
X52000Y-38575D01*
X52000Y-38567D01*
X52100Y-38567D01*
X52100Y-38575D01*
X52512Y-38575D01*
X52575Y-38512D01*
X52575Y-38416D01*
X52637Y-38416D01*
X52637Y-38487D01*
X52637Y-38837D01*
X52665Y-38906D01*
X52718Y-38959D01*
X52735Y-38966D01*
X52683Y-38988D01*
X52612Y-39058D01*
X52574Y-39150D01*
X52575Y-39262D01*
X52637Y-39325D01*
X53050Y-39325D01*
X53050Y-39317D01*
X53150Y-39317D01*
X53150Y-39325D01*
X53562Y-39325D01*
X53625Y-39262D01*
X53625Y-39150D01*
X53587Y-39058D01*
X53516Y-38988D01*
X53464Y-38966D01*
X53481Y-38959D01*
X53534Y-38906D01*
X53562Y-38837D01*
X53562Y-38762D01*
X53562Y-38412D01*
X53534Y-38343D01*
X53481Y-38290D01*
X53412Y-38262D01*
X53349Y-38262D01*
X53346Y-38248D01*
X53346Y-38248D01*
X53317Y-38204D01*
X53288Y-38161D01*
X53288Y-38161D01*
X53088Y-37961D01*
X53001Y-37903D01*
X52900Y-37883D01*
X51832Y-37883D01*
X51909Y-37807D01*
X51964Y-37672D01*
X51965Y-37527D01*
X51909Y-37393D01*
X51807Y-37290D01*
X51672Y-37235D01*
X51527Y-37234D01*
X51417Y-37280D01*
X51408Y-37257D01*
X51355Y-37204D01*
X51286Y-37176D01*
X51211Y-37176D01*
X50739Y-37176D01*
X50670Y-37204D01*
X50617Y-37257D01*
X50599Y-37300D01*
X50582Y-37257D01*
X50529Y-37204D01*
X50460Y-37176D01*
X50385Y-37176D01*
X49913Y-37176D01*
X49844Y-37204D01*
X49791Y-37257D01*
X49763Y-37326D01*
X49763Y-37401D01*
X49763Y-37873D01*
X49791Y-37942D01*
X49812Y-37962D01*
X49812Y-38262D01*
X49737Y-38262D01*
X49668Y-38290D01*
X49615Y-38343D01*
X49587Y-38412D01*
X49587Y-38487D01*
X49587Y-38671D01*
X49566Y-38650D01*
X49566Y-37699D01*
X49609Y-37657D01*
X49664Y-37522D01*
X49665Y-37377D01*
X49609Y-37243D01*
X49532Y-37166D01*
X50600Y-37166D01*
X52112Y-37166D01*
X52112Y-37437D01*
X52140Y-37506D01*
X52193Y-37559D01*
X52262Y-37587D01*
X52337Y-37587D01*
X52937Y-37587D01*
X53006Y-37559D01*
X53059Y-37506D01*
X53087Y-37437D01*
X53087Y-37362D01*
X53087Y-37313D01*
X53118Y-37387D01*
X53214Y-37415D01*
X53529Y-37100D01*
X53214Y-36784D01*
X53118Y-36812D01*
X53087Y-36898D01*
X53087Y-36762D01*
X53059Y-36693D01*
X53006Y-36640D01*
X52984Y-36631D01*
X52984Y-35973D01*
X52926Y-35832D01*
X52818Y-35724D01*
X52676Y-35665D01*
X52523Y-35665D01*
X52382Y-35723D01*
X52274Y-35831D01*
X52215Y-35973D01*
X52215Y-36126D01*
X52273Y-36267D01*
X52381Y-36375D01*
X52523Y-36434D01*
X52676Y-36434D01*
X52817Y-36376D01*
X52925Y-36268D01*
X52984Y-36126D01*
X52984Y-35973D01*
X52984Y-36631D01*
X52937Y-36612D01*
X52862Y-36612D01*
X52262Y-36612D01*
X52211Y-36633D01*
X50866Y-36633D01*
X50866Y-36587D01*
X50937Y-36587D01*
X51006Y-36559D01*
X51059Y-36506D01*
X51087Y-36437D01*
X51087Y-36362D01*
X51087Y-35762D01*
X51059Y-35693D01*
X51006Y-35640D01*
X50937Y-35612D01*
X50862Y-35612D01*
X50262Y-35612D01*
X50193Y-35640D01*
X50140Y-35693D01*
X50112Y-35762D01*
X50112Y-35837D01*
X50112Y-36437D01*
X50140Y-36506D01*
X50193Y-36559D01*
X50262Y-36587D01*
X50333Y-36587D01*
X50333Y-36633D01*
X50087Y-36633D01*
X50087Y-36003D01*
X50013Y-35824D01*
X49876Y-35686D01*
X49697Y-35612D01*
X49503Y-35612D01*
X49324Y-35686D01*
X49186Y-35823D01*
X49136Y-35944D01*
X49081Y-35812D01*
X48985Y-35784D01*
X48915Y-35855D01*
X48915Y-35714D01*
X48887Y-35618D01*
X48681Y-35545D01*
X48463Y-35556D01*
X48312Y-35618D01*
X48284Y-35714D01*
X48600Y-36029D01*
X48915Y-35714D01*
X48915Y-35855D01*
X48670Y-36100D01*
X48985Y-36415D01*
X49081Y-36387D01*
X49132Y-36245D01*
X49186Y-36375D01*
X49323Y-36513D01*
X49502Y-36587D01*
X49696Y-36587D01*
X49875Y-36513D01*
X50013Y-36376D01*
X50087Y-36197D01*
X50087Y-36003D01*
X50087Y-36633D01*
X48761Y-36633D01*
X48887Y-36581D01*
X48915Y-36485D01*
X48600Y-36170D01*
X48529Y-36241D01*
X48529Y-36100D01*
X48214Y-35784D01*
X48118Y-35812D01*
X48067Y-35954D01*
X48013Y-35824D01*
X47876Y-35686D01*
X47697Y-35612D01*
X47503Y-35612D01*
X47324Y-35686D01*
X47186Y-35823D01*
X47112Y-36002D01*
X47112Y-36196D01*
X47186Y-36375D01*
X47323Y-36513D01*
X47502Y-36587D01*
X47696Y-36587D01*
X47875Y-36513D01*
X48013Y-36376D01*
X48063Y-36255D01*
X48118Y-36387D01*
X48214Y-36415D01*
X48529Y-36100D01*
X48529Y-36241D01*
X48284Y-36485D01*
X48312Y-36581D01*
X48458Y-36633D01*
X48200Y-36633D01*
X48098Y-36653D01*
X48054Y-36682D01*
X48011Y-36711D01*
X47160Y-37562D01*
X47062Y-37562D01*
X46993Y-37590D01*
X46940Y-37643D01*
X46912Y-37712D01*
X46912Y-37787D01*
X46912Y-38787D01*
X46937Y-38847D01*
X46937Y-39362D01*
X46900Y-39362D01*
X46799Y-39382D01*
X46739Y-39422D01*
X46707Y-39344D01*
X46605Y-39242D01*
X46472Y-39187D01*
X46387Y-39187D01*
X46387Y-39112D01*
X46387Y-38739D01*
X46788Y-38338D01*
X46846Y-38251D01*
X46846Y-38251D01*
X46866Y-38150D01*
X46866Y-38150D01*
X46866Y-36517D01*
X46875Y-36513D01*
X47013Y-36376D01*
X47087Y-36197D01*
X47087Y-36003D01*
X47013Y-35824D01*
X46876Y-35686D01*
X46697Y-35612D01*
X46503Y-35612D01*
X46324Y-35686D01*
X46186Y-35823D01*
X46112Y-36002D01*
X46112Y-36196D01*
X46186Y-36375D01*
X46323Y-36513D01*
X46333Y-36517D01*
X46333Y-36834D01*
X46249Y-36800D01*
X46150Y-36799D01*
X46087Y-36799D01*
X46087Y-36003D01*
X46013Y-35824D01*
X45876Y-35686D01*
X45697Y-35612D01*
X45503Y-35612D01*
X45324Y-35686D01*
X45186Y-35823D01*
X45112Y-36002D01*
X45112Y-36196D01*
X45186Y-36375D01*
X45323Y-36513D01*
X45502Y-36587D01*
X45696Y-36587D01*
X45875Y-36513D01*
X46013Y-36376D01*
X46087Y-36197D01*
X46087Y-36003D01*
X46087Y-36799D01*
X45762Y-36800D01*
X45700Y-36862D01*
X45700Y-37350D01*
X45707Y-37350D01*
X45707Y-37450D01*
X45700Y-37450D01*
X45700Y-37937D01*
X45762Y-38000D01*
X46150Y-38000D01*
X46249Y-37999D01*
X46333Y-37965D01*
X46333Y-38039D01*
X46110Y-38262D01*
X45600Y-38262D01*
X45600Y-37937D01*
X45600Y-37450D01*
X45600Y-37350D01*
X45600Y-36862D01*
X45537Y-36800D01*
X45149Y-36799D01*
X45050Y-36800D01*
X44958Y-36838D01*
X44887Y-36908D01*
X44849Y-37000D01*
X44850Y-37287D01*
X44912Y-37350D01*
X45600Y-37350D01*
X45600Y-37450D01*
X44912Y-37450D01*
X44850Y-37512D01*
X44849Y-37799D01*
X44887Y-37891D01*
X44958Y-37961D01*
X45050Y-37999D01*
X45149Y-38000D01*
X45537Y-38000D01*
X45600Y-37937D01*
X45600Y-38262D01*
X45062Y-38262D01*
X44993Y-38290D01*
X44940Y-38343D01*
X44912Y-38412D01*
X44912Y-38487D01*
X44912Y-39187D01*
X44940Y-39256D01*
X44993Y-39309D01*
X45062Y-39337D01*
X45137Y-39337D01*
X45433Y-39337D01*
X45433Y-39462D01*
X45387Y-39462D01*
X45318Y-39490D01*
X45265Y-39543D01*
X45237Y-39612D01*
X45237Y-39687D01*
X45237Y-40037D01*
X45265Y-40106D01*
X45318Y-40159D01*
X45387Y-40187D01*
X45462Y-40187D01*
X46012Y-40187D01*
X46081Y-40159D01*
X46134Y-40106D01*
X46141Y-40088D01*
X46226Y-40071D01*
X46226Y-40071D01*
X46313Y-40013D01*
X46414Y-39912D01*
X46471Y-39912D01*
X46605Y-39857D01*
X46637Y-39825D01*
X46637Y-40266D01*
X46632Y-40274D01*
X46628Y-40294D01*
X46162Y-40760D01*
X46162Y-40712D01*
X46162Y-40362D01*
X46134Y-40293D01*
X46081Y-40240D01*
X46012Y-40212D01*
X45937Y-40212D01*
X45387Y-40212D01*
X45318Y-40240D01*
X45265Y-40293D01*
X45262Y-40301D01*
X45222Y-40285D01*
X45077Y-40284D01*
X44943Y-40340D01*
X44840Y-40442D01*
X44785Y-40577D01*
X44784Y-40722D01*
X44840Y-40856D01*
X44942Y-40959D01*
X44990Y-40979D01*
X44908Y-41012D01*
X44838Y-41083D01*
X44800Y-41175D01*
X44799Y-41274D01*
X44800Y-41387D01*
X44862Y-41450D01*
X45175Y-41450D01*
X45175Y-41442D01*
X45275Y-41442D01*
X45275Y-41450D01*
X45282Y-41450D01*
X45282Y-41550D01*
X45275Y-41550D01*
X45275Y-41962D01*
X45337Y-42025D01*
X45443Y-42025D01*
X45433Y-42075D01*
X45433Y-42612D01*
X45262Y-42612D01*
X45193Y-42640D01*
X45175Y-42659D01*
X45175Y-41962D01*
X45175Y-41550D01*
X44862Y-41550D01*
X44800Y-41612D01*
X44799Y-41725D01*
X44800Y-41824D01*
X44838Y-41916D01*
X44908Y-41987D01*
X45000Y-42025D01*
X45112Y-42025D01*
X45175Y-41962D01*
X45175Y-42659D01*
X45140Y-42693D01*
X45112Y-42762D01*
X45112Y-42837D01*
X45112Y-43437D01*
X45140Y-43506D01*
X45193Y-43559D01*
X45262Y-43587D01*
X45337Y-43587D01*
X45937Y-43587D01*
X46006Y-43559D01*
X46059Y-43506D01*
X46087Y-43437D01*
X46087Y-43362D01*
X46087Y-42762D01*
X46059Y-42693D01*
X46006Y-42640D01*
X45966Y-42624D01*
X45966Y-42185D01*
X46163Y-41988D01*
X46180Y-41962D01*
X46187Y-41962D01*
X46256Y-41934D01*
X46309Y-41881D01*
X46333Y-41822D01*
X46333Y-42050D01*
X46333Y-42682D01*
X46324Y-42686D01*
X46186Y-42823D01*
X46112Y-43002D01*
X46112Y-43196D01*
X46186Y-43375D01*
X46323Y-43513D01*
X46502Y-43587D01*
X46696Y-43587D01*
X46875Y-43513D01*
X47013Y-43376D01*
X47063Y-43255D01*
X47118Y-43387D01*
X47214Y-43415D01*
X47529Y-43100D01*
X47214Y-42784D01*
X47118Y-42812D01*
X47067Y-42954D01*
X47013Y-42824D01*
X46876Y-42686D01*
X46866Y-42682D01*
X46866Y-42050D01*
X46866Y-41962D01*
X47037Y-41962D01*
X47106Y-41934D01*
X47159Y-41881D01*
X47187Y-41812D01*
X47187Y-41737D01*
X47187Y-41187D01*
X47159Y-41118D01*
X47106Y-41065D01*
X47037Y-41037D01*
X46962Y-41037D01*
X46639Y-41037D01*
X47028Y-40648D01*
X47062Y-40662D01*
X47137Y-40662D01*
X47437Y-40662D01*
X47506Y-40634D01*
X47559Y-40581D01*
X47587Y-40512D01*
X47587Y-40437D01*
X47587Y-40265D01*
X47612Y-40241D01*
X47650Y-40149D01*
X47650Y-40112D01*
X47587Y-40050D01*
X47300Y-40050D01*
X47300Y-40057D01*
X47200Y-40057D01*
X47200Y-40050D01*
X47192Y-40050D01*
X47192Y-39950D01*
X47200Y-39950D01*
X47200Y-39942D01*
X47300Y-39942D01*
X47300Y-39950D01*
X47587Y-39950D01*
X47650Y-39887D01*
X47650Y-39850D01*
X47612Y-39758D01*
X47587Y-39734D01*
X47587Y-39687D01*
X47587Y-39487D01*
X47559Y-39418D01*
X47506Y-39365D01*
X47462Y-39347D01*
X47462Y-38937D01*
X47637Y-38937D01*
X47706Y-38909D01*
X47759Y-38856D01*
X47787Y-38787D01*
X47787Y-38712D01*
X47787Y-37712D01*
X47780Y-37696D01*
X48310Y-37166D01*
X49067Y-37166D01*
X48990Y-37242D01*
X48935Y-37377D01*
X48934Y-37522D01*
X48990Y-37656D01*
X49033Y-37699D01*
X49033Y-38650D01*
X48990Y-38692D01*
X48987Y-38700D01*
X48987Y-37712D01*
X48959Y-37643D01*
X48906Y-37590D01*
X48837Y-37562D01*
X48762Y-37562D01*
X48262Y-37562D01*
X48193Y-37590D01*
X48140Y-37643D01*
X48112Y-37712D01*
X48112Y-37787D01*
X48112Y-38787D01*
X48140Y-38856D01*
X48193Y-38909D01*
X48233Y-38925D01*
X48233Y-39264D01*
X48160Y-39337D01*
X48062Y-39337D01*
X47993Y-39365D01*
X47940Y-39418D01*
X47912Y-39487D01*
X47912Y-39562D01*
X47912Y-39762D01*
X47940Y-39831D01*
X47993Y-39884D01*
X48062Y-39912D01*
X48137Y-39912D01*
X48437Y-39912D01*
X48506Y-39884D01*
X48559Y-39831D01*
X48587Y-39762D01*
X48587Y-39687D01*
X48587Y-39664D01*
X48688Y-39563D01*
X48688Y-39563D01*
X48746Y-39476D01*
X48766Y-39375D01*
X48766Y-39375D01*
X48766Y-38937D01*
X48837Y-38937D01*
X48906Y-38909D01*
X48935Y-38880D01*
X48934Y-38972D01*
X48990Y-39106D01*
X49092Y-39209D01*
X49217Y-39260D01*
X48989Y-39489D01*
X48932Y-39574D01*
X48912Y-39675D01*
X48912Y-39858D01*
X48893Y-39865D01*
X48840Y-39918D01*
X48812Y-39987D01*
X48812Y-40062D01*
X48812Y-40077D01*
X48761Y-40111D01*
X48587Y-40285D01*
X48587Y-40237D01*
X48559Y-40168D01*
X48506Y-40115D01*
X48437Y-40087D01*
X48362Y-40087D01*
X48062Y-40087D01*
X47993Y-40115D01*
X47940Y-40168D01*
X47912Y-40237D01*
X47912Y-40312D01*
X47912Y-40512D01*
X47940Y-40581D01*
X47993Y-40634D01*
X48062Y-40662D01*
X48137Y-40662D01*
X48166Y-40662D01*
X48236Y-40733D01*
X48233Y-40750D01*
X48237Y-40768D01*
X48237Y-40912D01*
X48162Y-40912D01*
X48093Y-40940D01*
X48040Y-40993D01*
X48012Y-41062D01*
X48012Y-41137D01*
X48012Y-41237D01*
X47937Y-41237D01*
X47937Y-41187D01*
X47909Y-41118D01*
X47856Y-41065D01*
X47787Y-41037D01*
X47712Y-41037D01*
X47362Y-41037D01*
X47293Y-41065D01*
X47240Y-41118D01*
X47212Y-41187D01*
X47212Y-41262D01*
X47212Y-41812D01*
X47240Y-41881D01*
X47293Y-41934D01*
X47362Y-41962D01*
X47437Y-41962D01*
X47787Y-41962D01*
X47856Y-41934D01*
X47909Y-41881D01*
X47937Y-41812D01*
X47937Y-41762D01*
X48012Y-41762D01*
X48012Y-41937D01*
X48040Y-42006D01*
X48093Y-42059D01*
X48162Y-42087D01*
X48237Y-42087D01*
X48237Y-42087D01*
X48237Y-42772D01*
X48186Y-42823D01*
X48136Y-42944D01*
X48081Y-42812D01*
X47985Y-42784D01*
X47915Y-42855D01*
X47915Y-42714D01*
X47887Y-42618D01*
X47681Y-42545D01*
X47463Y-42556D01*
X47312Y-42618D01*
X47284Y-42714D01*
X47600Y-43029D01*
X47915Y-42714D01*
X47915Y-42855D01*
X47670Y-43100D01*
X47985Y-43415D01*
X48081Y-43387D01*
X48132Y-43245D01*
X48186Y-43375D01*
X48323Y-43513D01*
X48502Y-43587D01*
X48696Y-43587D01*
X48875Y-43513D01*
X49013Y-43376D01*
X49087Y-43197D01*
X49087Y-43003D01*
X49013Y-42824D01*
X48876Y-42686D01*
X48762Y-42639D01*
X48762Y-42087D01*
X48837Y-42087D01*
X48906Y-42059D01*
X48959Y-42006D01*
X48987Y-41937D01*
X48987Y-41862D01*
X48987Y-41062D01*
X48959Y-40993D01*
X48906Y-40940D01*
X48837Y-40912D01*
X48762Y-40912D01*
X48762Y-40912D01*
X48762Y-40864D01*
X48893Y-40733D01*
X48893Y-40734D01*
X48962Y-40762D01*
X49037Y-40762D01*
X49387Y-40762D01*
X49456Y-40734D01*
X49509Y-40681D01*
X49516Y-40664D01*
X49538Y-40716D01*
X49608Y-40787D01*
X49700Y-40825D01*
X49812Y-40825D01*
X49875Y-40762D01*
X49875Y-40350D01*
X49867Y-40350D01*
X49867Y-40250D01*
X49875Y-40250D01*
X49875Y-39837D01*
X49812Y-39775D01*
X49700Y-39774D01*
X49608Y-39812D01*
X49538Y-39883D01*
X49516Y-39935D01*
X49509Y-39918D01*
X49456Y-39865D01*
X49437Y-39858D01*
X49437Y-39783D01*
X49583Y-39637D01*
X49608Y-39637D01*
X49615Y-39656D01*
X49668Y-39709D01*
X49737Y-39737D01*
X49812Y-39737D01*
X50362Y-39737D01*
X50431Y-39709D01*
X50484Y-39656D01*
X50491Y-39637D01*
X50608Y-39637D01*
X50615Y-39656D01*
X50668Y-39709D01*
X50737Y-39737D01*
X50812Y-39737D01*
X51362Y-39737D01*
X51431Y-39709D01*
X51484Y-39656D01*
X51491Y-39637D01*
X51608Y-39637D01*
X51615Y-39656D01*
X51668Y-39709D01*
X51737Y-39737D01*
X51783Y-39737D01*
X51783Y-40025D01*
X51803Y-40126D01*
X51861Y-40213D01*
X52537Y-40889D01*
X52537Y-41362D01*
X52565Y-41431D01*
X52618Y-41484D01*
X52687Y-41512D01*
X52762Y-41512D01*
X53012Y-41512D01*
X53081Y-41484D01*
X53083Y-41482D01*
X53083Y-41539D01*
X52389Y-42233D01*
X51350Y-42233D01*
X51316Y-42233D01*
X51316Y-40487D01*
X51362Y-40487D01*
X51431Y-40459D01*
X51484Y-40406D01*
X51512Y-40337D01*
X51512Y-40262D01*
X51512Y-39912D01*
X51484Y-39843D01*
X51431Y-39790D01*
X51362Y-39762D01*
X51287Y-39762D01*
X50737Y-39762D01*
X50668Y-39790D01*
X50615Y-39843D01*
X50587Y-39912D01*
X50587Y-39987D01*
X50587Y-40337D01*
X50615Y-40406D01*
X50668Y-40459D01*
X50737Y-40487D01*
X50783Y-40487D01*
X50783Y-42189D01*
X50739Y-42233D01*
X50350Y-42233D01*
X50350Y-41850D01*
X50350Y-41149D01*
X50350Y-40525D01*
X50350Y-40074D01*
X50349Y-39975D01*
X50311Y-39883D01*
X50241Y-39812D01*
X50149Y-39774D01*
X50037Y-39775D01*
X49975Y-39837D01*
X49975Y-40250D01*
X50287Y-40250D01*
X50350Y-40187D01*
X50350Y-40074D01*
X50350Y-40525D01*
X50350Y-40412D01*
X50287Y-40350D01*
X49975Y-40350D01*
X49975Y-40762D01*
X50037Y-40825D01*
X50149Y-40825D01*
X50241Y-40787D01*
X50311Y-40716D01*
X50349Y-40624D01*
X50350Y-40525D01*
X50350Y-41149D01*
X50349Y-41050D01*
X50311Y-40958D01*
X50241Y-40887D01*
X50149Y-40849D01*
X49912Y-40850D01*
X49850Y-40912D01*
X49850Y-41450D01*
X50287Y-41450D01*
X50350Y-41387D01*
X50350Y-41149D01*
X50350Y-41850D01*
X50350Y-41612D01*
X50287Y-41550D01*
X49850Y-41550D01*
X49850Y-42087D01*
X49912Y-42150D01*
X50149Y-42150D01*
X50241Y-42112D01*
X50311Y-42041D01*
X50349Y-41949D01*
X50350Y-41850D01*
X50350Y-42233D01*
X50200Y-42233D01*
X50098Y-42253D01*
X50054Y-42282D01*
X50011Y-42311D01*
X49750Y-42573D01*
X49750Y-42087D01*
X49750Y-41550D01*
X49750Y-41450D01*
X49750Y-40912D01*
X49687Y-40850D01*
X49450Y-40849D01*
X49358Y-40887D01*
X49288Y-40958D01*
X49250Y-41050D01*
X49249Y-41149D01*
X49250Y-41387D01*
X49312Y-41450D01*
X49750Y-41450D01*
X49750Y-41550D01*
X49312Y-41550D01*
X49250Y-41612D01*
X49249Y-41850D01*
X49250Y-41949D01*
X49288Y-42041D01*
X49358Y-42112D01*
X49450Y-42150D01*
X49687Y-42150D01*
X49750Y-42087D01*
X49750Y-42573D01*
X49706Y-42616D01*
X49697Y-42612D01*
X49503Y-42612D01*
X49324Y-42686D01*
X49186Y-42823D01*
X49112Y-43002D01*
X49112Y-43196D01*
X49186Y-43375D01*
X49323Y-43513D01*
X49502Y-43587D01*
X49696Y-43587D01*
X49875Y-43513D01*
X50013Y-43376D01*
X50087Y-43197D01*
X50087Y-43003D01*
X50083Y-42993D01*
X50139Y-42937D01*
X50112Y-43002D01*
X50112Y-43196D01*
X50186Y-43375D01*
X50323Y-43513D01*
X50502Y-43587D01*
X50696Y-43587D01*
X50875Y-43513D01*
X51013Y-43376D01*
X51087Y-43197D01*
X51087Y-43003D01*
X51013Y-42824D01*
X50956Y-42766D01*
X51350Y-42766D01*
X52500Y-42766D01*
X52601Y-42746D01*
X52601Y-42746D01*
X52688Y-42688D01*
X53185Y-42191D01*
X53184Y-42272D01*
X53240Y-42406D01*
X53342Y-42509D01*
X53477Y-42564D01*
X53622Y-42565D01*
X53756Y-42509D01*
X53859Y-42407D01*
X53914Y-42272D01*
X53914Y-42211D01*
X54038Y-42088D01*
X54038Y-42088D01*
X54096Y-42001D01*
X54116Y-41900D01*
X54116Y-41900D01*
X54116Y-41550D01*
X54175Y-41574D01*
X54274Y-41575D01*
X54237Y-41575D01*
X54300Y-41512D01*
X54300Y-42889D01*
X54187Y-42889D01*
X54118Y-42917D01*
X54100Y-42936D01*
X54081Y-42917D01*
X54012Y-42889D01*
X53937Y-42889D01*
X53687Y-42889D01*
X53618Y-42917D01*
X53600Y-42936D01*
X53581Y-42917D01*
X53512Y-42889D01*
X53437Y-42889D01*
X53187Y-42889D01*
X53118Y-42917D01*
X53100Y-42936D01*
X53081Y-42917D01*
X53012Y-42889D01*
X52937Y-42889D01*
X52687Y-42889D01*
X52618Y-42917D01*
X52565Y-42970D01*
X52537Y-43039D01*
X52537Y-43114D01*
X52537Y-43614D01*
X52565Y-43683D01*
X52615Y-43732D01*
X47915Y-43732D01*
X47915Y-43485D01*
X47600Y-43170D01*
X47284Y-43485D01*
X47312Y-43581D01*
X47518Y-43654D01*
X47736Y-43643D01*
X47887Y-43581D01*
X47915Y-43485D01*
X47915Y-43732D01*
X44767Y-43732D01*
X44767Y-35517D01*
X62698Y-35517D01*
X62698Y-43732D01*
M02*
