G04 (created by PCBNEW (2013-05-31 BZR 4019)-stable) date 16/09/2013 19:50:50*
%MOIN*%
G04 Gerber Fmt 3.4, Leading zero omitted, Abs format*
%FSLAX34Y34*%
G01*
G70*
G90*
G04 APERTURE LIST*
%ADD10C,0.00590551*%
%ADD11C,0.00984252*%
%ADD12R,0.06X0.06*%
%ADD13C,0.06*%
%ADD14C,0.0393701*%
%ADD15C,0.035*%
%ADD16C,0.0354331*%
%ADD17C,0.015748*%
%ADD18C,0.01*%
G04 APERTURE END LIST*
G54D10*
G54D11*
X54802Y-43421D02*
X54821Y-43440D01*
X54877Y-43459D01*
X54915Y-43459D01*
X54971Y-43440D01*
X55009Y-43403D01*
X55027Y-43365D01*
X55046Y-43290D01*
X55046Y-43234D01*
X55027Y-43159D01*
X55009Y-43121D01*
X54971Y-43084D01*
X54915Y-43065D01*
X54877Y-43065D01*
X54821Y-43084D01*
X54802Y-43103D01*
X54634Y-43459D02*
X54634Y-43065D01*
X54240Y-43459D02*
X54465Y-43459D01*
X54353Y-43459D02*
X54353Y-43065D01*
X54390Y-43121D01*
X54428Y-43159D01*
X54465Y-43178D01*
X54109Y-43065D02*
X53865Y-43065D01*
X53996Y-43215D01*
X53940Y-43215D01*
X53903Y-43234D01*
X53884Y-43253D01*
X53865Y-43290D01*
X53865Y-43384D01*
X53884Y-43421D01*
X53903Y-43440D01*
X53940Y-43459D01*
X54053Y-43459D01*
X54090Y-43440D01*
X54109Y-43421D01*
X53696Y-43309D02*
X53396Y-43309D01*
X53134Y-43065D02*
X53096Y-43065D01*
X53059Y-43084D01*
X53040Y-43103D01*
X53021Y-43140D01*
X53003Y-43215D01*
X53003Y-43309D01*
X53021Y-43384D01*
X53040Y-43421D01*
X53059Y-43440D01*
X53096Y-43459D01*
X53134Y-43459D01*
X53171Y-43440D01*
X53190Y-43421D01*
X53209Y-43384D01*
X53228Y-43309D01*
X53228Y-43215D01*
X53209Y-43140D01*
X53190Y-43103D01*
X53171Y-43084D01*
X53134Y-43065D01*
X52759Y-43065D02*
X52721Y-43065D01*
X52684Y-43084D01*
X52665Y-43103D01*
X52647Y-43140D01*
X52628Y-43215D01*
X52628Y-43309D01*
X52647Y-43384D01*
X52665Y-43421D01*
X52684Y-43440D01*
X52721Y-43459D01*
X52759Y-43459D01*
X52796Y-43440D01*
X52815Y-43421D01*
X52834Y-43384D01*
X52853Y-43309D01*
X52853Y-43215D01*
X52834Y-43140D01*
X52815Y-43103D01*
X52796Y-43084D01*
X52759Y-43065D01*
X52253Y-43459D02*
X52478Y-43459D01*
X52365Y-43459D02*
X52365Y-43065D01*
X52403Y-43121D01*
X52440Y-43159D01*
X52478Y-43178D01*
G54D12*
X61600Y-36100D03*
G54D13*
X60600Y-36100D03*
X59600Y-36100D03*
X58600Y-36100D03*
X57600Y-36100D03*
X56600Y-36100D03*
G54D12*
X50600Y-36100D03*
G54D13*
X49600Y-36100D03*
X48600Y-36100D03*
X47600Y-36100D03*
X46600Y-36100D03*
X45600Y-36100D03*
G54D12*
X45600Y-43100D03*
G54D13*
X46600Y-43100D03*
X47600Y-43100D03*
X48600Y-43100D03*
X49600Y-43100D03*
X50600Y-43100D03*
G54D12*
X56600Y-43100D03*
G54D13*
X57600Y-43100D03*
X58600Y-43100D03*
X59600Y-43100D03*
X60600Y-43100D03*
X61600Y-43100D03*
G54D12*
X60600Y-38600D03*
G54D13*
X61600Y-38600D03*
X60600Y-39600D03*
X61600Y-39600D03*
X60600Y-40600D03*
X61600Y-40600D03*
G54D12*
X52600Y-37100D03*
G54D13*
X53600Y-37100D03*
G54D14*
X52600Y-36050D03*
X53600Y-36050D03*
G54D15*
X46400Y-39550D03*
G54D16*
X51150Y-38400D03*
X59200Y-38000D03*
G54D15*
X55300Y-39350D03*
G54D16*
X51600Y-37600D03*
X49300Y-38900D03*
X58650Y-40900D03*
X49300Y-37450D03*
X53550Y-42200D03*
X58200Y-40450D03*
X58250Y-39750D03*
X45150Y-40650D03*
X56550Y-37300D03*
G54D17*
X46400Y-39550D02*
X47550Y-38400D01*
X47550Y-38400D02*
X51150Y-38400D01*
X51150Y-38400D02*
X51150Y-38300D01*
G54D18*
X60600Y-39600D02*
X59650Y-39600D01*
G54D17*
X58350Y-38300D02*
X51150Y-38300D01*
X59650Y-39600D02*
X58350Y-38300D01*
X60600Y-38600D02*
X59800Y-38600D01*
X59800Y-38600D02*
X59200Y-38000D01*
X60000Y-42250D02*
X60600Y-42850D01*
X60000Y-40800D02*
X60000Y-42250D01*
X58150Y-38950D02*
X60000Y-40800D01*
X55700Y-38950D02*
X58150Y-38950D01*
X55300Y-39350D02*
X55700Y-38950D01*
X60600Y-36100D02*
X60600Y-36550D01*
X54500Y-37600D02*
X51600Y-37600D01*
X55250Y-36850D02*
X54500Y-37600D01*
X60300Y-36850D02*
X55250Y-36850D01*
X60600Y-36550D02*
X60300Y-36850D01*
X49600Y-36100D02*
X49600Y-36700D01*
X49300Y-38900D02*
X51300Y-40900D01*
X51300Y-40900D02*
X58650Y-40900D01*
X49600Y-36700D02*
X49300Y-37000D01*
X49300Y-37000D02*
X49300Y-37450D01*
X53550Y-42200D02*
X53500Y-42250D01*
X53500Y-42250D02*
X47450Y-42250D01*
X47450Y-42250D02*
X46600Y-43100D01*
X59600Y-43100D02*
X59600Y-41100D01*
X59600Y-41100D02*
X58250Y-39750D01*
X56550Y-37300D02*
X60300Y-37300D01*
X60300Y-37300D02*
X61600Y-38600D01*
X56550Y-37300D02*
X55400Y-37300D01*
X55400Y-37300D02*
X54750Y-37950D01*
X54750Y-37950D02*
X46500Y-37950D01*
X46500Y-37950D02*
X45150Y-39300D01*
X45150Y-39300D02*
X45150Y-40650D01*
G54D10*
G36*
X62698Y-43732D02*
X62154Y-43732D01*
X62154Y-40681D01*
X62154Y-39681D01*
X62143Y-39463D01*
X62087Y-39328D01*
X62087Y-38503D01*
X62087Y-38503D01*
X62087Y-36362D01*
X62087Y-35762D01*
X62059Y-35693D01*
X62006Y-35640D01*
X61937Y-35612D01*
X61862Y-35612D01*
X61262Y-35612D01*
X61193Y-35640D01*
X61140Y-35693D01*
X61112Y-35762D01*
X61112Y-35837D01*
X61112Y-36437D01*
X61140Y-36506D01*
X61193Y-36559D01*
X61262Y-36587D01*
X61337Y-36587D01*
X61937Y-36587D01*
X62006Y-36559D01*
X62059Y-36506D01*
X62087Y-36437D01*
X62087Y-36362D01*
X62087Y-38503D01*
X62013Y-38324D01*
X61876Y-38186D01*
X61697Y-38112D01*
X61503Y-38112D01*
X61493Y-38116D01*
X60488Y-37111D01*
X60433Y-37075D01*
X60433Y-37074D01*
X60488Y-37038D01*
X60788Y-36738D01*
X60788Y-36738D01*
X60846Y-36651D01*
X60866Y-36550D01*
X60866Y-36550D01*
X60866Y-36517D01*
X60875Y-36513D01*
X61013Y-36376D01*
X61087Y-36197D01*
X61087Y-36003D01*
X61013Y-35824D01*
X60876Y-35686D01*
X60697Y-35612D01*
X60503Y-35612D01*
X60324Y-35686D01*
X60186Y-35823D01*
X60136Y-35944D01*
X60081Y-35812D01*
X59985Y-35784D01*
X59915Y-35855D01*
X59915Y-35714D01*
X59887Y-35618D01*
X59681Y-35545D01*
X59463Y-35556D01*
X59312Y-35618D01*
X59284Y-35714D01*
X59600Y-36029D01*
X59915Y-35714D01*
X59915Y-35855D01*
X59670Y-36100D01*
X59985Y-36415D01*
X60081Y-36387D01*
X60132Y-36245D01*
X60186Y-36375D01*
X60291Y-36481D01*
X60189Y-36583D01*
X59882Y-36583D01*
X59887Y-36581D01*
X59915Y-36485D01*
X59600Y-36170D01*
X59284Y-36485D01*
X59312Y-36581D01*
X59318Y-36583D01*
X58707Y-36583D01*
X58875Y-36513D01*
X59013Y-36376D01*
X59063Y-36255D01*
X59118Y-36387D01*
X59214Y-36415D01*
X59529Y-36100D01*
X59214Y-35784D01*
X59118Y-35812D01*
X59067Y-35954D01*
X59013Y-35824D01*
X58876Y-35686D01*
X58697Y-35612D01*
X58503Y-35612D01*
X58324Y-35686D01*
X58186Y-35823D01*
X58112Y-36002D01*
X58112Y-36196D01*
X58186Y-36375D01*
X58323Y-36513D01*
X58492Y-36583D01*
X57707Y-36583D01*
X57875Y-36513D01*
X58013Y-36376D01*
X58087Y-36197D01*
X58087Y-36003D01*
X58013Y-35824D01*
X57876Y-35686D01*
X57697Y-35612D01*
X57503Y-35612D01*
X57324Y-35686D01*
X57186Y-35823D01*
X57112Y-36002D01*
X57112Y-36196D01*
X57186Y-36375D01*
X57323Y-36513D01*
X57492Y-36583D01*
X56707Y-36583D01*
X56875Y-36513D01*
X57013Y-36376D01*
X57087Y-36197D01*
X57087Y-36003D01*
X57013Y-35824D01*
X56876Y-35686D01*
X56697Y-35612D01*
X56503Y-35612D01*
X56324Y-35686D01*
X56186Y-35823D01*
X56112Y-36002D01*
X56112Y-36196D01*
X56186Y-36375D01*
X56323Y-36513D01*
X56492Y-36583D01*
X55250Y-36583D01*
X55148Y-36603D01*
X55061Y-36661D01*
X54389Y-37333D01*
X54100Y-37333D01*
X54154Y-37181D01*
X54143Y-36963D01*
X54081Y-36812D01*
X53985Y-36784D01*
X53984Y-36785D01*
X53984Y-35973D01*
X53926Y-35832D01*
X53818Y-35724D01*
X53676Y-35665D01*
X53523Y-35665D01*
X53382Y-35723D01*
X53274Y-35831D01*
X53215Y-35973D01*
X53215Y-36126D01*
X53273Y-36267D01*
X53381Y-36375D01*
X53523Y-36434D01*
X53676Y-36434D01*
X53817Y-36376D01*
X53925Y-36268D01*
X53984Y-36126D01*
X53984Y-35973D01*
X53984Y-36785D01*
X53915Y-36855D01*
X53915Y-36714D01*
X53887Y-36618D01*
X53681Y-36545D01*
X53463Y-36556D01*
X53312Y-36618D01*
X53284Y-36714D01*
X53600Y-37029D01*
X53915Y-36714D01*
X53915Y-36855D01*
X53670Y-37100D01*
X53676Y-37105D01*
X53605Y-37176D01*
X53600Y-37170D01*
X53594Y-37176D01*
X53523Y-37105D01*
X53529Y-37100D01*
X53214Y-36784D01*
X53118Y-36812D01*
X53087Y-36898D01*
X53087Y-36762D01*
X53059Y-36693D01*
X53006Y-36640D01*
X52984Y-36631D01*
X52984Y-35973D01*
X52926Y-35832D01*
X52818Y-35724D01*
X52676Y-35665D01*
X52523Y-35665D01*
X52382Y-35723D01*
X52274Y-35831D01*
X52215Y-35973D01*
X52215Y-36126D01*
X52273Y-36267D01*
X52381Y-36375D01*
X52523Y-36434D01*
X52676Y-36434D01*
X52817Y-36376D01*
X52925Y-36268D01*
X52984Y-36126D01*
X52984Y-35973D01*
X52984Y-36631D01*
X52937Y-36612D01*
X52862Y-36612D01*
X52262Y-36612D01*
X52193Y-36640D01*
X52140Y-36693D01*
X52112Y-36762D01*
X52112Y-36837D01*
X52112Y-37333D01*
X51849Y-37333D01*
X51807Y-37290D01*
X51672Y-37235D01*
X51527Y-37234D01*
X51393Y-37290D01*
X51290Y-37392D01*
X51235Y-37527D01*
X51234Y-37672D01*
X51239Y-37683D01*
X51087Y-37683D01*
X51087Y-36362D01*
X51087Y-35762D01*
X51059Y-35693D01*
X51006Y-35640D01*
X50937Y-35612D01*
X50862Y-35612D01*
X50262Y-35612D01*
X50193Y-35640D01*
X50140Y-35693D01*
X50112Y-35762D01*
X50112Y-35837D01*
X50112Y-36437D01*
X50140Y-36506D01*
X50193Y-36559D01*
X50262Y-36587D01*
X50337Y-36587D01*
X50937Y-36587D01*
X51006Y-36559D01*
X51059Y-36506D01*
X51087Y-36437D01*
X51087Y-36362D01*
X51087Y-37683D01*
X49582Y-37683D01*
X49609Y-37657D01*
X49664Y-37522D01*
X49665Y-37377D01*
X49609Y-37243D01*
X49566Y-37200D01*
X49566Y-37110D01*
X49788Y-36888D01*
X49788Y-36888D01*
X49846Y-36801D01*
X49866Y-36700D01*
X49866Y-36700D01*
X49866Y-36517D01*
X49875Y-36513D01*
X50013Y-36376D01*
X50087Y-36197D01*
X50087Y-36003D01*
X50013Y-35824D01*
X49876Y-35686D01*
X49697Y-35612D01*
X49503Y-35612D01*
X49324Y-35686D01*
X49186Y-35823D01*
X49136Y-35944D01*
X49081Y-35812D01*
X48985Y-35784D01*
X48915Y-35855D01*
X48915Y-35714D01*
X48887Y-35618D01*
X48681Y-35545D01*
X48463Y-35556D01*
X48312Y-35618D01*
X48284Y-35714D01*
X48600Y-36029D01*
X48915Y-35714D01*
X48915Y-35855D01*
X48670Y-36100D01*
X48985Y-36415D01*
X49081Y-36387D01*
X49132Y-36245D01*
X49186Y-36375D01*
X49323Y-36513D01*
X49333Y-36517D01*
X49333Y-36589D01*
X49111Y-36811D01*
X49053Y-36898D01*
X49033Y-37000D01*
X49033Y-37200D01*
X48990Y-37242D01*
X48935Y-37377D01*
X48934Y-37522D01*
X48990Y-37656D01*
X49017Y-37683D01*
X48915Y-37683D01*
X48915Y-36485D01*
X48600Y-36170D01*
X48529Y-36241D01*
X48529Y-36100D01*
X48214Y-35784D01*
X48118Y-35812D01*
X48067Y-35954D01*
X48013Y-35824D01*
X47876Y-35686D01*
X47697Y-35612D01*
X47503Y-35612D01*
X47324Y-35686D01*
X47186Y-35823D01*
X47112Y-36002D01*
X47112Y-36196D01*
X47186Y-36375D01*
X47323Y-36513D01*
X47502Y-36587D01*
X47696Y-36587D01*
X47875Y-36513D01*
X48013Y-36376D01*
X48063Y-36255D01*
X48118Y-36387D01*
X48214Y-36415D01*
X48529Y-36100D01*
X48529Y-36241D01*
X48284Y-36485D01*
X48312Y-36581D01*
X48518Y-36654D01*
X48736Y-36643D01*
X48887Y-36581D01*
X48915Y-36485D01*
X48915Y-37683D01*
X47087Y-37683D01*
X47087Y-36003D01*
X47013Y-35824D01*
X46876Y-35686D01*
X46697Y-35612D01*
X46503Y-35612D01*
X46324Y-35686D01*
X46186Y-35823D01*
X46112Y-36002D01*
X46112Y-36196D01*
X46186Y-36375D01*
X46323Y-36513D01*
X46502Y-36587D01*
X46696Y-36587D01*
X46875Y-36513D01*
X47013Y-36376D01*
X47087Y-36197D01*
X47087Y-36003D01*
X47087Y-37683D01*
X46500Y-37683D01*
X46398Y-37703D01*
X46354Y-37732D01*
X46311Y-37761D01*
X46087Y-37985D01*
X46087Y-36003D01*
X46013Y-35824D01*
X45876Y-35686D01*
X45697Y-35612D01*
X45503Y-35612D01*
X45324Y-35686D01*
X45186Y-35823D01*
X45112Y-36002D01*
X45112Y-36196D01*
X45186Y-36375D01*
X45323Y-36513D01*
X45502Y-36587D01*
X45696Y-36587D01*
X45875Y-36513D01*
X46013Y-36376D01*
X46087Y-36197D01*
X46087Y-36003D01*
X46087Y-37985D01*
X44961Y-39111D01*
X44903Y-39198D01*
X44883Y-39300D01*
X44883Y-40400D01*
X44840Y-40442D01*
X44785Y-40577D01*
X44784Y-40722D01*
X44840Y-40856D01*
X44942Y-40959D01*
X45077Y-41014D01*
X45222Y-41015D01*
X45356Y-40959D01*
X45459Y-40857D01*
X45514Y-40722D01*
X45515Y-40577D01*
X45459Y-40443D01*
X45416Y-40400D01*
X45416Y-39410D01*
X46610Y-38216D01*
X47356Y-38216D01*
X46385Y-39187D01*
X46328Y-39187D01*
X46194Y-39242D01*
X46092Y-39344D01*
X46037Y-39477D01*
X46037Y-39621D01*
X46092Y-39755D01*
X46194Y-39857D01*
X46327Y-39912D01*
X46471Y-39912D01*
X46605Y-39857D01*
X46707Y-39755D01*
X46762Y-39622D01*
X46762Y-39564D01*
X47660Y-38666D01*
X49017Y-38666D01*
X48990Y-38692D01*
X48935Y-38827D01*
X48934Y-38972D01*
X48990Y-39106D01*
X49092Y-39209D01*
X49227Y-39264D01*
X49288Y-39264D01*
X51111Y-41088D01*
X51111Y-41088D01*
X51198Y-41146D01*
X51299Y-41166D01*
X51300Y-41166D01*
X58400Y-41166D01*
X58442Y-41209D01*
X58577Y-41264D01*
X58722Y-41265D01*
X58856Y-41209D01*
X58959Y-41107D01*
X59014Y-40972D01*
X59014Y-40891D01*
X59333Y-41210D01*
X59333Y-42682D01*
X59324Y-42686D01*
X59186Y-42823D01*
X59136Y-42944D01*
X59081Y-42812D01*
X58985Y-42784D01*
X58915Y-42855D01*
X58915Y-42714D01*
X58887Y-42618D01*
X58681Y-42545D01*
X58463Y-42556D01*
X58312Y-42618D01*
X58284Y-42714D01*
X58600Y-43029D01*
X58915Y-42714D01*
X58915Y-42855D01*
X58670Y-43100D01*
X58985Y-43415D01*
X59081Y-43387D01*
X59132Y-43245D01*
X59186Y-43375D01*
X59323Y-43513D01*
X59502Y-43587D01*
X59696Y-43587D01*
X59875Y-43513D01*
X60013Y-43376D01*
X60087Y-43197D01*
X60087Y-43003D01*
X60013Y-42824D01*
X59876Y-42686D01*
X59866Y-42682D01*
X59866Y-42493D01*
X60191Y-42818D01*
X60186Y-42823D01*
X60112Y-43002D01*
X60112Y-43196D01*
X60186Y-43375D01*
X60323Y-43513D01*
X60502Y-43587D01*
X60696Y-43587D01*
X60875Y-43513D01*
X61013Y-43376D01*
X61087Y-43197D01*
X61087Y-43003D01*
X61013Y-42824D01*
X60876Y-42686D01*
X60768Y-42641D01*
X60266Y-42139D01*
X60266Y-40956D01*
X60323Y-41013D01*
X60502Y-41087D01*
X60696Y-41087D01*
X60875Y-41013D01*
X61013Y-40876D01*
X61063Y-40755D01*
X61118Y-40887D01*
X61214Y-40915D01*
X61529Y-40600D01*
X61214Y-40284D01*
X61118Y-40312D01*
X61067Y-40454D01*
X61013Y-40324D01*
X60876Y-40186D01*
X60697Y-40112D01*
X60503Y-40112D01*
X60324Y-40186D01*
X60186Y-40323D01*
X60112Y-40502D01*
X60112Y-40535D01*
X58338Y-38761D01*
X58251Y-38703D01*
X58150Y-38683D01*
X55700Y-38683D01*
X55598Y-38703D01*
X55511Y-38761D01*
X55285Y-38987D01*
X55228Y-38987D01*
X55094Y-39042D01*
X54992Y-39144D01*
X54937Y-39277D01*
X54937Y-39421D01*
X54992Y-39555D01*
X55094Y-39657D01*
X55227Y-39712D01*
X55371Y-39712D01*
X55505Y-39657D01*
X55607Y-39555D01*
X55662Y-39422D01*
X55662Y-39364D01*
X55810Y-39216D01*
X58039Y-39216D01*
X58208Y-39385D01*
X58177Y-39384D01*
X58043Y-39440D01*
X57940Y-39542D01*
X57885Y-39677D01*
X57884Y-39822D01*
X57940Y-39956D01*
X58042Y-40059D01*
X58177Y-40114D01*
X58238Y-40114D01*
X58658Y-40535D01*
X58577Y-40534D01*
X58443Y-40590D01*
X58400Y-40633D01*
X51410Y-40633D01*
X49664Y-38888D01*
X49665Y-38827D01*
X49609Y-38693D01*
X49582Y-38666D01*
X50900Y-38666D01*
X50942Y-38709D01*
X51077Y-38764D01*
X51222Y-38765D01*
X51356Y-38709D01*
X51459Y-38607D01*
X51476Y-38566D01*
X58239Y-38566D01*
X59461Y-39788D01*
X59548Y-39846D01*
X59650Y-39866D01*
X59751Y-39846D01*
X59764Y-39837D01*
X60170Y-39837D01*
X60186Y-39875D01*
X60323Y-40013D01*
X60502Y-40087D01*
X60696Y-40087D01*
X60875Y-40013D01*
X61013Y-39876D01*
X61063Y-39755D01*
X61118Y-39887D01*
X61214Y-39915D01*
X61529Y-39600D01*
X61214Y-39284D01*
X61118Y-39312D01*
X61067Y-39454D01*
X61013Y-39324D01*
X60876Y-39186D01*
X60697Y-39112D01*
X60503Y-39112D01*
X60324Y-39186D01*
X60186Y-39323D01*
X60170Y-39362D01*
X59789Y-39362D01*
X58538Y-38111D01*
X58451Y-38053D01*
X58350Y-38033D01*
X55043Y-38033D01*
X55510Y-37566D01*
X56300Y-37566D01*
X56342Y-37609D01*
X56477Y-37664D01*
X56622Y-37665D01*
X56756Y-37609D01*
X56799Y-37566D01*
X60189Y-37566D01*
X60735Y-38112D01*
X60262Y-38112D01*
X60193Y-38140D01*
X60140Y-38193D01*
X60112Y-38262D01*
X60112Y-38333D01*
X59910Y-38333D01*
X59564Y-37988D01*
X59565Y-37927D01*
X59509Y-37793D01*
X59407Y-37690D01*
X59272Y-37635D01*
X59127Y-37634D01*
X58993Y-37690D01*
X58890Y-37792D01*
X58835Y-37927D01*
X58834Y-38072D01*
X58890Y-38206D01*
X58992Y-38309D01*
X59127Y-38364D01*
X59188Y-38364D01*
X59611Y-38788D01*
X59611Y-38788D01*
X59654Y-38817D01*
X59698Y-38846D01*
X59698Y-38846D01*
X59800Y-38866D01*
X60112Y-38866D01*
X60112Y-38937D01*
X60140Y-39006D01*
X60193Y-39059D01*
X60262Y-39087D01*
X60337Y-39087D01*
X60937Y-39087D01*
X61006Y-39059D01*
X61059Y-39006D01*
X61087Y-38937D01*
X61087Y-38862D01*
X61087Y-38464D01*
X61116Y-38493D01*
X61112Y-38502D01*
X61112Y-38696D01*
X61186Y-38875D01*
X61323Y-39013D01*
X61444Y-39063D01*
X61312Y-39118D01*
X61284Y-39214D01*
X61600Y-39529D01*
X61915Y-39214D01*
X61887Y-39118D01*
X61745Y-39067D01*
X61875Y-39013D01*
X62013Y-38876D01*
X62087Y-38697D01*
X62087Y-38503D01*
X62087Y-39328D01*
X62081Y-39312D01*
X61985Y-39284D01*
X61670Y-39600D01*
X61985Y-39915D01*
X62081Y-39887D01*
X62154Y-39681D01*
X62154Y-40681D01*
X62143Y-40463D01*
X62081Y-40312D01*
X61985Y-40284D01*
X61915Y-40355D01*
X61915Y-40214D01*
X61887Y-40118D01*
X61839Y-40101D01*
X61887Y-40081D01*
X61915Y-39985D01*
X61600Y-39670D01*
X61284Y-39985D01*
X61312Y-40081D01*
X61360Y-40098D01*
X61312Y-40118D01*
X61284Y-40214D01*
X61600Y-40529D01*
X61915Y-40214D01*
X61915Y-40355D01*
X61670Y-40600D01*
X61985Y-40915D01*
X62081Y-40887D01*
X62154Y-40681D01*
X62154Y-43732D01*
X62087Y-43732D01*
X62087Y-43003D01*
X62013Y-42824D01*
X61915Y-42725D01*
X61915Y-40985D01*
X61600Y-40670D01*
X61284Y-40985D01*
X61312Y-41081D01*
X61518Y-41154D01*
X61736Y-41143D01*
X61887Y-41081D01*
X61915Y-40985D01*
X61915Y-42725D01*
X61876Y-42686D01*
X61697Y-42612D01*
X61503Y-42612D01*
X61324Y-42686D01*
X61186Y-42823D01*
X61112Y-43002D01*
X61112Y-43196D01*
X61186Y-43375D01*
X61323Y-43513D01*
X61502Y-43587D01*
X61696Y-43587D01*
X61875Y-43513D01*
X62013Y-43376D01*
X62087Y-43197D01*
X62087Y-43003D01*
X62087Y-43732D01*
X58915Y-43732D01*
X58915Y-43485D01*
X58600Y-43170D01*
X58529Y-43241D01*
X58529Y-43100D01*
X58214Y-42784D01*
X58118Y-42812D01*
X58067Y-42954D01*
X58013Y-42824D01*
X57876Y-42686D01*
X57697Y-42612D01*
X57503Y-42612D01*
X57324Y-42686D01*
X57186Y-42823D01*
X57112Y-43002D01*
X57112Y-43196D01*
X57186Y-43375D01*
X57323Y-43513D01*
X57502Y-43587D01*
X57696Y-43587D01*
X57875Y-43513D01*
X58013Y-43376D01*
X58063Y-43255D01*
X58118Y-43387D01*
X58214Y-43415D01*
X58529Y-43100D01*
X58529Y-43241D01*
X58284Y-43485D01*
X58312Y-43581D01*
X58518Y-43654D01*
X58736Y-43643D01*
X58887Y-43581D01*
X58915Y-43485D01*
X58915Y-43732D01*
X57087Y-43732D01*
X57087Y-43362D01*
X57087Y-42762D01*
X57059Y-42693D01*
X57006Y-42640D01*
X56937Y-42612D01*
X56862Y-42612D01*
X56262Y-42612D01*
X56193Y-42640D01*
X56140Y-42693D01*
X56112Y-42762D01*
X56112Y-42837D01*
X56112Y-43437D01*
X56140Y-43506D01*
X56193Y-43559D01*
X56262Y-43587D01*
X56337Y-43587D01*
X56937Y-43587D01*
X57006Y-43559D01*
X57059Y-43506D01*
X57087Y-43437D01*
X57087Y-43362D01*
X57087Y-43732D01*
X55358Y-43732D01*
X55358Y-42688D01*
X53915Y-42688D01*
X53915Y-42127D01*
X53859Y-41993D01*
X53757Y-41890D01*
X53622Y-41835D01*
X53477Y-41834D01*
X53343Y-41890D01*
X53250Y-41983D01*
X47450Y-41983D01*
X47348Y-42003D01*
X47261Y-42061D01*
X46706Y-42616D01*
X46697Y-42612D01*
X46503Y-42612D01*
X46324Y-42686D01*
X46186Y-42823D01*
X46112Y-43002D01*
X46112Y-43196D01*
X46186Y-43375D01*
X46323Y-43513D01*
X46502Y-43587D01*
X46696Y-43587D01*
X46875Y-43513D01*
X47013Y-43376D01*
X47063Y-43255D01*
X47118Y-43387D01*
X47214Y-43415D01*
X47529Y-43100D01*
X47523Y-43094D01*
X47594Y-43023D01*
X47600Y-43029D01*
X47915Y-42714D01*
X47887Y-42618D01*
X47681Y-42545D01*
X47523Y-42553D01*
X47560Y-42516D01*
X53360Y-42516D01*
X53477Y-42564D01*
X53622Y-42565D01*
X53756Y-42509D01*
X53859Y-42407D01*
X53914Y-42272D01*
X53915Y-42127D01*
X53915Y-42688D01*
X51941Y-42688D01*
X51941Y-43732D01*
X51087Y-43732D01*
X51087Y-43003D01*
X51013Y-42824D01*
X50876Y-42686D01*
X50697Y-42612D01*
X50503Y-42612D01*
X50324Y-42686D01*
X50186Y-42823D01*
X50112Y-43002D01*
X50112Y-43196D01*
X50186Y-43375D01*
X50323Y-43513D01*
X50502Y-43587D01*
X50696Y-43587D01*
X50875Y-43513D01*
X51013Y-43376D01*
X51087Y-43197D01*
X51087Y-43003D01*
X51087Y-43732D01*
X50087Y-43732D01*
X50087Y-43003D01*
X50013Y-42824D01*
X49876Y-42686D01*
X49697Y-42612D01*
X49503Y-42612D01*
X49324Y-42686D01*
X49186Y-42823D01*
X49112Y-43002D01*
X49112Y-43196D01*
X49186Y-43375D01*
X49323Y-43513D01*
X49502Y-43587D01*
X49696Y-43587D01*
X49875Y-43513D01*
X50013Y-43376D01*
X50087Y-43197D01*
X50087Y-43003D01*
X50087Y-43732D01*
X49087Y-43732D01*
X49087Y-43003D01*
X49013Y-42824D01*
X48876Y-42686D01*
X48697Y-42612D01*
X48503Y-42612D01*
X48324Y-42686D01*
X48186Y-42823D01*
X48136Y-42944D01*
X48081Y-42812D01*
X47985Y-42784D01*
X47670Y-43100D01*
X47985Y-43415D01*
X48081Y-43387D01*
X48132Y-43245D01*
X48186Y-43375D01*
X48323Y-43513D01*
X48502Y-43587D01*
X48696Y-43587D01*
X48875Y-43513D01*
X49013Y-43376D01*
X49087Y-43197D01*
X49087Y-43003D01*
X49087Y-43732D01*
X47915Y-43732D01*
X47915Y-43485D01*
X47600Y-43170D01*
X47284Y-43485D01*
X47312Y-43581D01*
X47518Y-43654D01*
X47736Y-43643D01*
X47887Y-43581D01*
X47915Y-43485D01*
X47915Y-43732D01*
X46087Y-43732D01*
X46087Y-43362D01*
X46087Y-42762D01*
X46059Y-42693D01*
X46006Y-42640D01*
X45937Y-42612D01*
X45862Y-42612D01*
X45262Y-42612D01*
X45193Y-42640D01*
X45140Y-42693D01*
X45112Y-42762D01*
X45112Y-42837D01*
X45112Y-43437D01*
X45140Y-43506D01*
X45193Y-43559D01*
X45262Y-43587D01*
X45337Y-43587D01*
X45937Y-43587D01*
X46006Y-43559D01*
X46059Y-43506D01*
X46087Y-43437D01*
X46087Y-43362D01*
X46087Y-43732D01*
X44767Y-43732D01*
X44767Y-35517D01*
X62698Y-35517D01*
X62698Y-43732D01*
X62698Y-43732D01*
G37*
G54D18*
X62698Y-43732D02*
X62154Y-43732D01*
X62154Y-40681D01*
X62154Y-39681D01*
X62143Y-39463D01*
X62087Y-39328D01*
X62087Y-38503D01*
X62087Y-38503D01*
X62087Y-36362D01*
X62087Y-35762D01*
X62059Y-35693D01*
X62006Y-35640D01*
X61937Y-35612D01*
X61862Y-35612D01*
X61262Y-35612D01*
X61193Y-35640D01*
X61140Y-35693D01*
X61112Y-35762D01*
X61112Y-35837D01*
X61112Y-36437D01*
X61140Y-36506D01*
X61193Y-36559D01*
X61262Y-36587D01*
X61337Y-36587D01*
X61937Y-36587D01*
X62006Y-36559D01*
X62059Y-36506D01*
X62087Y-36437D01*
X62087Y-36362D01*
X62087Y-38503D01*
X62013Y-38324D01*
X61876Y-38186D01*
X61697Y-38112D01*
X61503Y-38112D01*
X61493Y-38116D01*
X60488Y-37111D01*
X60433Y-37075D01*
X60433Y-37074D01*
X60488Y-37038D01*
X60788Y-36738D01*
X60788Y-36738D01*
X60846Y-36651D01*
X60866Y-36550D01*
X60866Y-36550D01*
X60866Y-36517D01*
X60875Y-36513D01*
X61013Y-36376D01*
X61087Y-36197D01*
X61087Y-36003D01*
X61013Y-35824D01*
X60876Y-35686D01*
X60697Y-35612D01*
X60503Y-35612D01*
X60324Y-35686D01*
X60186Y-35823D01*
X60136Y-35944D01*
X60081Y-35812D01*
X59985Y-35784D01*
X59915Y-35855D01*
X59915Y-35714D01*
X59887Y-35618D01*
X59681Y-35545D01*
X59463Y-35556D01*
X59312Y-35618D01*
X59284Y-35714D01*
X59600Y-36029D01*
X59915Y-35714D01*
X59915Y-35855D01*
X59670Y-36100D01*
X59985Y-36415D01*
X60081Y-36387D01*
X60132Y-36245D01*
X60186Y-36375D01*
X60291Y-36481D01*
X60189Y-36583D01*
X59882Y-36583D01*
X59887Y-36581D01*
X59915Y-36485D01*
X59600Y-36170D01*
X59284Y-36485D01*
X59312Y-36581D01*
X59318Y-36583D01*
X58707Y-36583D01*
X58875Y-36513D01*
X59013Y-36376D01*
X59063Y-36255D01*
X59118Y-36387D01*
X59214Y-36415D01*
X59529Y-36100D01*
X59214Y-35784D01*
X59118Y-35812D01*
X59067Y-35954D01*
X59013Y-35824D01*
X58876Y-35686D01*
X58697Y-35612D01*
X58503Y-35612D01*
X58324Y-35686D01*
X58186Y-35823D01*
X58112Y-36002D01*
X58112Y-36196D01*
X58186Y-36375D01*
X58323Y-36513D01*
X58492Y-36583D01*
X57707Y-36583D01*
X57875Y-36513D01*
X58013Y-36376D01*
X58087Y-36197D01*
X58087Y-36003D01*
X58013Y-35824D01*
X57876Y-35686D01*
X57697Y-35612D01*
X57503Y-35612D01*
X57324Y-35686D01*
X57186Y-35823D01*
X57112Y-36002D01*
X57112Y-36196D01*
X57186Y-36375D01*
X57323Y-36513D01*
X57492Y-36583D01*
X56707Y-36583D01*
X56875Y-36513D01*
X57013Y-36376D01*
X57087Y-36197D01*
X57087Y-36003D01*
X57013Y-35824D01*
X56876Y-35686D01*
X56697Y-35612D01*
X56503Y-35612D01*
X56324Y-35686D01*
X56186Y-35823D01*
X56112Y-36002D01*
X56112Y-36196D01*
X56186Y-36375D01*
X56323Y-36513D01*
X56492Y-36583D01*
X55250Y-36583D01*
X55148Y-36603D01*
X55061Y-36661D01*
X54389Y-37333D01*
X54100Y-37333D01*
X54154Y-37181D01*
X54143Y-36963D01*
X54081Y-36812D01*
X53985Y-36784D01*
X53984Y-36785D01*
X53984Y-35973D01*
X53926Y-35832D01*
X53818Y-35724D01*
X53676Y-35665D01*
X53523Y-35665D01*
X53382Y-35723D01*
X53274Y-35831D01*
X53215Y-35973D01*
X53215Y-36126D01*
X53273Y-36267D01*
X53381Y-36375D01*
X53523Y-36434D01*
X53676Y-36434D01*
X53817Y-36376D01*
X53925Y-36268D01*
X53984Y-36126D01*
X53984Y-35973D01*
X53984Y-36785D01*
X53915Y-36855D01*
X53915Y-36714D01*
X53887Y-36618D01*
X53681Y-36545D01*
X53463Y-36556D01*
X53312Y-36618D01*
X53284Y-36714D01*
X53600Y-37029D01*
X53915Y-36714D01*
X53915Y-36855D01*
X53670Y-37100D01*
X53676Y-37105D01*
X53605Y-37176D01*
X53600Y-37170D01*
X53594Y-37176D01*
X53523Y-37105D01*
X53529Y-37100D01*
X53214Y-36784D01*
X53118Y-36812D01*
X53087Y-36898D01*
X53087Y-36762D01*
X53059Y-36693D01*
X53006Y-36640D01*
X52984Y-36631D01*
X52984Y-35973D01*
X52926Y-35832D01*
X52818Y-35724D01*
X52676Y-35665D01*
X52523Y-35665D01*
X52382Y-35723D01*
X52274Y-35831D01*
X52215Y-35973D01*
X52215Y-36126D01*
X52273Y-36267D01*
X52381Y-36375D01*
X52523Y-36434D01*
X52676Y-36434D01*
X52817Y-36376D01*
X52925Y-36268D01*
X52984Y-36126D01*
X52984Y-35973D01*
X52984Y-36631D01*
X52937Y-36612D01*
X52862Y-36612D01*
X52262Y-36612D01*
X52193Y-36640D01*
X52140Y-36693D01*
X52112Y-36762D01*
X52112Y-36837D01*
X52112Y-37333D01*
X51849Y-37333D01*
X51807Y-37290D01*
X51672Y-37235D01*
X51527Y-37234D01*
X51393Y-37290D01*
X51290Y-37392D01*
X51235Y-37527D01*
X51234Y-37672D01*
X51239Y-37683D01*
X51087Y-37683D01*
X51087Y-36362D01*
X51087Y-35762D01*
X51059Y-35693D01*
X51006Y-35640D01*
X50937Y-35612D01*
X50862Y-35612D01*
X50262Y-35612D01*
X50193Y-35640D01*
X50140Y-35693D01*
X50112Y-35762D01*
X50112Y-35837D01*
X50112Y-36437D01*
X50140Y-36506D01*
X50193Y-36559D01*
X50262Y-36587D01*
X50337Y-36587D01*
X50937Y-36587D01*
X51006Y-36559D01*
X51059Y-36506D01*
X51087Y-36437D01*
X51087Y-36362D01*
X51087Y-37683D01*
X49582Y-37683D01*
X49609Y-37657D01*
X49664Y-37522D01*
X49665Y-37377D01*
X49609Y-37243D01*
X49566Y-37200D01*
X49566Y-37110D01*
X49788Y-36888D01*
X49788Y-36888D01*
X49846Y-36801D01*
X49866Y-36700D01*
X49866Y-36700D01*
X49866Y-36517D01*
X49875Y-36513D01*
X50013Y-36376D01*
X50087Y-36197D01*
X50087Y-36003D01*
X50013Y-35824D01*
X49876Y-35686D01*
X49697Y-35612D01*
X49503Y-35612D01*
X49324Y-35686D01*
X49186Y-35823D01*
X49136Y-35944D01*
X49081Y-35812D01*
X48985Y-35784D01*
X48915Y-35855D01*
X48915Y-35714D01*
X48887Y-35618D01*
X48681Y-35545D01*
X48463Y-35556D01*
X48312Y-35618D01*
X48284Y-35714D01*
X48600Y-36029D01*
X48915Y-35714D01*
X48915Y-35855D01*
X48670Y-36100D01*
X48985Y-36415D01*
X49081Y-36387D01*
X49132Y-36245D01*
X49186Y-36375D01*
X49323Y-36513D01*
X49333Y-36517D01*
X49333Y-36589D01*
X49111Y-36811D01*
X49053Y-36898D01*
X49033Y-37000D01*
X49033Y-37200D01*
X48990Y-37242D01*
X48935Y-37377D01*
X48934Y-37522D01*
X48990Y-37656D01*
X49017Y-37683D01*
X48915Y-37683D01*
X48915Y-36485D01*
X48600Y-36170D01*
X48529Y-36241D01*
X48529Y-36100D01*
X48214Y-35784D01*
X48118Y-35812D01*
X48067Y-35954D01*
X48013Y-35824D01*
X47876Y-35686D01*
X47697Y-35612D01*
X47503Y-35612D01*
X47324Y-35686D01*
X47186Y-35823D01*
X47112Y-36002D01*
X47112Y-36196D01*
X47186Y-36375D01*
X47323Y-36513D01*
X47502Y-36587D01*
X47696Y-36587D01*
X47875Y-36513D01*
X48013Y-36376D01*
X48063Y-36255D01*
X48118Y-36387D01*
X48214Y-36415D01*
X48529Y-36100D01*
X48529Y-36241D01*
X48284Y-36485D01*
X48312Y-36581D01*
X48518Y-36654D01*
X48736Y-36643D01*
X48887Y-36581D01*
X48915Y-36485D01*
X48915Y-37683D01*
X47087Y-37683D01*
X47087Y-36003D01*
X47013Y-35824D01*
X46876Y-35686D01*
X46697Y-35612D01*
X46503Y-35612D01*
X46324Y-35686D01*
X46186Y-35823D01*
X46112Y-36002D01*
X46112Y-36196D01*
X46186Y-36375D01*
X46323Y-36513D01*
X46502Y-36587D01*
X46696Y-36587D01*
X46875Y-36513D01*
X47013Y-36376D01*
X47087Y-36197D01*
X47087Y-36003D01*
X47087Y-37683D01*
X46500Y-37683D01*
X46398Y-37703D01*
X46354Y-37732D01*
X46311Y-37761D01*
X46087Y-37985D01*
X46087Y-36003D01*
X46013Y-35824D01*
X45876Y-35686D01*
X45697Y-35612D01*
X45503Y-35612D01*
X45324Y-35686D01*
X45186Y-35823D01*
X45112Y-36002D01*
X45112Y-36196D01*
X45186Y-36375D01*
X45323Y-36513D01*
X45502Y-36587D01*
X45696Y-36587D01*
X45875Y-36513D01*
X46013Y-36376D01*
X46087Y-36197D01*
X46087Y-36003D01*
X46087Y-37985D01*
X44961Y-39111D01*
X44903Y-39198D01*
X44883Y-39300D01*
X44883Y-40400D01*
X44840Y-40442D01*
X44785Y-40577D01*
X44784Y-40722D01*
X44840Y-40856D01*
X44942Y-40959D01*
X45077Y-41014D01*
X45222Y-41015D01*
X45356Y-40959D01*
X45459Y-40857D01*
X45514Y-40722D01*
X45515Y-40577D01*
X45459Y-40443D01*
X45416Y-40400D01*
X45416Y-39410D01*
X46610Y-38216D01*
X47356Y-38216D01*
X46385Y-39187D01*
X46328Y-39187D01*
X46194Y-39242D01*
X46092Y-39344D01*
X46037Y-39477D01*
X46037Y-39621D01*
X46092Y-39755D01*
X46194Y-39857D01*
X46327Y-39912D01*
X46471Y-39912D01*
X46605Y-39857D01*
X46707Y-39755D01*
X46762Y-39622D01*
X46762Y-39564D01*
X47660Y-38666D01*
X49017Y-38666D01*
X48990Y-38692D01*
X48935Y-38827D01*
X48934Y-38972D01*
X48990Y-39106D01*
X49092Y-39209D01*
X49227Y-39264D01*
X49288Y-39264D01*
X51111Y-41088D01*
X51111Y-41088D01*
X51198Y-41146D01*
X51299Y-41166D01*
X51300Y-41166D01*
X58400Y-41166D01*
X58442Y-41209D01*
X58577Y-41264D01*
X58722Y-41265D01*
X58856Y-41209D01*
X58959Y-41107D01*
X59014Y-40972D01*
X59014Y-40891D01*
X59333Y-41210D01*
X59333Y-42682D01*
X59324Y-42686D01*
X59186Y-42823D01*
X59136Y-42944D01*
X59081Y-42812D01*
X58985Y-42784D01*
X58915Y-42855D01*
X58915Y-42714D01*
X58887Y-42618D01*
X58681Y-42545D01*
X58463Y-42556D01*
X58312Y-42618D01*
X58284Y-42714D01*
X58600Y-43029D01*
X58915Y-42714D01*
X58915Y-42855D01*
X58670Y-43100D01*
X58985Y-43415D01*
X59081Y-43387D01*
X59132Y-43245D01*
X59186Y-43375D01*
X59323Y-43513D01*
X59502Y-43587D01*
X59696Y-43587D01*
X59875Y-43513D01*
X60013Y-43376D01*
X60087Y-43197D01*
X60087Y-43003D01*
X60013Y-42824D01*
X59876Y-42686D01*
X59866Y-42682D01*
X59866Y-42493D01*
X60191Y-42818D01*
X60186Y-42823D01*
X60112Y-43002D01*
X60112Y-43196D01*
X60186Y-43375D01*
X60323Y-43513D01*
X60502Y-43587D01*
X60696Y-43587D01*
X60875Y-43513D01*
X61013Y-43376D01*
X61087Y-43197D01*
X61087Y-43003D01*
X61013Y-42824D01*
X60876Y-42686D01*
X60768Y-42641D01*
X60266Y-42139D01*
X60266Y-40956D01*
X60323Y-41013D01*
X60502Y-41087D01*
X60696Y-41087D01*
X60875Y-41013D01*
X61013Y-40876D01*
X61063Y-40755D01*
X61118Y-40887D01*
X61214Y-40915D01*
X61529Y-40600D01*
X61214Y-40284D01*
X61118Y-40312D01*
X61067Y-40454D01*
X61013Y-40324D01*
X60876Y-40186D01*
X60697Y-40112D01*
X60503Y-40112D01*
X60324Y-40186D01*
X60186Y-40323D01*
X60112Y-40502D01*
X60112Y-40535D01*
X58338Y-38761D01*
X58251Y-38703D01*
X58150Y-38683D01*
X55700Y-38683D01*
X55598Y-38703D01*
X55511Y-38761D01*
X55285Y-38987D01*
X55228Y-38987D01*
X55094Y-39042D01*
X54992Y-39144D01*
X54937Y-39277D01*
X54937Y-39421D01*
X54992Y-39555D01*
X55094Y-39657D01*
X55227Y-39712D01*
X55371Y-39712D01*
X55505Y-39657D01*
X55607Y-39555D01*
X55662Y-39422D01*
X55662Y-39364D01*
X55810Y-39216D01*
X58039Y-39216D01*
X58208Y-39385D01*
X58177Y-39384D01*
X58043Y-39440D01*
X57940Y-39542D01*
X57885Y-39677D01*
X57884Y-39822D01*
X57940Y-39956D01*
X58042Y-40059D01*
X58177Y-40114D01*
X58238Y-40114D01*
X58658Y-40535D01*
X58577Y-40534D01*
X58443Y-40590D01*
X58400Y-40633D01*
X51410Y-40633D01*
X49664Y-38888D01*
X49665Y-38827D01*
X49609Y-38693D01*
X49582Y-38666D01*
X50900Y-38666D01*
X50942Y-38709D01*
X51077Y-38764D01*
X51222Y-38765D01*
X51356Y-38709D01*
X51459Y-38607D01*
X51476Y-38566D01*
X58239Y-38566D01*
X59461Y-39788D01*
X59548Y-39846D01*
X59650Y-39866D01*
X59751Y-39846D01*
X59764Y-39837D01*
X60170Y-39837D01*
X60186Y-39875D01*
X60323Y-40013D01*
X60502Y-40087D01*
X60696Y-40087D01*
X60875Y-40013D01*
X61013Y-39876D01*
X61063Y-39755D01*
X61118Y-39887D01*
X61214Y-39915D01*
X61529Y-39600D01*
X61214Y-39284D01*
X61118Y-39312D01*
X61067Y-39454D01*
X61013Y-39324D01*
X60876Y-39186D01*
X60697Y-39112D01*
X60503Y-39112D01*
X60324Y-39186D01*
X60186Y-39323D01*
X60170Y-39362D01*
X59789Y-39362D01*
X58538Y-38111D01*
X58451Y-38053D01*
X58350Y-38033D01*
X55043Y-38033D01*
X55510Y-37566D01*
X56300Y-37566D01*
X56342Y-37609D01*
X56477Y-37664D01*
X56622Y-37665D01*
X56756Y-37609D01*
X56799Y-37566D01*
X60189Y-37566D01*
X60735Y-38112D01*
X60262Y-38112D01*
X60193Y-38140D01*
X60140Y-38193D01*
X60112Y-38262D01*
X60112Y-38333D01*
X59910Y-38333D01*
X59564Y-37988D01*
X59565Y-37927D01*
X59509Y-37793D01*
X59407Y-37690D01*
X59272Y-37635D01*
X59127Y-37634D01*
X58993Y-37690D01*
X58890Y-37792D01*
X58835Y-37927D01*
X58834Y-38072D01*
X58890Y-38206D01*
X58992Y-38309D01*
X59127Y-38364D01*
X59188Y-38364D01*
X59611Y-38788D01*
X59611Y-38788D01*
X59654Y-38817D01*
X59698Y-38846D01*
X59698Y-38846D01*
X59800Y-38866D01*
X60112Y-38866D01*
X60112Y-38937D01*
X60140Y-39006D01*
X60193Y-39059D01*
X60262Y-39087D01*
X60337Y-39087D01*
X60937Y-39087D01*
X61006Y-39059D01*
X61059Y-39006D01*
X61087Y-38937D01*
X61087Y-38862D01*
X61087Y-38464D01*
X61116Y-38493D01*
X61112Y-38502D01*
X61112Y-38696D01*
X61186Y-38875D01*
X61323Y-39013D01*
X61444Y-39063D01*
X61312Y-39118D01*
X61284Y-39214D01*
X61600Y-39529D01*
X61915Y-39214D01*
X61887Y-39118D01*
X61745Y-39067D01*
X61875Y-39013D01*
X62013Y-38876D01*
X62087Y-38697D01*
X62087Y-38503D01*
X62087Y-39328D01*
X62081Y-39312D01*
X61985Y-39284D01*
X61670Y-39600D01*
X61985Y-39915D01*
X62081Y-39887D01*
X62154Y-39681D01*
X62154Y-40681D01*
X62143Y-40463D01*
X62081Y-40312D01*
X61985Y-40284D01*
X61915Y-40355D01*
X61915Y-40214D01*
X61887Y-40118D01*
X61839Y-40101D01*
X61887Y-40081D01*
X61915Y-39985D01*
X61600Y-39670D01*
X61284Y-39985D01*
X61312Y-40081D01*
X61360Y-40098D01*
X61312Y-40118D01*
X61284Y-40214D01*
X61600Y-40529D01*
X61915Y-40214D01*
X61915Y-40355D01*
X61670Y-40600D01*
X61985Y-40915D01*
X62081Y-40887D01*
X62154Y-40681D01*
X62154Y-43732D01*
X62087Y-43732D01*
X62087Y-43003D01*
X62013Y-42824D01*
X61915Y-42725D01*
X61915Y-40985D01*
X61600Y-40670D01*
X61284Y-40985D01*
X61312Y-41081D01*
X61518Y-41154D01*
X61736Y-41143D01*
X61887Y-41081D01*
X61915Y-40985D01*
X61915Y-42725D01*
X61876Y-42686D01*
X61697Y-42612D01*
X61503Y-42612D01*
X61324Y-42686D01*
X61186Y-42823D01*
X61112Y-43002D01*
X61112Y-43196D01*
X61186Y-43375D01*
X61323Y-43513D01*
X61502Y-43587D01*
X61696Y-43587D01*
X61875Y-43513D01*
X62013Y-43376D01*
X62087Y-43197D01*
X62087Y-43003D01*
X62087Y-43732D01*
X58915Y-43732D01*
X58915Y-43485D01*
X58600Y-43170D01*
X58529Y-43241D01*
X58529Y-43100D01*
X58214Y-42784D01*
X58118Y-42812D01*
X58067Y-42954D01*
X58013Y-42824D01*
X57876Y-42686D01*
X57697Y-42612D01*
X57503Y-42612D01*
X57324Y-42686D01*
X57186Y-42823D01*
X57112Y-43002D01*
X57112Y-43196D01*
X57186Y-43375D01*
X57323Y-43513D01*
X57502Y-43587D01*
X57696Y-43587D01*
X57875Y-43513D01*
X58013Y-43376D01*
X58063Y-43255D01*
X58118Y-43387D01*
X58214Y-43415D01*
X58529Y-43100D01*
X58529Y-43241D01*
X58284Y-43485D01*
X58312Y-43581D01*
X58518Y-43654D01*
X58736Y-43643D01*
X58887Y-43581D01*
X58915Y-43485D01*
X58915Y-43732D01*
X57087Y-43732D01*
X57087Y-43362D01*
X57087Y-42762D01*
X57059Y-42693D01*
X57006Y-42640D01*
X56937Y-42612D01*
X56862Y-42612D01*
X56262Y-42612D01*
X56193Y-42640D01*
X56140Y-42693D01*
X56112Y-42762D01*
X56112Y-42837D01*
X56112Y-43437D01*
X56140Y-43506D01*
X56193Y-43559D01*
X56262Y-43587D01*
X56337Y-43587D01*
X56937Y-43587D01*
X57006Y-43559D01*
X57059Y-43506D01*
X57087Y-43437D01*
X57087Y-43362D01*
X57087Y-43732D01*
X55358Y-43732D01*
X55358Y-42688D01*
X53915Y-42688D01*
X53915Y-42127D01*
X53859Y-41993D01*
X53757Y-41890D01*
X53622Y-41835D01*
X53477Y-41834D01*
X53343Y-41890D01*
X53250Y-41983D01*
X47450Y-41983D01*
X47348Y-42003D01*
X47261Y-42061D01*
X46706Y-42616D01*
X46697Y-42612D01*
X46503Y-42612D01*
X46324Y-42686D01*
X46186Y-42823D01*
X46112Y-43002D01*
X46112Y-43196D01*
X46186Y-43375D01*
X46323Y-43513D01*
X46502Y-43587D01*
X46696Y-43587D01*
X46875Y-43513D01*
X47013Y-43376D01*
X47063Y-43255D01*
X47118Y-43387D01*
X47214Y-43415D01*
X47529Y-43100D01*
X47523Y-43094D01*
X47594Y-43023D01*
X47600Y-43029D01*
X47915Y-42714D01*
X47887Y-42618D01*
X47681Y-42545D01*
X47523Y-42553D01*
X47560Y-42516D01*
X53360Y-42516D01*
X53477Y-42564D01*
X53622Y-42565D01*
X53756Y-42509D01*
X53859Y-42407D01*
X53914Y-42272D01*
X53915Y-42127D01*
X53915Y-42688D01*
X51941Y-42688D01*
X51941Y-43732D01*
X51087Y-43732D01*
X51087Y-43003D01*
X51013Y-42824D01*
X50876Y-42686D01*
X50697Y-42612D01*
X50503Y-42612D01*
X50324Y-42686D01*
X50186Y-42823D01*
X50112Y-43002D01*
X50112Y-43196D01*
X50186Y-43375D01*
X50323Y-43513D01*
X50502Y-43587D01*
X50696Y-43587D01*
X50875Y-43513D01*
X51013Y-43376D01*
X51087Y-43197D01*
X51087Y-43003D01*
X51087Y-43732D01*
X50087Y-43732D01*
X50087Y-43003D01*
X50013Y-42824D01*
X49876Y-42686D01*
X49697Y-42612D01*
X49503Y-42612D01*
X49324Y-42686D01*
X49186Y-42823D01*
X49112Y-43002D01*
X49112Y-43196D01*
X49186Y-43375D01*
X49323Y-43513D01*
X49502Y-43587D01*
X49696Y-43587D01*
X49875Y-43513D01*
X50013Y-43376D01*
X50087Y-43197D01*
X50087Y-43003D01*
X50087Y-43732D01*
X49087Y-43732D01*
X49087Y-43003D01*
X49013Y-42824D01*
X48876Y-42686D01*
X48697Y-42612D01*
X48503Y-42612D01*
X48324Y-42686D01*
X48186Y-42823D01*
X48136Y-42944D01*
X48081Y-42812D01*
X47985Y-42784D01*
X47670Y-43100D01*
X47985Y-43415D01*
X48081Y-43387D01*
X48132Y-43245D01*
X48186Y-43375D01*
X48323Y-43513D01*
X48502Y-43587D01*
X48696Y-43587D01*
X48875Y-43513D01*
X49013Y-43376D01*
X49087Y-43197D01*
X49087Y-43003D01*
X49087Y-43732D01*
X47915Y-43732D01*
X47915Y-43485D01*
X47600Y-43170D01*
X47284Y-43485D01*
X47312Y-43581D01*
X47518Y-43654D01*
X47736Y-43643D01*
X47887Y-43581D01*
X47915Y-43485D01*
X47915Y-43732D01*
X46087Y-43732D01*
X46087Y-43362D01*
X46087Y-42762D01*
X46059Y-42693D01*
X46006Y-42640D01*
X45937Y-42612D01*
X45862Y-42612D01*
X45262Y-42612D01*
X45193Y-42640D01*
X45140Y-42693D01*
X45112Y-42762D01*
X45112Y-42837D01*
X45112Y-43437D01*
X45140Y-43506D01*
X45193Y-43559D01*
X45262Y-43587D01*
X45337Y-43587D01*
X45937Y-43587D01*
X46006Y-43559D01*
X46059Y-43506D01*
X46087Y-43437D01*
X46087Y-43362D01*
X46087Y-43732D01*
X44767Y-43732D01*
X44767Y-35517D01*
X62698Y-35517D01*
X62698Y-43732D01*
M02*
