G04 (created by PCBNEW (2013-05-31 BZR 4019)-stable) date 16/09/2013 19:50:50*
%MOIN*%
G04 Gerber Fmt 3.4, Leading zero omitted, Abs format*
%FSLAX34Y34*%
G01*
G70*
G90*
G04 APERTURE LIST*
%ADD10C,0.00590551*%
%ADD11R,0.025X0.05*%
%ADD12R,0.11X0.07*%
%ADD13R,0.055X0.035*%
%ADD14R,0.035X0.055*%
%ADD15R,0.03X0.02*%
%ADD16R,0.08X0.06*%
%ADD17R,0.06X0.08*%
%ADD18R,0.0394X0.0315*%
%ADD19R,0.0472X0.0472*%
%ADD20R,0.0315X0.0394*%
%ADD21R,0.05X0.1*%
G04 APERTURE END LIST*
G54D10*
G54D11*
X52850Y-43327D03*
X53350Y-43327D03*
X53850Y-43327D03*
X54350Y-43327D03*
X53850Y-41075D03*
X54350Y-41075D03*
X53350Y-41075D03*
X52850Y-41075D03*
G54D12*
X57200Y-41700D03*
X57200Y-40300D03*
G54D13*
X57750Y-39175D03*
X57750Y-38425D03*
X56850Y-38425D03*
X56850Y-39175D03*
G54D14*
X57225Y-37300D03*
X57975Y-37300D03*
X58825Y-37300D03*
X59575Y-37300D03*
G54D13*
X54100Y-39375D03*
X54100Y-38625D03*
G54D15*
X47250Y-39625D03*
X47250Y-40375D03*
X48250Y-39625D03*
X47250Y-40000D03*
X48250Y-40375D03*
G54D14*
X47575Y-41500D03*
X46825Y-41500D03*
G54D16*
X55250Y-37150D03*
X55250Y-38450D03*
G54D13*
X52050Y-39375D03*
X52050Y-38625D03*
G54D14*
X45975Y-41500D03*
X45225Y-41500D03*
G54D17*
X48500Y-41500D03*
X49800Y-41500D03*
G54D14*
X49175Y-40300D03*
X49925Y-40300D03*
G54D18*
X59483Y-38800D03*
X58617Y-39175D03*
X58617Y-38425D03*
G54D12*
X45650Y-38800D03*
X45650Y-37400D03*
G54D13*
X45700Y-40575D03*
X45700Y-39825D03*
X51050Y-39375D03*
X51050Y-40125D03*
X53100Y-38625D03*
X53100Y-39375D03*
X50050Y-39375D03*
X50050Y-38625D03*
G54D19*
X50187Y-37600D03*
X51013Y-37600D03*
G54D14*
X58925Y-40200D03*
X59675Y-40200D03*
G54D20*
X59250Y-41067D03*
X59625Y-41933D03*
X58875Y-41933D03*
G54D21*
X47350Y-38250D03*
X48550Y-38250D03*
M02*
