G04 (created by PCBNEW (2013-05-31 BZR 4019)-stable) date 16/09/2013 19:50:50*
%MOIN*%
G04 Gerber Fmt 3.4, Leading zero omitted, Abs format*
%FSLAX34Y34*%
G01*
G70*
G90*
G04 APERTURE LIST*
%ADD10C,0.00590551*%
%ADD11C,0.012*%
%ADD12C,0.005*%
%ADD13C,0.0025*%
%ADD14C,0.0039*%
%ADD15C,0.0031*%
%ADD16C,0.0026*%
%ADD17C,0.004*%
%ADD18C,0.002*%
%ADD19C,0.008*%
%ADD20C,0.006*%
%ADD21C,0.0035*%
%ADD22C,0.0043*%
%ADD23C,0.0047*%
G04 APERTURE END LIST*
G54D10*
G54D11*
X62100Y-35600D02*
X62100Y-36600D01*
X62100Y-36600D02*
X56100Y-36600D01*
X56100Y-36600D02*
X56100Y-35600D01*
X56100Y-35600D02*
X62100Y-35600D01*
X61100Y-35600D02*
X61100Y-36600D01*
X51100Y-35600D02*
X51100Y-36600D01*
X51100Y-36600D02*
X45100Y-36600D01*
X45100Y-36600D02*
X45100Y-35600D01*
X45100Y-35600D02*
X51100Y-35600D01*
X50100Y-35600D02*
X50100Y-36600D01*
X45100Y-43600D02*
X45100Y-42600D01*
X45100Y-42600D02*
X51100Y-42600D01*
X51100Y-42600D02*
X51100Y-43600D01*
X51100Y-43600D02*
X45100Y-43600D01*
X46100Y-43600D02*
X46100Y-42600D01*
X56100Y-43600D02*
X56100Y-42600D01*
X56100Y-42600D02*
X62100Y-42600D01*
X62100Y-42600D02*
X62100Y-43600D01*
X62100Y-43600D02*
X56100Y-43600D01*
X57100Y-43600D02*
X57100Y-42600D01*
G54D12*
X55098Y-41201D02*
X55098Y-43201D01*
X55098Y-43201D02*
X52101Y-43201D01*
X52101Y-43201D02*
X52101Y-41201D01*
X52101Y-41201D02*
X55098Y-41201D01*
X54621Y-42969D02*
X52857Y-42969D01*
X54621Y-41457D02*
X54369Y-41457D01*
X54621Y-41457D02*
X54621Y-42969D01*
X54621Y-41457D02*
X52857Y-41457D01*
X52857Y-41457D02*
X52857Y-41709D01*
X52857Y-42969D02*
X52857Y-42717D01*
X54369Y-41709D02*
X54117Y-41709D01*
X54117Y-41709D02*
X54117Y-42717D01*
X54117Y-42717D02*
X54369Y-42717D01*
X54369Y-42717D02*
X54369Y-41709D01*
G54D13*
X53254Y-42213D02*
G75*
G03X53254Y-42213I-397J0D01*
G74*
G01*
G54D12*
X56600Y-42100D02*
X57800Y-42100D01*
X57800Y-40650D02*
X57800Y-39900D01*
X57800Y-39900D02*
X56600Y-39900D01*
X56600Y-39900D02*
X56600Y-40650D01*
X56600Y-41300D02*
X56600Y-42100D01*
X56600Y-42021D02*
X57800Y-42021D01*
X57800Y-42100D02*
X57800Y-41300D01*
G54D14*
X58100Y-39450D02*
G75*
G03X58100Y-39450I-50J0D01*
G74*
G01*
X58050Y-39000D02*
X58050Y-39400D01*
X58050Y-39400D02*
X57450Y-39400D01*
X57450Y-39400D02*
X57450Y-39000D01*
X57450Y-38600D02*
X57450Y-38200D01*
X57450Y-38200D02*
X58050Y-38200D01*
X58050Y-38200D02*
X58050Y-38600D01*
X56600Y-38150D02*
G75*
G03X56600Y-38150I-50J0D01*
G74*
G01*
X56550Y-38600D02*
X56550Y-38200D01*
X56550Y-38200D02*
X57150Y-38200D01*
X57150Y-38200D02*
X57150Y-38600D01*
X57150Y-39000D02*
X57150Y-39400D01*
X57150Y-39400D02*
X56550Y-39400D01*
X56550Y-39400D02*
X56550Y-39000D01*
X57000Y-37600D02*
G75*
G03X57000Y-37600I-50J0D01*
G74*
G01*
X57400Y-37600D02*
X57000Y-37600D01*
X57000Y-37600D02*
X57000Y-37000D01*
X57000Y-37000D02*
X57400Y-37000D01*
X57800Y-37000D02*
X58200Y-37000D01*
X58200Y-37000D02*
X58200Y-37600D01*
X58200Y-37600D02*
X57800Y-37600D01*
X58600Y-37600D02*
G75*
G03X58600Y-37600I-50J0D01*
G74*
G01*
X59000Y-37600D02*
X58600Y-37600D01*
X58600Y-37600D02*
X58600Y-37000D01*
X58600Y-37000D02*
X59000Y-37000D01*
X59400Y-37000D02*
X59800Y-37000D01*
X59800Y-37000D02*
X59800Y-37600D01*
X59800Y-37600D02*
X59400Y-37600D01*
X54450Y-39650D02*
G75*
G03X54450Y-39650I-50J0D01*
G74*
G01*
X54400Y-39200D02*
X54400Y-39600D01*
X54400Y-39600D02*
X53800Y-39600D01*
X53800Y-39600D02*
X53800Y-39200D01*
X53800Y-38800D02*
X53800Y-38400D01*
X53800Y-38400D02*
X54400Y-38400D01*
X54400Y-38400D02*
X54400Y-38800D01*
G54D12*
X48100Y-40600D02*
X47400Y-40600D01*
X47400Y-40600D02*
X47400Y-39400D01*
X47400Y-39400D02*
X48100Y-39400D01*
X48100Y-39400D02*
X48100Y-40600D01*
G54D14*
X47900Y-41200D02*
G75*
G03X47900Y-41200I-50J0D01*
G74*
G01*
X47400Y-41200D02*
X47800Y-41200D01*
X47800Y-41200D02*
X47800Y-41800D01*
X47800Y-41800D02*
X47400Y-41800D01*
X47000Y-41800D02*
X46600Y-41800D01*
X46600Y-41800D02*
X46600Y-41200D01*
X46600Y-41200D02*
X47000Y-41200D01*
G54D12*
X55700Y-36800D02*
X54800Y-36800D01*
X54800Y-36800D02*
X54800Y-37450D01*
X55700Y-38150D02*
X55700Y-38800D01*
X55700Y-38800D02*
X54800Y-38800D01*
X54800Y-38800D02*
X54800Y-38150D01*
X55700Y-37450D02*
X55700Y-36800D01*
G54D14*
X52400Y-39650D02*
G75*
G03X52400Y-39650I-50J0D01*
G74*
G01*
X52350Y-39200D02*
X52350Y-39600D01*
X52350Y-39600D02*
X51750Y-39600D01*
X51750Y-39600D02*
X51750Y-39200D01*
X51750Y-38800D02*
X51750Y-38400D01*
X51750Y-38400D02*
X52350Y-38400D01*
X52350Y-38400D02*
X52350Y-38800D01*
X46300Y-41200D02*
G75*
G03X46300Y-41200I-50J0D01*
G74*
G01*
X45800Y-41200D02*
X46200Y-41200D01*
X46200Y-41200D02*
X46200Y-41800D01*
X46200Y-41800D02*
X45800Y-41800D01*
X45400Y-41800D02*
X45000Y-41800D01*
X45000Y-41800D02*
X45000Y-41200D01*
X45000Y-41200D02*
X45400Y-41200D01*
G54D12*
X48150Y-41050D02*
X48050Y-41050D01*
X48050Y-41050D02*
X48050Y-41950D01*
X48050Y-41950D02*
X48150Y-41950D01*
X48150Y-41050D02*
X48150Y-41950D01*
X48150Y-41950D02*
X48800Y-41950D01*
X49500Y-41050D02*
X50150Y-41050D01*
X50150Y-41050D02*
X50150Y-41950D01*
X50150Y-41950D02*
X49500Y-41950D01*
X48800Y-41050D02*
X48150Y-41050D01*
G54D14*
X48950Y-40600D02*
G75*
G03X48950Y-40600I-50J0D01*
G74*
G01*
X49350Y-40600D02*
X48950Y-40600D01*
X48950Y-40600D02*
X48950Y-40000D01*
X48950Y-40000D02*
X49350Y-40000D01*
X49750Y-40000D02*
X50150Y-40000D01*
X50150Y-40000D02*
X50150Y-40600D01*
X50150Y-40600D02*
X49750Y-40600D01*
G54D15*
X58974Y-38337D02*
G75*
G03X58974Y-38337I-62J0D01*
G74*
G01*
X59250Y-39300D02*
X58850Y-39300D01*
X59250Y-38275D02*
X58850Y-38275D01*
X58850Y-39300D02*
X58850Y-38275D01*
X59250Y-38275D02*
X59250Y-39300D01*
G54D12*
X45050Y-39200D02*
X46250Y-39200D01*
X46250Y-37750D02*
X46250Y-37000D01*
X46250Y-37000D02*
X45050Y-37000D01*
X45050Y-37000D02*
X45050Y-37750D01*
X45050Y-38400D02*
X45050Y-39200D01*
X45050Y-39121D02*
X46250Y-39121D01*
X46250Y-39200D02*
X46250Y-38400D01*
G54D14*
X46050Y-40850D02*
G75*
G03X46050Y-40850I-50J0D01*
G74*
G01*
X46000Y-40400D02*
X46000Y-40800D01*
X46000Y-40800D02*
X45400Y-40800D01*
X45400Y-40800D02*
X45400Y-40400D01*
X45400Y-40000D02*
X45400Y-39600D01*
X45400Y-39600D02*
X46000Y-39600D01*
X46000Y-39600D02*
X46000Y-40000D01*
X50800Y-39100D02*
G75*
G03X50800Y-39100I-50J0D01*
G74*
G01*
X50750Y-39550D02*
X50750Y-39150D01*
X50750Y-39150D02*
X51350Y-39150D01*
X51350Y-39150D02*
X51350Y-39550D01*
X51350Y-39950D02*
X51350Y-40350D01*
X51350Y-40350D02*
X50750Y-40350D01*
X50750Y-40350D02*
X50750Y-39950D01*
X52850Y-38350D02*
G75*
G03X52850Y-38350I-50J0D01*
G74*
G01*
X52800Y-38800D02*
X52800Y-38400D01*
X52800Y-38400D02*
X53400Y-38400D01*
X53400Y-38400D02*
X53400Y-38800D01*
X53400Y-39200D02*
X53400Y-39600D01*
X53400Y-39600D02*
X52800Y-39600D01*
X52800Y-39600D02*
X52800Y-39200D01*
X50400Y-39650D02*
G75*
G03X50400Y-39650I-50J0D01*
G74*
G01*
X50350Y-39200D02*
X50350Y-39600D01*
X50350Y-39600D02*
X49750Y-39600D01*
X49750Y-39600D02*
X49750Y-39200D01*
X49750Y-38800D02*
X49750Y-38400D01*
X49750Y-38400D02*
X50350Y-38400D01*
X50350Y-38400D02*
X50350Y-38800D01*
G54D16*
X50796Y-37718D02*
X50796Y-37846D01*
X50796Y-37846D02*
X50993Y-37846D01*
X50993Y-37718D02*
X50993Y-37846D01*
X50796Y-37718D02*
X50993Y-37718D01*
X50796Y-37473D02*
X50796Y-37532D01*
X50796Y-37532D02*
X50895Y-37532D01*
X50895Y-37473D02*
X50895Y-37532D01*
X50796Y-37473D02*
X50895Y-37473D01*
X50796Y-37668D02*
X50796Y-37727D01*
X50796Y-37727D02*
X50895Y-37727D01*
X50895Y-37668D02*
X50895Y-37727D01*
X50796Y-37668D02*
X50895Y-37668D01*
X50796Y-37522D02*
X50796Y-37678D01*
X50796Y-37678D02*
X50865Y-37678D01*
X50865Y-37522D02*
X50865Y-37678D01*
X50796Y-37522D02*
X50865Y-37522D01*
X50207Y-37718D02*
X50207Y-37846D01*
X50207Y-37846D02*
X50404Y-37846D01*
X50404Y-37718D02*
X50404Y-37846D01*
X50207Y-37718D02*
X50404Y-37718D01*
X50207Y-37354D02*
X50207Y-37482D01*
X50207Y-37482D02*
X50404Y-37482D01*
X50404Y-37354D02*
X50404Y-37482D01*
X50207Y-37354D02*
X50404Y-37354D01*
X50305Y-37668D02*
X50305Y-37727D01*
X50305Y-37727D02*
X50404Y-37727D01*
X50404Y-37668D02*
X50404Y-37727D01*
X50305Y-37668D02*
X50404Y-37668D01*
X50305Y-37473D02*
X50305Y-37532D01*
X50305Y-37532D02*
X50404Y-37532D01*
X50404Y-37473D02*
X50404Y-37532D01*
X50305Y-37473D02*
X50404Y-37473D01*
X50335Y-37522D02*
X50335Y-37678D01*
X50335Y-37678D02*
X50404Y-37678D01*
X50404Y-37522D02*
X50404Y-37678D01*
X50335Y-37522D02*
X50404Y-37522D01*
X50600Y-37561D02*
X50600Y-37639D01*
X50600Y-37639D02*
X50678Y-37639D01*
X50678Y-37561D02*
X50678Y-37639D01*
X50600Y-37561D02*
X50678Y-37561D01*
X50796Y-37364D02*
X50796Y-37482D01*
X50796Y-37482D02*
X50914Y-37482D01*
X50914Y-37364D02*
X50914Y-37482D01*
X50796Y-37364D02*
X50914Y-37364D01*
X50964Y-37354D02*
X50964Y-37443D01*
X50964Y-37443D02*
X50993Y-37443D01*
X50993Y-37354D02*
X50993Y-37443D01*
X50964Y-37354D02*
X50993Y-37354D01*
G54D17*
X50806Y-37826D02*
X50394Y-37826D01*
X50404Y-37374D02*
X50964Y-37374D01*
G54D18*
X50962Y-37423D02*
G75*
G03X50962Y-37423I-28J0D01*
G74*
G01*
G54D17*
X50993Y-37463D02*
G75*
G03X50993Y-37737I0J-137D01*
G74*
G01*
X50207Y-37737D02*
G75*
G03X50207Y-37463I0J137D01*
G74*
G01*
G54D14*
X58700Y-40500D02*
G75*
G03X58700Y-40500I-50J0D01*
G74*
G01*
X59100Y-40500D02*
X58700Y-40500D01*
X58700Y-40500D02*
X58700Y-39900D01*
X58700Y-39900D02*
X59100Y-39900D01*
X59500Y-39900D02*
X59900Y-39900D01*
X59900Y-39900D02*
X59900Y-40500D01*
X59900Y-40500D02*
X59500Y-40500D01*
G54D15*
X58849Y-41638D02*
G75*
G03X58849Y-41638I-62J0D01*
G74*
G01*
X59750Y-41300D02*
X59750Y-41700D01*
X58725Y-41300D02*
X58725Y-41700D01*
X59750Y-41700D02*
X58725Y-41700D01*
X58725Y-41300D02*
X59750Y-41300D01*
G54D19*
X60100Y-41100D02*
X60100Y-38100D01*
X62100Y-38100D02*
X62100Y-41100D01*
X62100Y-41100D02*
X60100Y-41100D01*
X60100Y-38100D02*
X62100Y-38100D01*
G54D20*
X52100Y-37600D02*
X52100Y-36600D01*
X52100Y-36600D02*
X54100Y-36600D01*
X54100Y-36600D02*
X54100Y-37600D01*
X54100Y-37600D02*
X52100Y-37600D01*
G54D12*
X47070Y-38850D02*
G75*
G03X47070Y-38850I-70J0D01*
G74*
G01*
X47650Y-37700D02*
X47050Y-37700D01*
X47050Y-37700D02*
X47050Y-38800D01*
X47050Y-38800D02*
X47650Y-38800D01*
X48250Y-38800D02*
X48850Y-38800D01*
X48850Y-38800D02*
X48850Y-37700D01*
X48850Y-37700D02*
X48250Y-37700D01*
G54D19*
X55254Y-36261D02*
X55254Y-35861D01*
X55407Y-35861D01*
X55445Y-35880D01*
X55464Y-35900D01*
X55483Y-35938D01*
X55483Y-35995D01*
X55464Y-36033D01*
X55445Y-36052D01*
X55407Y-36071D01*
X55254Y-36071D01*
X55864Y-36261D02*
X55635Y-36261D01*
X55750Y-36261D02*
X55750Y-35861D01*
X55711Y-35919D01*
X55673Y-35957D01*
X55635Y-35976D01*
X51404Y-36211D02*
X51404Y-35811D01*
X51557Y-35811D01*
X51595Y-35830D01*
X51614Y-35850D01*
X51633Y-35888D01*
X51633Y-35945D01*
X51614Y-35983D01*
X51595Y-36002D01*
X51557Y-36021D01*
X51404Y-36021D01*
X51785Y-35850D02*
X51804Y-35830D01*
X51842Y-35811D01*
X51938Y-35811D01*
X51976Y-35830D01*
X51995Y-35850D01*
X52014Y-35888D01*
X52014Y-35926D01*
X51995Y-35983D01*
X51766Y-36211D01*
X52014Y-36211D01*
X51304Y-43011D02*
X51304Y-42611D01*
X51457Y-42611D01*
X51495Y-42630D01*
X51514Y-42650D01*
X51533Y-42688D01*
X51533Y-42745D01*
X51514Y-42783D01*
X51495Y-42802D01*
X51457Y-42821D01*
X51304Y-42821D01*
X51666Y-42611D02*
X51914Y-42611D01*
X51780Y-42764D01*
X51838Y-42764D01*
X51876Y-42783D01*
X51895Y-42802D01*
X51914Y-42840D01*
X51914Y-42935D01*
X51895Y-42973D01*
X51876Y-42992D01*
X51838Y-43011D01*
X51723Y-43011D01*
X51685Y-42992D01*
X51666Y-42973D01*
X55304Y-43311D02*
X55304Y-42911D01*
X55457Y-42911D01*
X55495Y-42930D01*
X55514Y-42950D01*
X55533Y-42988D01*
X55533Y-43045D01*
X55514Y-43083D01*
X55495Y-43102D01*
X55457Y-43121D01*
X55304Y-43121D01*
X55876Y-43045D02*
X55876Y-43311D01*
X55780Y-42892D02*
X55685Y-43178D01*
X55933Y-43178D01*
G54D21*
X51619Y-40502D02*
X51619Y-40907D01*
X51642Y-40954D01*
X51666Y-40978D01*
X51714Y-41002D01*
X51809Y-41002D01*
X51857Y-40978D01*
X51880Y-40954D01*
X51904Y-40907D01*
X51904Y-40502D01*
X52119Y-40550D02*
X52142Y-40526D01*
X52190Y-40502D01*
X52309Y-40502D01*
X52357Y-40526D01*
X52380Y-40550D01*
X52404Y-40597D01*
X52404Y-40645D01*
X52380Y-40716D01*
X52095Y-41002D01*
X52404Y-41002D01*
G54D12*
X56054Y-40385D02*
X56040Y-40398D01*
X56001Y-40411D01*
X55975Y-40411D01*
X55935Y-40398D01*
X55909Y-40372D01*
X55896Y-40345D01*
X55883Y-40293D01*
X55883Y-40254D01*
X55896Y-40201D01*
X55909Y-40175D01*
X55935Y-40149D01*
X55975Y-40135D01*
X56001Y-40135D01*
X56040Y-40149D01*
X56054Y-40162D01*
X56290Y-40135D02*
X56237Y-40135D01*
X56211Y-40149D01*
X56198Y-40162D01*
X56172Y-40201D01*
X56159Y-40254D01*
X56159Y-40359D01*
X56172Y-40385D01*
X56185Y-40398D01*
X56211Y-40411D01*
X56264Y-40411D01*
X56290Y-40398D01*
X56303Y-40385D01*
X56316Y-40359D01*
X56316Y-40293D01*
X56303Y-40267D01*
X56290Y-40254D01*
X56264Y-40240D01*
X56211Y-40240D01*
X56185Y-40254D01*
X56172Y-40267D01*
X56159Y-40293D01*
G54D22*
X57717Y-38029D02*
X57651Y-37935D01*
X57604Y-38029D02*
X57604Y-37832D01*
X57679Y-37832D01*
X57698Y-37842D01*
X57707Y-37851D01*
X57717Y-37870D01*
X57717Y-37898D01*
X57707Y-37917D01*
X57698Y-37926D01*
X57679Y-37935D01*
X57604Y-37935D01*
X57886Y-37898D02*
X57886Y-38029D01*
X57839Y-37823D02*
X57792Y-37964D01*
X57914Y-37964D01*
X56817Y-38029D02*
X56751Y-37935D01*
X56704Y-38029D02*
X56704Y-37832D01*
X56779Y-37832D01*
X56798Y-37842D01*
X56807Y-37851D01*
X56817Y-37870D01*
X56817Y-37898D01*
X56807Y-37917D01*
X56798Y-37926D01*
X56779Y-37935D01*
X56704Y-37935D01*
X56995Y-37832D02*
X56901Y-37832D01*
X56892Y-37926D01*
X56901Y-37917D01*
X56920Y-37907D01*
X56967Y-37907D01*
X56986Y-37917D01*
X56995Y-37926D01*
X57004Y-37945D01*
X57004Y-37992D01*
X56995Y-38010D01*
X56986Y-38020D01*
X56967Y-38029D01*
X56920Y-38029D01*
X56901Y-38020D01*
X56892Y-38010D01*
X56617Y-36979D02*
X56551Y-36885D01*
X56504Y-36979D02*
X56504Y-36782D01*
X56579Y-36782D01*
X56598Y-36792D01*
X56607Y-36801D01*
X56617Y-36820D01*
X56617Y-36848D01*
X56607Y-36867D01*
X56598Y-36876D01*
X56579Y-36885D01*
X56504Y-36885D01*
X56692Y-36801D02*
X56701Y-36792D01*
X56720Y-36782D01*
X56767Y-36782D01*
X56786Y-36792D01*
X56795Y-36801D01*
X56804Y-36820D01*
X56804Y-36839D01*
X56795Y-36867D01*
X56682Y-36979D01*
X56804Y-36979D01*
X60067Y-37279D02*
X60001Y-37185D01*
X59954Y-37279D02*
X59954Y-37082D01*
X60029Y-37082D01*
X60048Y-37092D01*
X60057Y-37101D01*
X60067Y-37120D01*
X60067Y-37148D01*
X60057Y-37167D01*
X60048Y-37176D01*
X60029Y-37185D01*
X59954Y-37185D01*
X60132Y-37082D02*
X60254Y-37082D01*
X60189Y-37157D01*
X60217Y-37157D01*
X60236Y-37167D01*
X60245Y-37176D01*
X60254Y-37195D01*
X60254Y-37242D01*
X60245Y-37260D01*
X60236Y-37270D01*
X60217Y-37279D01*
X60160Y-37279D01*
X60142Y-37270D01*
X60132Y-37260D01*
X54017Y-38229D02*
X53951Y-38135D01*
X53904Y-38229D02*
X53904Y-38032D01*
X53979Y-38032D01*
X53998Y-38042D01*
X54007Y-38051D01*
X54017Y-38070D01*
X54017Y-38098D01*
X54007Y-38117D01*
X53998Y-38126D01*
X53979Y-38135D01*
X53904Y-38135D01*
X54186Y-38032D02*
X54148Y-38032D01*
X54129Y-38042D01*
X54120Y-38051D01*
X54101Y-38079D01*
X54092Y-38117D01*
X54092Y-38192D01*
X54101Y-38210D01*
X54110Y-38220D01*
X54129Y-38229D01*
X54167Y-38229D01*
X54186Y-38220D01*
X54195Y-38210D01*
X54204Y-38192D01*
X54204Y-38145D01*
X54195Y-38126D01*
X54186Y-38117D01*
X54167Y-38107D01*
X54129Y-38107D01*
X54110Y-38117D01*
X54101Y-38126D01*
X54092Y-38145D01*
G54D12*
X46309Y-40001D02*
X46309Y-40203D01*
X46321Y-40227D01*
X46333Y-40239D01*
X46357Y-40251D01*
X46404Y-40251D01*
X46428Y-40239D01*
X46440Y-40227D01*
X46452Y-40203D01*
X46452Y-40001D01*
X46702Y-40251D02*
X46559Y-40251D01*
X46630Y-40251D02*
X46630Y-40001D01*
X46607Y-40036D01*
X46583Y-40060D01*
X46559Y-40072D01*
G54D22*
X47217Y-42179D02*
X47151Y-42085D01*
X47104Y-42179D02*
X47104Y-41982D01*
X47179Y-41982D01*
X47198Y-41992D01*
X47207Y-42001D01*
X47217Y-42020D01*
X47217Y-42048D01*
X47207Y-42067D01*
X47198Y-42076D01*
X47179Y-42085D01*
X47104Y-42085D01*
X47404Y-42179D02*
X47292Y-42179D01*
X47348Y-42179D02*
X47348Y-41982D01*
X47329Y-42010D01*
X47310Y-42029D01*
X47292Y-42039D01*
G54D12*
X55850Y-39242D02*
X55835Y-39257D01*
X55792Y-39271D01*
X55764Y-39271D01*
X55721Y-39257D01*
X55692Y-39228D01*
X55678Y-39200D01*
X55664Y-39142D01*
X55664Y-39100D01*
X55678Y-39042D01*
X55692Y-39014D01*
X55721Y-38985D01*
X55764Y-38971D01*
X55792Y-38971D01*
X55835Y-38985D01*
X55850Y-39000D01*
X55950Y-38971D02*
X56135Y-38971D01*
X56035Y-39085D01*
X56078Y-39085D01*
X56107Y-39100D01*
X56121Y-39114D01*
X56135Y-39142D01*
X56135Y-39214D01*
X56121Y-39242D01*
X56107Y-39257D01*
X56078Y-39271D01*
X55992Y-39271D01*
X55964Y-39257D01*
X55950Y-39242D01*
G54D22*
X51967Y-38160D02*
X51957Y-38170D01*
X51929Y-38179D01*
X51910Y-38179D01*
X51882Y-38170D01*
X51863Y-38151D01*
X51854Y-38132D01*
X51845Y-38095D01*
X51845Y-38067D01*
X51854Y-38029D01*
X51863Y-38010D01*
X51882Y-37992D01*
X51910Y-37982D01*
X51929Y-37982D01*
X51957Y-37992D01*
X51967Y-38001D01*
X52154Y-38179D02*
X52042Y-38179D01*
X52098Y-38179D02*
X52098Y-37982D01*
X52079Y-38010D01*
X52060Y-38029D01*
X52042Y-38039D01*
X45567Y-42260D02*
X45557Y-42270D01*
X45529Y-42279D01*
X45510Y-42279D01*
X45482Y-42270D01*
X45463Y-42251D01*
X45454Y-42232D01*
X45445Y-42195D01*
X45445Y-42167D01*
X45454Y-42129D01*
X45463Y-42110D01*
X45482Y-42092D01*
X45510Y-42082D01*
X45529Y-42082D01*
X45557Y-42092D01*
X45567Y-42101D01*
X45642Y-42101D02*
X45651Y-42092D01*
X45670Y-42082D01*
X45717Y-42082D01*
X45736Y-42092D01*
X45745Y-42101D01*
X45754Y-42120D01*
X45754Y-42139D01*
X45745Y-42167D01*
X45632Y-42279D01*
X45754Y-42279D01*
G54D12*
X50450Y-41592D02*
X50435Y-41607D01*
X50392Y-41621D01*
X50364Y-41621D01*
X50321Y-41607D01*
X50292Y-41578D01*
X50278Y-41550D01*
X50264Y-41492D01*
X50264Y-41450D01*
X50278Y-41392D01*
X50292Y-41364D01*
X50321Y-41335D01*
X50364Y-41321D01*
X50392Y-41321D01*
X50435Y-41335D01*
X50450Y-41350D01*
X50721Y-41321D02*
X50578Y-41321D01*
X50564Y-41464D01*
X50578Y-41450D01*
X50607Y-41435D01*
X50678Y-41435D01*
X50707Y-41450D01*
X50721Y-41464D01*
X50735Y-41492D01*
X50735Y-41564D01*
X50721Y-41592D01*
X50707Y-41607D01*
X50678Y-41621D01*
X50607Y-41621D01*
X50578Y-41607D01*
X50564Y-41592D01*
G54D22*
X49117Y-39760D02*
X49107Y-39770D01*
X49079Y-39779D01*
X49060Y-39779D01*
X49032Y-39770D01*
X49013Y-39751D01*
X49004Y-39732D01*
X48995Y-39695D01*
X48995Y-39667D01*
X49004Y-39629D01*
X49013Y-39610D01*
X49032Y-39592D01*
X49060Y-39582D01*
X49079Y-39582D01*
X49107Y-39592D01*
X49117Y-39601D01*
X49286Y-39648D02*
X49286Y-39779D01*
X49239Y-39573D02*
X49192Y-39714D01*
X49314Y-39714D01*
G54D23*
X59721Y-38350D02*
X59692Y-38335D01*
X59664Y-38307D01*
X59621Y-38264D01*
X59592Y-38250D01*
X59564Y-38250D01*
X59578Y-38321D02*
X59550Y-38307D01*
X59521Y-38278D01*
X59507Y-38221D01*
X59507Y-38121D01*
X59521Y-38064D01*
X59550Y-38035D01*
X59578Y-38021D01*
X59635Y-38021D01*
X59664Y-38035D01*
X59692Y-38064D01*
X59707Y-38121D01*
X59707Y-38221D01*
X59692Y-38278D01*
X59664Y-38307D01*
X59635Y-38321D01*
X59578Y-38321D01*
X59992Y-38321D02*
X59821Y-38321D01*
X59907Y-38321D02*
X59907Y-38021D01*
X59878Y-38064D01*
X59850Y-38092D01*
X59821Y-38107D01*
G54D12*
X46654Y-37335D02*
X46640Y-37348D01*
X46601Y-37361D01*
X46575Y-37361D01*
X46535Y-37348D01*
X46509Y-37322D01*
X46496Y-37295D01*
X46483Y-37243D01*
X46483Y-37204D01*
X46496Y-37151D01*
X46509Y-37125D01*
X46535Y-37099D01*
X46575Y-37085D01*
X46601Y-37085D01*
X46640Y-37099D01*
X46654Y-37112D01*
X46745Y-37085D02*
X46929Y-37085D01*
X46811Y-37361D01*
G54D22*
X44967Y-40229D02*
X44901Y-40135D01*
X44854Y-40229D02*
X44854Y-40032D01*
X44929Y-40032D01*
X44948Y-40042D01*
X44957Y-40051D01*
X44967Y-40070D01*
X44967Y-40098D01*
X44957Y-40117D01*
X44948Y-40126D01*
X44929Y-40135D01*
X44854Y-40135D01*
X45032Y-40032D02*
X45164Y-40032D01*
X45079Y-40229D01*
X51017Y-38879D02*
X50951Y-38785D01*
X50904Y-38879D02*
X50904Y-38682D01*
X50979Y-38682D01*
X50998Y-38692D01*
X51007Y-38701D01*
X51017Y-38720D01*
X51017Y-38748D01*
X51007Y-38767D01*
X50998Y-38776D01*
X50979Y-38785D01*
X50904Y-38785D01*
X51110Y-38879D02*
X51148Y-38879D01*
X51167Y-38870D01*
X51176Y-38860D01*
X51195Y-38832D01*
X51204Y-38795D01*
X51204Y-38720D01*
X51195Y-38701D01*
X51186Y-38692D01*
X51167Y-38682D01*
X51129Y-38682D01*
X51110Y-38692D01*
X51101Y-38701D01*
X51092Y-38720D01*
X51092Y-38767D01*
X51101Y-38785D01*
X51110Y-38795D01*
X51129Y-38804D01*
X51167Y-38804D01*
X51186Y-38795D01*
X51195Y-38785D01*
X51204Y-38767D01*
X52846Y-38032D02*
X52959Y-38032D01*
X52903Y-38229D02*
X52903Y-38032D01*
X53024Y-38229D02*
X53024Y-38032D01*
X53024Y-38126D02*
X53137Y-38126D01*
X53137Y-38229D02*
X53137Y-38032D01*
X53334Y-38229D02*
X53221Y-38229D01*
X53278Y-38229D02*
X53278Y-38032D01*
X53259Y-38060D01*
X53240Y-38079D01*
X53221Y-38089D01*
X50017Y-38229D02*
X49951Y-38135D01*
X49904Y-38229D02*
X49904Y-38032D01*
X49979Y-38032D01*
X49998Y-38042D01*
X50007Y-38051D01*
X50017Y-38070D01*
X50017Y-38098D01*
X50007Y-38117D01*
X49998Y-38126D01*
X49979Y-38135D01*
X49904Y-38135D01*
X50129Y-38117D02*
X50110Y-38107D01*
X50101Y-38098D01*
X50092Y-38079D01*
X50092Y-38070D01*
X50101Y-38051D01*
X50110Y-38042D01*
X50129Y-38032D01*
X50167Y-38032D01*
X50186Y-38042D01*
X50195Y-38051D01*
X50204Y-38070D01*
X50204Y-38079D01*
X50195Y-38098D01*
X50186Y-38107D01*
X50167Y-38117D01*
X50129Y-38117D01*
X50110Y-38126D01*
X50101Y-38135D01*
X50092Y-38154D01*
X50092Y-38192D01*
X50101Y-38210D01*
X50110Y-38220D01*
X50129Y-38229D01*
X50167Y-38229D01*
X50186Y-38220D01*
X50195Y-38210D01*
X50204Y-38192D01*
X50204Y-38154D01*
X50195Y-38135D01*
X50186Y-38126D01*
X50167Y-38117D01*
G54D12*
X50428Y-37121D02*
X50428Y-36821D01*
X50500Y-36821D01*
X50542Y-36835D01*
X50571Y-36864D01*
X50585Y-36892D01*
X50600Y-36950D01*
X50600Y-36992D01*
X50585Y-37050D01*
X50571Y-37078D01*
X50542Y-37107D01*
X50500Y-37121D01*
X50428Y-37121D01*
X50885Y-37121D02*
X50714Y-37121D01*
X50800Y-37121D02*
X50800Y-36821D01*
X50771Y-36864D01*
X50742Y-36892D01*
X50714Y-36907D01*
G54D22*
X59523Y-39679D02*
X59457Y-39585D01*
X59410Y-39679D02*
X59410Y-39482D01*
X59485Y-39482D01*
X59504Y-39492D01*
X59513Y-39501D01*
X59523Y-39520D01*
X59523Y-39548D01*
X59513Y-39567D01*
X59504Y-39576D01*
X59485Y-39585D01*
X59410Y-39585D01*
X59710Y-39679D02*
X59598Y-39679D01*
X59654Y-39679D02*
X59654Y-39482D01*
X59635Y-39510D01*
X59617Y-39529D01*
X59598Y-39539D01*
X59832Y-39482D02*
X59851Y-39482D01*
X59870Y-39492D01*
X59879Y-39501D01*
X59889Y-39520D01*
X59898Y-39557D01*
X59898Y-39604D01*
X59889Y-39642D01*
X59879Y-39660D01*
X59870Y-39670D01*
X59851Y-39679D01*
X59832Y-39679D01*
X59814Y-39670D01*
X59804Y-39660D01*
X59795Y-39642D01*
X59786Y-39604D01*
X59786Y-39557D01*
X59795Y-39520D01*
X59804Y-39501D01*
X59814Y-39492D01*
X59832Y-39482D01*
G54D23*
X60271Y-42050D02*
X60242Y-42035D01*
X60214Y-42007D01*
X60171Y-41964D01*
X60142Y-41950D01*
X60114Y-41950D01*
X60128Y-42021D02*
X60100Y-42007D01*
X60071Y-41978D01*
X60057Y-41921D01*
X60057Y-41821D01*
X60071Y-41764D01*
X60100Y-41735D01*
X60128Y-41721D01*
X60185Y-41721D01*
X60214Y-41735D01*
X60242Y-41764D01*
X60257Y-41821D01*
X60257Y-41921D01*
X60242Y-41978D01*
X60214Y-42007D01*
X60185Y-42021D01*
X60128Y-42021D01*
X60371Y-41750D02*
X60385Y-41735D01*
X60414Y-41721D01*
X60485Y-41721D01*
X60514Y-41735D01*
X60528Y-41750D01*
X60542Y-41778D01*
X60542Y-41807D01*
X60528Y-41850D01*
X60357Y-42021D01*
X60542Y-42021D01*
G54D19*
X61454Y-41761D02*
X61454Y-41361D01*
X61607Y-41361D01*
X61645Y-41380D01*
X61664Y-41400D01*
X61683Y-41438D01*
X61683Y-41495D01*
X61664Y-41533D01*
X61645Y-41552D01*
X61607Y-41571D01*
X61454Y-41571D01*
X62045Y-41361D02*
X61854Y-41361D01*
X61835Y-41552D01*
X61854Y-41533D01*
X61892Y-41514D01*
X61988Y-41514D01*
X62026Y-41533D01*
X62045Y-41552D01*
X62064Y-41590D01*
X62064Y-41685D01*
X62045Y-41723D01*
X62026Y-41742D01*
X61988Y-41761D01*
X61892Y-41761D01*
X61854Y-41742D01*
X61835Y-41723D01*
G54D20*
X54228Y-36971D02*
X54228Y-36671D01*
X54342Y-36671D01*
X54371Y-36685D01*
X54385Y-36700D01*
X54400Y-36728D01*
X54400Y-36771D01*
X54385Y-36800D01*
X54371Y-36814D01*
X54342Y-36828D01*
X54228Y-36828D01*
X54657Y-36671D02*
X54600Y-36671D01*
X54571Y-36685D01*
X54557Y-36700D01*
X54528Y-36742D01*
X54514Y-36800D01*
X54514Y-36914D01*
X54528Y-36942D01*
X54542Y-36957D01*
X54571Y-36971D01*
X54628Y-36971D01*
X54657Y-36957D01*
X54671Y-36942D01*
X54685Y-36914D01*
X54685Y-36842D01*
X54671Y-36814D01*
X54657Y-36800D01*
X54628Y-36785D01*
X54571Y-36785D01*
X54542Y-36800D01*
X54528Y-36814D01*
X54514Y-36842D01*
G54D12*
X47950Y-37421D02*
X47807Y-37421D01*
X47807Y-37121D01*
X48207Y-37421D02*
X48035Y-37421D01*
X48121Y-37421D02*
X48121Y-37121D01*
X48092Y-37164D01*
X48064Y-37192D01*
X48035Y-37207D01*
M02*
