M48
;DRILL file {Pcbnew (2013-05-31 BZR 4019)-stable} date 07/09/2013 19:23:39
;FORMAT={-:-/ absolute / metric / decimal}
FMAT,2
METRIC,TZ
T1C0.635
T2C0.813
T3C1.016
%
G90
G05
M71
T1
X114.427Y-103.251
X117.856Y-100.457
X125.222Y-98.806
X128.27Y-103.759
X129.921Y-97.536
X131.064Y-95.504
X132.842Y-105.918
X134.874Y-101.854
X136.017Y-107.188
X140.462Y-99.949
X142.24Y-96.012
X143.637Y-94.742
X147.828Y-102.743
X147.955Y-100.965
X148.971Y-103.886
X150.368Y-96.52
X152.4Y-99.695
X153.543Y-95.631
T2
X110.744Y-91.694
X110.744Y-94.234
X110.744Y-96.774
X110.744Y-99.314
X110.744Y-101.854
X110.744Y-104.394
X110.744Y-106.934
X110.744Y-109.474
T3
X115.824Y-91.694
X115.824Y-109.474
X118.364Y-91.694
X118.364Y-109.474
X120.904Y-91.694
X120.904Y-109.474
X123.444Y-91.694
X123.444Y-109.474
X125.984Y-91.694
X125.984Y-109.474
X128.524Y-91.694
X128.524Y-109.474
X133.604Y-94.234
X136.144Y-94.234
X143.764Y-91.694
X143.764Y-109.474
X146.304Y-91.694
X146.304Y-109.474
X148.844Y-91.694
X148.844Y-109.474
X151.384Y-91.694
X151.384Y-109.474
X153.924Y-91.694
X153.924Y-98.044
X153.924Y-100.584
X153.924Y-103.124
X153.924Y-109.474
X156.464Y-91.694
X156.464Y-98.044
X156.464Y-100.584
X156.464Y-103.124
X156.464Y-109.474
T0
M30
