<?xml version="1.0" standalone="no"?>
 <!DOCTYPE svg PUBLIC "-//W3C//DTD SVG 1.1//EN" 
 "http://www.w3.org/Graphics/SVG/1.1/DTD/svg11.dtd"> 
<svg xmlns="http://www.w3.org/2000/svg" version="1.1" 
    width="29.7002cm" height="21.0007cm" viewBox="0 0 116930 82680 ">
<title>SVG Picture created as JeeNode-F_SilkS.svg date 2013/09/17 20:17:53 </title>
  <desc>Picture generated by PCBNEW </desc>
<g style="fill:#000000; fill-opacity:1;stroke:#000000; stroke-opacity:1;
stroke-linecap:round; stroke-linejoin:round; "
 transform="translate(0 0) scale(1 1)">
</g>
<g style="fill:#000000; fill-opacity:0.0; 
stroke:#000000; stroke-width:59.0551; stroke-opacity:1; 
stroke-linecap:round; stroke-linejoin:round;">
<path d="M4000 4000
L112930 4000
L112930 78680
L4000 78680
L4000 4000
" />
<path d="M4700 4700
L112230 4700
L112230 77980
L4700 77980
L4700 4700
" />
<path d="M25780 4000
L25780 4700
" />
<path d="M15032 4552
L14747 4552
" />
<path d="M14890 4552
L14890 4052
L14842 4123
L14794 4171
L14747 4195
" />
<path d="M25780 78680
L25780 77980
" />
<path d="M15032 78532
L14747 78532
" />
<path d="M14890 78532
L14890 78032
L14842 78103
L14794 78151
L14747 78175
" />
<path d="M47560 4000
L47560 4700
" />
<path d="M36527 4100
L36550 4076
L36598 4052
L36717 4052
L36765 4076
L36789 4100
L36812 4147
L36812 4195
L36789 4266
L36503 4552
L36812 4552
" />
<path d="M47560 78680
L47560 77980
" />
<path d="M36527 78080
L36550 78056
L36598 78032
L36717 78032
L36765 78056
L36789 78080
L36812 78127
L36812 78175
L36789 78246
L36503 78532
L36812 78532
" />
<path d="M69340 4000
L69340 4700
" />
<path d="M58283 4052
L58592 4052
L58426 4242
L58497 4242
L58545 4266
L58569 4290
L58592 4338
L58592 4457
L58569 4504
L58545 4528
L58497 4552
L58354 4552
L58307 4528
L58283 4504
" />
<path d="M69340 78680
L69340 77980
" />
<path d="M58283 78032
L58592 78032
L58426 78222
L58497 78222
L58545 78246
L58569 78270
L58592 78318
L58592 78437
L58569 78484
L58545 78508
L58497 78532
L58354 78532
L58307 78508
L58283 78484
" />
<path d="M91120 4000
L91120 4700
" />
<path d="M80325 4219
L80325 4552
" />
<path d="M80206 4028
L80087 4385
L80396 4385
" />
<path d="M91120 78680
L91120 77980
" />
<path d="M80325 78199
L80325 78532
" />
<path d="M80206 78008
L80087 78365
L80396 78365
" />
<path d="M102129 4052
L101890 4052
L101867 4290
L101890 4266
L101938 4242
L102057 4242
L102105 4266
L102129 4290
L102152 4338
L102152 4457
L102129 4504
L102105 4528
L102057 4552
L101938 4552
L101890 4528
L101867 4504
" />
<path d="M102129 78032
L101890 78032
L101867 78270
L101890 78246
L101938 78222
L102057 78222
L102105 78246
L102129 78270
L102152 78318
L102152 78437
L102129 78484
L102105 78508
L102057 78532
L101938 78532
L101890 78508
L101867 78484
" />
<path d="M4000 28890
L4700 28890
" />
<path d="M4230 16509
L4469 16509
" />
<path d="M4183 16652
L4350 16152
L4516 16652
" />
<path d="M112930 28890
L112230 28890
" />
<path d="M112460 16509
L112699 16509
" />
<path d="M112413 16652
L112580 16152
L112746 16652
" />
<path d="M4000 53780
L4700 53780
" />
<path d="M4385 41280
L4457 41304
L4480 41328
L4504 41375
L4504 41447
L4480 41494
L4457 41518
L4409 41542
L4219 41542
L4219 41042
L4385 41042
L4433 41066
L4457 41090
L4480 41137
L4480 41185
L4457 41232
L4433 41256
L4385 41280
L4219 41280
" />
<path d="M112930 53780
L112230 53780
" />
<path d="M112615 41280
L112687 41304
L112710 41328
L112734 41375
L112734 41447
L112710 41494
L112687 41518
L112639 41542
L112449 41542
L112449 41042
L112615 41042
L112663 41066
L112687 41090
L112710 41137
L112710 41185
L112687 41232
L112663 41256
L112615 41280
L112449 41280
" />
<path d="M4504 66384
L4480 66408
L4409 66432
L4361 66432
L4290 66408
L4242 66360
L4219 66313
L4195 66218
L4195 66146
L4219 66051
L4242 66003
L4290 65956
L4361 65932
L4409 65932
L4480 65956
L4504 65980
" />
<path d="M112734 66384
L112710 66408
L112639 66432
L112591 66432
L112520 66408
L112472 66360
L112449 66313
L112425 66218
L112425 66146
L112449 66051
L112472 66003
L112520 65956
L112591 65932
L112639 65932
L112710 65956
L112734 65980
" />
<path d="M79380 76422
L79455 75822
L79597 75822
L79680 75851
L79730 75908
L79751 75965
L79765 76080
L79755 76165
L79712 76280
L79676 76337
L79612 76394
L79522 76422
L79380 76422
" />
<path d="M80237 76422
L80276 76108
L80255 76051
L80201 76022
L80087 76022
L80026 76051
" />
<path d="M80240 76394
L80180 76422
L80037 76422
L79983 76394
L79962 76337
L79969 76280
L80005 76222
L80065 76194
L80208 76194
L80269 76165
" />
<path d="M80487 76022
L80715 76022
" />
<path d="M80597 75822
L80533 76337
L80555 76394
L80608 76422
L80665 76422
" />
<path d="M81097 76394
L81037 76422
L80922 76422
L80869 76394
L80847 76337
L80876 76108
L80912 76051
L80972 76022
L81087 76022
L81140 76051
L81162 76108
L81155 76165
L80862 76222
" />
<path d="M81387 76365
L81412 76394
L81380 76422
L81355 76394
L81387 76365
L81380 76422
" />
<path d="M81426 76051
L81451 76080
L81419 76108
L81394 76080
L81426 76051
L81419 76108
" />
<path d="M82437 76422
L82094 76422
" />
<path d="M82265 76422
L82340 75822
L82272 75908
L82208 75965
L82147 75994
" />
<path d="M82712 75822
L83112 75822
L82780 76422
" />
<path d="M83697 76394
L83751 76422
L83865 76422
L83926 76394
L83962 76337
L83965 76308
L83944 76251
L83890 76222
L83805 76222
L83751 76194
L83730 76137
L83733 76108
L83769 76051
L83830 76022
L83915 76022
L83969 76051
" />
<path d="M84440 76394
L84380 76422
L84265 76422
L84212 76394
L84190 76337
L84219 76108
L84255 76051
L84315 76022
L84430 76022
L84483 76051
L84505 76108
L84497 76165
L84205 76222
" />
<path d="M84772 76022
L84697 76622
" />
<path d="M84769 76051
L84830 76022
L84944 76022
L84997 76051
L85022 76080
L85044 76137
L85022 76308
L84987 76365
L84955 76394
L84894 76422
L84780 76422
L84726 76394
" />
<path d="M85762 75880
L85794 75851
L85855 75822
L85997 75822
L86051 75851
L86076 75880
L86097 75937
L86090 75994
L86051 76080
L85665 76422
L86037 76422
" />
<path d="M86483 75822
L86540 75822
L86594 75851
L86619 75880
L86640 75937
L86655 76051
L86637 76194
L86594 76308
L86558 76365
L86526 76394
L86465 76422
L86408 76422
L86355 76394
L86330 76365
L86308 76308
L86294 76194
L86312 76051
L86355 75937
L86390 75880
L86422 75851
L86483 75822
" />
<path d="M87180 76422
L86837 76422
" />
<path d="M87008 76422
L87083 75822
L87015 75908
L86951 75965
L86890 75994
" />
<path d="M87455 75822
L87826 75822
L87597 76051
L87683 76051
L87737 76080
L87762 76108
L87783 76165
L87765 76308
L87730 76365
L87697 76394
L87637 76422
L87465 76422
L87412 76394
L87387 76365
" />
<path d="M70972 77622
L70972 77022
" />
<path d="M71315 77622
L71058 77280
" />
<path d="M71315 77022
L70972 77365
" />
<path d="M71572 77622
L71572 77222
" />
<path d="M71572 77022
L71544 77051
L71572 77080
L71601 77051
L71572 77022
L71572 77080
" />
<path d="M72201 77565
L72172 77594
L72087 77622
L72030 77622
L71944 77594
L71887 77537
L71858 77480
L71830 77365
L71830 77280
L71858 77165
L71887 77108
L71944 77051
L72030 77022
L72087 77022
L72172 77051
L72201 77080
" />
<path d="M72715 77622
L72715 77308
L72687 77251
L72630 77222
L72515 77222
L72458 77251
" />
<path d="M72715 77594
L72658 77622
L72515 77622
L72458 77594
L72430 77537
L72430 77480
L72458 77422
L72515 77394
L72658 77394
L72715 77365
" />
<path d="M73258 77622
L73258 77022
" />
<path d="M73258 77594
L73201 77622
L73087 77622
L73030 77594
L73001 77565
L72972 77508
L72972 77337
L73001 77280
L73030 77251
L73087 77222
L73201 77222
L73258 77251
" />
<path d="M74001 77308
L74201 77308
" />
<path d="M74287 77622
L74001 77622
L74001 77022
L74287 77022
" />
<path d="M74544 77565
L74572 77594
L74544 77622
L74515 77594
L74544 77565
L74544 77622
" />
<path d="M74829 77622
L74829 77022
L74972 77022
L75058 77051
L75115 77108
L75144 77165
L75172 77280
L75172 77365
L75144 77480
L75115 77537
L75058 77594
L74972 77622
L74829 77622
" />
<path d="M75429 77565
L75458 77594
L75429 77622
L75401 77594
L75429 77565
L75429 77622
" />
<path d="M75687 77451
L75972 77451
" />
<path d="M75629 77622
L75829 77022
L76029 77622
" />
<path d="M76229 77565
L76258 77594
L76229 77622
L76201 77594
L76229 77565
L76229 77622
" />
<path d="M104522 76422
L104358 76137
" />
<path d="M104180 76422
L104255 75822
L104483 75822
L104537 75851
L104562 75880
L104583 75937
L104572 76022
L104537 76080
L104505 76108
L104444 76137
L104215 76137
" />
<path d="M105012 76394
L104951 76422
L104837 76422
L104783 76394
L104762 76337
L104790 76108
L104826 76051
L104887 76022
L105001 76022
L105055 76051
L105076 76108
L105069 76165
L104776 76222
" />
<path d="M105287 76022
L105380 76422
L105572 76022
" />
<path d="M105758 76365
L105783 76394
L105751 76422
L105726 76394
L105758 76365
L105751 76422
" />
<path d="M105797 76051
L105822 76080
L105790 76108
L105765 76080
L105797 76051
L105790 76108
" />
<path d="M106483 75822
L106608 76422
L106883 75822
" />
<path d="M107340 75822
L107226 75822
L107165 75851
L107133 75880
L107065 75965
L107022 76080
L106994 76308
L107015 76365
L107040 76394
L107094 76422
L107208 76422
L107269 76394
L107301 76365
L107337 76308
L107355 76165
L107333 76108
L107308 76080
L107255 76051
L107140 76051
L107080 76080
L107047 76108
L107012 76165
" />
<path d="M70944 76394
L71030 76422
L71172 76422
L71230 76394
L71258 76365
L71287 76308
L71287 76251
L71258 76194
L71230 76165
L71172 76137
L71058 76108
L71001 76080
L70972 76051
L70944 75994
L70944 75937
L70972 75880
L71001 75851
L71058 75822
L71201 75822
L71287 75851
" />
<path d="M71544 76422
L71544 76022
" />
<path d="M71544 75822
L71515 75851
L71544 75880
L71572 75851
L71544 75822
L71544 75880
" />
<path d="M71772 76022
L72087 76022
L71772 76422
L72087 76422
" />
<path d="M72544 76394
L72487 76422
L72372 76422
L72315 76394
L72287 76337
L72287 76108
L72315 76051
L72372 76022
L72487 76022
L72544 76051
L72572 76108
L72572 76165
L72287 76222
" />
<path d="M72830 76365
L72858 76394
L72830 76422
L72801 76394
L72830 76365
L72830 76422
" />
<path d="M72830 76051
L72858 76080
L72830 76108
L72801 76080
L72830 76051
L72830 76108
" />
<path d="M73544 76251
L73830 76251
" />
<path d="M73487 76422
L73687 75822
L73887 76422
" />
<path d="M74344 76022
L74344 76422
" />
<path d="M74201 75794
L74058 76222
L74430 76222
" />
<path d="M104172 77622
L104172 77022
" />
<path d="M104715 77622
L104715 77022
" />
<path d="M104715 77594
L104658 77622
L104544 77622
L104487 77594
L104458 77565
L104430 77508
L104430 77337
L104458 77280
L104487 77251
L104544 77222
L104658 77222
L104715 77251
" />
<path d="M105001 77565
L105030 77594
L105001 77622
L104972 77594
L105001 77565
L105001 77622
" />
<path d="M105001 77251
L105030 77280
L105001 77308
L104972 77280
L105001 77251
L105001 77308
" />
<path d="M106058 77622
L105715 77622
" />
<path d="M105887 77622
L105887 77022
L105829 77108
L105772 77165
L105715 77194
" />
<path d="M106744 76994
L106230 77765
" />
<path d="M107258 77622
L106915 77622
" />
<path d="M107087 77622
L107087 77022
L107029 77108
L106972 77165
L106915 77194
" />
<path d="M70969 74622
L71312 74622
" />
<path d="M71065 75222
L71140 74622
" />
<path d="M71437 75222
L71487 74822
" />
<path d="M71512 74622
L71480 74651
L71505 74680
L71537 74651
L71512 74622
L71505 74680
" />
<path d="M71687 74822
L71915 74822
" />
<path d="M71797 74622
L71733 75137
L71755 75194
L71808 75222
L71865 75222
" />
<path d="M72151 75222
L72097 75194
L72076 75137
L72140 74622
" />
<path d="M72612 75194
L72551 75222
L72437 75222
L72383 75194
L72362 75137
L72390 74908
L72426 74851
L72487 74822
L72601 74822
L72655 74851
L72676 74908
L72669 74965
L72376 75022
" />
<path d="M72901 75165
L72926 75194
L72894 75222
L72869 75194
L72901 75165
L72894 75222
" />
<path d="M72940 74851
L72965 74880
L72933 74908
L72908 74880
L72940 74851
L72933 74908
" />
<path d="M73612 75194
L73694 75222
L73837 75222
L73897 75194
L73930 75165
L73965 75108
L73972 75051
L73951 74994
L73926 74965
L73872 74937
L73762 74908
L73708 74880
L73683 74851
L73662 74794
L73669 74737
L73705 74680
L73737 74651
L73797 74622
L73940 74622
L74022 74651
" />
<path d="M74208 75222
L74283 74622
" />
<path d="M74465 75222
L74505 74908
L74483 74851
L74430 74822
L74344 74822
L74283 74851
L74251 74880
" />
<path d="M74751 75222
L74801 74822
" />
<path d="M74826 74622
L74794 74651
L74819 74680
L74851 74651
L74826 74622
L74819 74680
" />
<path d="M75269 75194
L75208 75222
L75094 75222
L75040 75194
L75019 75137
L75047 74908
L75083 74851
L75144 74822
L75258 74822
L75312 74851
L75333 74908
L75326 74965
L75033 75022
" />
<path d="M75637 75222
L75583 75194
L75562 75137
L75626 74622
" />
<path d="M76122 75222
L76197 74622
" />
<path d="M76126 75194
L76065 75222
L75951 75222
L75897 75194
L75872 75165
L75851 75108
L75872 74937
L75908 74880
L75940 74851
L76001 74822
L76115 74822
L76169 74851
" />
<path d="M77112 74622
L77058 75051
L77019 75137
L76955 75194
L76865 75222
L76808 75222
" />
<path d="M77555 75194
L77494 75222
L77380 75222
L77326 75194
L77305 75137
L77333 74908
L77369 74851
L77430 74822
L77544 74822
L77597 74851
L77619 74908
L77612 74965
L77319 75022
" />
<path d="M78069 75194
L78008 75222
L77894 75222
L77840 75194
L77819 75137
L77847 74908
L77883 74851
L77944 74822
L78058 74822
L78112 74851
L78133 74908
L78126 74965
L77833 75022
" />
<path d="M78401 74822
L78351 75222
" />
<path d="M78394 74880
L78426 74851
L78487 74822
L78572 74822
L78626 74851
L78647 74908
L78608 75222
" />
<path d="M78980 75222
L78926 75194
L78901 75165
L78880 75108
L78901 74937
L78937 74880
L78969 74851
L79030 74822
L79115 74822
L79169 74851
L79194 74880
L79215 74937
L79194 75108
L79158 75165
L79126 75194
L79065 75222
L78980 75222
" />
<path d="M79694 75222
L79769 74622
" />
<path d="M79697 75194
L79637 75222
L79522 75222
L79469 75194
L79444 75165
L79422 75108
L79444 74937
L79480 74880
L79512 74851
L79572 74822
L79687 74822
L79740 74851
" />
<path d="M80212 75194
L80151 75222
L80037 75222
L79983 75194
L79962 75137
L79990 74908
L80026 74851
L80087 74822
L80201 74822
L80255 74851
L80276 74908
L80269 74965
L79976 75022
" />
<path d="M81212 75194
L81151 75222
L81037 75222
L80983 75194
L80958 75165
L80937 75108
L80958 74937
L80994 74880
L81026 74851
L81087 74822
L81201 74822
L81255 74851
" />
<path d="M81722 75222
L81762 74908
L81740 74851
L81687 74822
L81572 74822
L81512 74851
" />
<path d="M81726 75194
L81665 75222
L81522 75222
L81469 75194
L81447 75137
L81455 75080
L81490 75022
L81551 74994
L81694 74994
L81755 74965
" />
<path d="M82058 74822
L81983 75422
" />
<path d="M82055 74851
L82115 74822
L82230 74822
L82283 74851
L82308 74880
L82330 74937
L82308 75108
L82272 75165
L82240 75194
L82180 75222
L82065 75222
L82012 75194
" />
<path d="M82515 74822
L82744 74822
" />
<path d="M82626 74622
L82562 75137
L82583 75194
L82637 75222
L82694 75222
" />
<path d="M83126 75194
L83065 75222
L82951 75222
L82897 75194
L82876 75137
L82905 74908
L82940 74851
L83001 74822
L83115 74822
L83169 74851
L83190 74908
L83183 74965
L82890 75022
" />
<path d="M83715 74822
L83665 75222
" />
<path d="M83458 74822
L83419 75137
L83440 75194
L83494 75222
L83580 75222
L83640 75194
L83672 75165
" />
<path d="M83951 75222
L84001 74822
" />
<path d="M83987 74937
L84022 74880
L84055 74851
L84115 74822
L84172 74822
" />
<path d="M84297 75194
L84351 75222
L84465 75222
L84526 75194
L84562 75137
L84565 75108
L84544 75051
L84490 75022
L84405 75022
L84351 74994
L84330 74937
L84333 74908
L84369 74851
L84430 74822
L84515 74822
L84569 74851
" />
<path d="M71172 72508
L70972 72508
" />
<path d="M70972 72822
L70972 72222
L71258 72222
" />
<path d="M71487 72822
L71487 72422
" />
<path d="M71487 72222
L71458 72251
L71487 72280
L71515 72251
L71487 72222
L71487 72280
" />
<path d="M71858 72822
L71801 72794
L71772 72737
L71772 72222
" />
<path d="M72315 72794
L72258 72822
L72144 72822
L72087 72794
L72058 72737
L72058 72508
L72087 72451
L72144 72422
L72258 72422
L72315 72451
L72344 72508
L72344 72565
L72058 72622
" />
<path d="M72601 72765
L72630 72794
L72601 72822
L72572 72794
L72601 72765
L72601 72822
" />
<path d="M72601 72451
L72630 72480
L72601 72508
L72572 72480
L72601 72451
L72601 72508
" />
<path d="M73515 72222
L73515 72651
L73487 72737
L73430 72794
L73344 72822
L73287 72822
" />
<path d="M74030 72794
L73972 72822
L73858 72822
L73801 72794
L73772 72737
L73772 72508
L73801 72451
L73858 72422
L73972 72422
L74030 72451
L74058 72508
L74058 72565
L73772 72622
" />
<path d="M74544 72794
L74487 72822
L74372 72822
L74315 72794
L74287 72737
L74287 72508
L74315 72451
L74372 72422
L74487 72422
L74544 72451
L74572 72508
L74572 72565
L74287 72622
" />
<path d="M74830 72822
L74830 72222
L75172 72822
L75172 72222
" />
<path d="M75544 72822
L75487 72794
L75458 72765
L75430 72708
L75430 72537
L75458 72480
L75487 72451
L75544 72422
L75630 72422
L75687 72451
L75715 72480
L75744 72537
L75744 72708
L75715 72765
L75687 72794
L75630 72822
L75544 72822
" />
<path d="M76258 72822
L76258 72222
" />
<path d="M76258 72794
L76201 72822
L76087 72822
L76030 72794
L76001 72765
L75972 72708
L75972 72537
L76001 72480
L76030 72451
L76087 72422
L76201 72422
L76258 72451
" />
<path d="M76772 72794
L76715 72822
L76601 72822
L76544 72794
L76515 72737
L76515 72508
L76544 72451
L76601 72422
L76715 72422
L76772 72451
L76801 72508
L76801 72565
L76515 72622
" />
<path d="M77058 72765
L77087 72794
L77058 72822
L77030 72794
L77058 72765
L77058 72822
" />
<path d="M77344 72822
L77344 72222
" />
<path d="M77401 72594
L77572 72822
" />
<path d="M77572 72422
L77344 72651
" />
<path d="M77830 72822
L77830 72422
" />
<path d="M77830 72222
L77801 72251
L77830 72280
L77858 72251
L77830 72222
L77830 72280
" />
<path d="M78372 72794
L78315 72822
L78201 72822
L78144 72794
L78115 72765
L78087 72708
L78087 72537
L78115 72480
L78144 72451
L78201 72422
L78315 72422
L78372 72451
" />
<path d="M78887 72822
L78887 72508
L78858 72451
L78801 72422
L78687 72422
L78630 72451
" />
<path d="M78887 72794
L78830 72822
L78687 72822
L78630 72794
L78601 72737
L78601 72680
L78630 72622
L78687 72594
L78830 72594
L78887 72565
" />
<path d="M79430 72822
L79430 72222
" />
<path d="M79430 72794
L79372 72822
L79258 72822
L79201 72794
L79172 72765
L79144 72708
L79144 72537
L79172 72480
L79201 72451
L79258 72422
L79372 72422
L79430 72451
" />
<path d="M79572 72880
L80030 72880
" />
<path d="M80172 72422
L80172 73022
" />
<path d="M80172 72451
L80230 72422
L80344 72422
L80401 72451
L80430 72480
L80458 72537
L80458 72708
L80430 72765
L80401 72794
L80344 72822
L80230 72822
L80172 72794
" />
<path d="M80972 72794
L80915 72822
L80801 72822
L80744 72794
L80715 72765
L80687 72708
L80687 72537
L80715 72480
L80744 72451
L80801 72422
L80915 72422
L80972 72451
" />
<path d="M81230 72822
L81230 72222
" />
<path d="M81230 72451
L81287 72422
L81401 72422
L81458 72451
L81487 72480
L81515 72537
L81515 72708
L81487 72765
L81458 72794
L81401 72822
L81287 72822
L81230 72794
" />
<path d="M70944 73994
L71030 74022
L71172 74022
L71230 73994
L71258 73965
L71287 73908
L71287 73851
L71258 73794
L71230 73765
L71172 73737
L71058 73708
L71001 73680
L70972 73651
L70944 73594
L70944 73537
L70972 73480
L71001 73451
L71058 73422
L71201 73422
L71287 73451
" />
<path d="M71544 74022
L71544 73422
" />
<path d="M71801 74022
L71801 73708
L71772 73651
L71715 73622
L71630 73622
L71572 73651
L71544 73680
" />
<path d="M72315 73994
L72258 74022
L72144 74022
L72087 73994
L72058 73937
L72058 73708
L72087 73651
L72144 73622
L72258 73622
L72315 73651
L72344 73708
L72344 73765
L72058 73822
" />
<path d="M72830 73994
L72772 74022
L72658 74022
L72601 73994
L72572 73937
L72572 73708
L72601 73651
L72658 73622
L72772 73622
L72830 73651
L72858 73708
L72858 73765
L72572 73822
" />
<path d="M73030 73622
L73258 73622
" />
<path d="M73115 73422
L73115 73937
L73144 73994
L73201 74022
L73258 74022
" />
<path d="M73458 73965
L73487 73994
L73458 74022
L73430 73994
L73458 73965
L73458 74022
" />
<path d="M73458 73651
L73487 73680
L73458 73708
L73430 73680
L73458 73651
L73458 73708
" />
<path d="M70980 71622
L71055 71022
L71201 71451
L71455 71022
L71380 71622
" />
<path d="M71665 71622
L71715 71222
" />
<path d="M71740 71022
L71708 71051
L71733 71080
L71765 71051
L71740 71022
L71733 71080
" />
<path d="M72001 71222
L71951 71622
" />
<path d="M71994 71280
L72026 71251
L72087 71222
L72172 71222
L72226 71251
L72247 71308
L72208 71622
" />
<path d="M72494 71622
L72569 71022
" />
<path d="M72540 71251
L72601 71222
L72715 71222
L72769 71251
L72794 71280
L72815 71337
L72794 71508
L72758 71565
L72726 71594
L72665 71622
L72551 71622
L72497 71594
" />
<path d="M73037 71622
L73087 71222
" />
<path d="M73112 71022
L73079 71051
L73104 71080
L73137 71051
L73112 71022
L73104 71080
" />
<path d="M73408 71622
L73354 71594
L73329 71565
L73308 71508
L73329 71337
L73365 71280
L73397 71251
L73458 71222
L73544 71222
L73597 71251
L73622 71280
L73644 71337
L73622 71508
L73587 71565
L73554 71594
L73494 71622
L73408 71622
" />
<path d="M74126 71594
L74065 71622
L73951 71622
L73897 71594
L73872 71565
L73851 71508
L73872 71337
L73908 71280
L73940 71251
L74001 71222
L74115 71222
L74169 71251
" />
<path d="M74637 71622
L74676 71308
L74654 71251
L74601 71222
L74487 71222
L74426 71251
" />
<path d="M74640 71594
L74579 71622
L74437 71622
L74383 71594
L74362 71537
L74369 71480
L74404 71422
L74465 71394
L74608 71394
L74669 71365
" />
<path d="M74922 71622
L74997 71022
" />
<path d="M74969 71251
L75029 71222
L75144 71222
L75197 71251
L75222 71280
L75244 71337
L75222 71508
L75187 71565
L75154 71594
L75094 71622
L74979 71622
L74926 71594
" />
<path d="M75722 71622
L75762 71308
L75740 71251
L75687 71222
L75572 71222
L75512 71251
" />
<path d="M75726 71594
L75665 71622
L75522 71622
L75469 71594
L75447 71537
L75454 71480
L75490 71422
L75551 71394
L75694 71394
L75754 71365
" />
<path d="M76058 71222
L76008 71622
" />
<path d="M76051 71280
L76083 71251
L76144 71222
L76229 71222
L76283 71251
L76304 71308
L76265 71622
" />
<path d="M76637 71622
L76583 71594
L76558 71565
L76537 71508
L76558 71337
L76594 71280
L76626 71251
L76687 71222
L76772 71222
L76826 71251
L76851 71280
L76872 71337
L76851 71508
L76815 71565
L76783 71594
L76722 71622
L76637 71622
" />
<path d="M77144 71222
L77094 71622
" />
<path d="M77137 71280
L77169 71251
L77229 71222
L77315 71222
L77369 71251
L77390 71308
L77351 71622
" />
<path d="M71172 70108
L71258 70137
L71287 70165
L71315 70222
L71315 70308
L71287 70365
L71258 70394
L71201 70422
L70972 70422
L70972 69822
L71172 69822
L71230 69851
L71258 69880
L71287 69937
L71287 69994
L71258 70051
L71230 70080
L71172 70108
L70972 70108
" />
<path d="M71830 70422
L71830 70108
L71801 70051
L71744 70022
L71630 70022
L71572 70051
" />
<path d="M71830 70394
L71772 70422
L71630 70422
L71572 70394
L71544 70337
L71544 70280
L71572 70222
L71630 70194
L71772 70194
L71830 70165
" />
<path d="M72087 70394
L72144 70422
L72258 70422
L72315 70394
L72344 70337
L72344 70308
L72315 70251
L72258 70222
L72172 70222
L72115 70194
L72087 70137
L72087 70108
L72115 70051
L72172 70022
L72258 70022
L72315 70051
" />
<path d="M72830 70394
L72772 70422
L72658 70422
L72601 70394
L72572 70337
L72572 70108
L72601 70051
L72658 70022
L72772 70022
L72830 70051
L72858 70108
L72858 70165
L72572 70222
" />
<path d="M73372 70422
L73372 69822
" />
<path d="M73372 70394
L73315 70422
L73201 70422
L73144 70394
L73115 70365
L73087 70308
L73087 70137
L73115 70080
L73144 70051
L73201 70022
L73315 70022
L73372 70051
" />
<path d="M74201 70422
L74144 70394
L74115 70365
L74087 70308
L74087 70137
L74115 70080
L74144 70051
L74201 70022
L74287 70022
L74344 70051
L74372 70080
L74401 70137
L74401 70308
L74372 70365
L74344 70394
L74287 70422
L74201 70422
" />
<path d="M74658 70022
L74658 70422
" />
<path d="M74658 70080
L74687 70051
L74744 70022
L74830 70022
L74887 70051
L74915 70108
L74915 70422
" />
<path d="M75744 70422
L75687 70394
L75658 70365
L75630 70308
L75630 70137
L75658 70080
L75687 70051
L75744 70022
L75830 70022
L75887 70051
L75915 70080
L75944 70137
L75944 70308
L75915 70365
L75887 70394
L75830 70422
L75744 70422
" />
<path d="M76201 70422
L76201 70022
" />
<path d="M76201 70137
L76230 70080
L76258 70051
L76315 70022
L76372 70022
" />
<path d="M76572 70422
L76572 70022
" />
<path d="M76572 69822
L76544 69851
L76572 69880
L76601 69851
L76572 69822
L76572 69880
" />
<path d="M77115 70022
L77115 70508
L77087 70565
L77058 70594
L77001 70622
L76915 70622
L76858 70594
" />
<path d="M77115 70394
L77058 70422
L76944 70422
L76887 70394
L76858 70365
L76830 70308
L76830 70137
L76858 70080
L76887 70051
L76944 70022
L77058 70022
L77115 70051
" />
<path d="M77401 70422
L77401 70022
" />
<path d="M77401 69822
L77372 69851
L77401 69880
L77430 69851
L77401 69822
L77401 69880
" />
<path d="M77687 70022
L77687 70422
" />
<path d="M77687 70080
L77715 70051
L77772 70022
L77858 70022
L77915 70051
L77944 70108
L77944 70422
" />
<path d="M78487 70422
L78487 70108
L78458 70051
L78401 70022
L78287 70022
L78229 70051
" />
<path d="M78487 70394
L78429 70422
L78287 70422
L78229 70394
L78201 70337
L78201 70280
L78229 70222
L78287 70194
L78429 70194
L78487 70165
" />
<path d="M78858 70422
L78801 70394
L78772 70337
L78772 69822
" />
<path d="M79544 70422
L79544 69822
" />
<path d="M79544 70051
L79601 70022
L79715 70022
L79772 70051
L79801 70080
L79829 70137
L79829 70308
L79801 70365
L79772 70394
L79715 70422
L79601 70422
L79544 70394
" />
<path d="M80029 70022
L80172 70422
" />
<path d="M80315 70022
L80172 70422
L80115 70565
L80087 70594
L80029 70622
" />
<path d="M81172 69822
L81172 70251
L81144 70337
L81087 70394
L81001 70422
L80944 70422
" />
<path d="M81687 70394
L81630 70422
L81515 70422
L81458 70394
L81430 70337
L81430 70108
L81458 70051
L81515 70022
L81630 70022
L81687 70051
L81715 70108
L81715 70165
L81430 70222
" />
<path d="M82201 70394
L82144 70422
L82030 70422
L81972 70394
L81944 70337
L81944 70108
L81972 70051
L82030 70022
L82144 70022
L82201 70051
L82230 70108
L82230 70165
L81944 70222
" />
<path d="M82772 70422
L82487 70422
L82487 69822
" />
<path d="M83230 70422
L83230 70108
L83201 70051
L83144 70022
L83030 70022
L82972 70051
" />
<path d="M83230 70394
L83172 70422
L83030 70422
L82972 70394
L82944 70337
L82944 70280
L82972 70222
L83030 70194
L83172 70194
L83230 70165
" />
<path d="M83515 70422
L83515 69822
" />
<path d="M83515 70051
L83572 70022
L83687 70022
L83744 70051
L83772 70080
L83801 70137
L83801 70308
L83772 70365
L83744 70394
L83687 70422
L83572 70422
L83515 70394
" />
<path d="M84030 70394
L84087 70422
L84201 70422
L84258 70394
L84287 70337
L84287 70308
L84258 70251
L84201 70222
L84115 70222
L84058 70194
L84030 70137
L84030 70108
L84058 70051
L84115 70022
L84201 70022
L84258 70051
" />
<path d="M70230 69580
L70230 77980
" />
<path d="M70230 71980
L112230 71980
" />
<path d="M70230 69580
L112230 69580
" />
<path d="M70230 74380
L112230 74380
" />
<path d="M103430 75580
L103430 77980
" />
<path d="M70230 76780
L112230 76780
" />
<path d="M70230 75580
L112230 75580
" />
<path d="M76830 75580
L76830 76780
" />
</g>
<g style="fill:#000000; fill-opacity:0.0; 
stroke:#000000; stroke-width:120; stroke-opacity:1; 
stroke-linecap:round; stroke-linejoin:round;">
<path d="M62100 35600
L62100 36600
" />
<path d="M62100 36600
L56100 36600
" />
<path d="M56100 36600
L56100 35600
" />
<path d="M56100 35600
L62100 35600
" />
<path d="M61100 35600
L61100 36600
" />
<path d="M51100 35600
L51100 36600
" />
<path d="M51100 36600
L45100 36600
" />
<path d="M45100 36600
L45100 35600
" />
<path d="M45100 35600
L51100 35600
" />
<path d="M50100 35600
L50100 36600
" />
<path d="M45100 43600
L45100 42600
" />
<path d="M45100 42600
L51100 42600
" />
<path d="M51100 42600
L51100 43600
" />
<path d="M51100 43600
L45100 43600
" />
<path d="M46100 43600
L46100 42600
" />
<path d="M56100 43600
L56100 42600
" />
<path d="M56100 42600
L62100 42600
" />
<path d="M62100 42600
L62100 43600
" />
<path d="M62100 43600
L56100 43600
" />
<path d="M57100 43600
L57100 42600
" />
</g>
<g style="fill:#000000; fill-opacity:0.0; 
stroke:#000000; stroke-width:50; stroke-opacity:1; 
stroke-linecap:round; stroke-linejoin:round;">
<path d="M55098 41201
L55098 43201
" />
<path d="M55098 43201
L52101 43201
" />
<path d="M52101 43201
L52101 41201
" />
<path d="M52101 41201
L55098 41201
" />
<path d="M54621 42969
L52857 42969
" />
<path d="M54621 41457
L54369 41457
" />
<path d="M54621 41457
L54621 42969
" />
<path d="M54621 41457
L52857 41457
" />
<path d="M52857 41457
L52857 41709
" />
<path d="M52857 42969
L52857 42717
" />
<path d="M54369 41709
L54117 41709
" />
<path d="M54117 41709
L54117 42717
" />
<path d="M54117 42717
L54369 42717
" />
<path d="M54369 42717
L54369 41709
" />
</g>
<g style="fill:#000000; fill-opacity:0.0; 
stroke:#000000; stroke-width:25; stroke-opacity:1; 
stroke-linecap:round; stroke-linejoin:round;">
<circle cx="52857" cy="42213" r="397.394" /> 
</g>
<g style="fill:#000000; fill-opacity:0.0; 
stroke:#000000; stroke-width:50; stroke-opacity:1; 
stroke-linecap:round; stroke-linejoin:round;">
<path d="M56600 42100
L57800 42100
" />
<path d="M57800 40650
L57800 39900
" />
<path d="M57800 39900
L56600 39900
" />
<path d="M56600 39900
L56600 40650
" />
<path d="M56600 41300
L56600 42100
" />
<path d="M56600 42021
L57800 42021
" />
<path d="M57800 42100
L57800 41300
" />
</g>
<g style="fill:#000000; fill-opacity:0.0; 
stroke:#000000; stroke-width:39; stroke-opacity:1; 
stroke-linecap:round; stroke-linejoin:round;">
<circle cx="58050" cy="39450" r="50" /> 
<path d="M58050 39000
L58050 39400
" />
<path d="M58050 39400
L57450 39400
" />
<path d="M57450 39400
L57450 39000
" />
<path d="M57450 38600
L57450 38200
" />
<path d="M57450 38200
L58050 38200
" />
<path d="M58050 38200
L58050 38600
" />
<circle cx="56550" cy="38150" r="50" /> 
<path d="M56550 38600
L56550 38200
" />
<path d="M56550 38200
L57150 38200
" />
<path d="M57150 38200
L57150 38600
" />
<path d="M57150 39000
L57150 39400
" />
<path d="M57150 39400
L56550 39400
" />
<path d="M56550 39400
L56550 39000
" />
<circle cx="56950" cy="37600" r="50" /> 
<path d="M57400 37600
L57000 37600
" />
<path d="M57000 37600
L57000 37000
" />
<path d="M57000 37000
L57400 37000
" />
<path d="M57800 37000
L58200 37000
" />
<path d="M58200 37000
L58200 37600
" />
<path d="M58200 37600
L57800 37600
" />
<circle cx="58550" cy="37600" r="50" /> 
<path d="M59000 37600
L58600 37600
" />
<path d="M58600 37600
L58600 37000
" />
<path d="M58600 37000
L59000 37000
" />
<path d="M59400 37000
L59800 37000
" />
<path d="M59800 37000
L59800 37600
" />
<path d="M59800 37600
L59400 37600
" />
<circle cx="54400" cy="39650" r="50" /> 
<path d="M54400 39200
L54400 39600
" />
<path d="M54400 39600
L53800 39600
" />
<path d="M53800 39600
L53800 39200
" />
<path d="M53800 38800
L53800 38400
" />
<path d="M53800 38400
L54400 38400
" />
<path d="M54400 38400
L54400 38800
" />
</g>
<g style="fill:#000000; fill-opacity:0.0; 
stroke:#000000; stroke-width:50; stroke-opacity:1; 
stroke-linecap:round; stroke-linejoin:round;">
<path d="M48100 40600
L47400 40600
" />
<path d="M47400 40600
L47400 39400
" />
<path d="M47400 39400
L48100 39400
" />
<path d="M48100 39400
L48100 40600
" />
</g>
<g style="fill:#000000; fill-opacity:0.0; 
stroke:#000000; stroke-width:39; stroke-opacity:1; 
stroke-linecap:round; stroke-linejoin:round;">
<circle cx="47850" cy="41200" r="50" /> 
<path d="M47400 41200
L47800 41200
" />
<path d="M47800 41200
L47800 41800
" />
<path d="M47800 41800
L47400 41800
" />
<path d="M47000 41800
L46600 41800
" />
<path d="M46600 41800
L46600 41200
" />
<path d="M46600 41200
L47000 41200
" />
</g>
<g style="fill:#000000; fill-opacity:0.0; 
stroke:#000000; stroke-width:50; stroke-opacity:1; 
stroke-linecap:round; stroke-linejoin:round;">
<path d="M55700 36800
L54800 36800
" />
<path d="M54800 36800
L54800 37450
" />
<path d="M55700 38150
L55700 38800
" />
<path d="M55700 38800
L54800 38800
" />
<path d="M54800 38800
L54800 38150
" />
<path d="M55700 37450
L55700 36800
" />
</g>
<g style="fill:#000000; fill-opacity:0.0; 
stroke:#000000; stroke-width:39; stroke-opacity:1; 
stroke-linecap:round; stroke-linejoin:round;">
<circle cx="52350" cy="39650" r="50" /> 
<path d="M52350 39200
L52350 39600
" />
<path d="M52350 39600
L51750 39600
" />
<path d="M51750 39600
L51750 39200
" />
<path d="M51750 38800
L51750 38400
" />
<path d="M51750 38400
L52350 38400
" />
<path d="M52350 38400
L52350 38800
" />
<circle cx="46250" cy="41200" r="50" /> 
<path d="M45800 41200
L46200 41200
" />
<path d="M46200 41200
L46200 41800
" />
<path d="M46200 41800
L45800 41800
" />
<path d="M45400 41800
L45000 41800
" />
<path d="M45000 41800
L45000 41200
" />
<path d="M45000 41200
L45400 41200
" />
</g>
<g style="fill:#000000; fill-opacity:0.0; 
stroke:#000000; stroke-width:50; stroke-opacity:1; 
stroke-linecap:round; stroke-linejoin:round;">
<path d="M48150 41050
L48050 41050
" />
<path d="M48050 41050
L48050 41950
" />
<path d="M48050 41950
L48150 41950
" />
<path d="M48150 41050
L48150 41950
" />
<path d="M48150 41950
L48800 41950
" />
<path d="M49500 41050
L50150 41050
" />
<path d="M50150 41050
L50150 41950
" />
<path d="M50150 41950
L49500 41950
" />
<path d="M48800 41050
L48150 41050
" />
</g>
<g style="fill:#000000; fill-opacity:0.0; 
stroke:#000000; stroke-width:39; stroke-opacity:1; 
stroke-linecap:round; stroke-linejoin:round;">
<circle cx="48900" cy="40600" r="50" /> 
<path d="M49350 40600
L48950 40600
" />
<path d="M48950 40600
L48950 40000
" />
<path d="M48950 40000
L49350 40000
" />
<path d="M49750 40000
L50150 40000
" />
<path d="M50150 40000
L50150 40600
" />
<path d="M50150 40600
L49750 40600
" />
</g>
<g style="fill:#000000; fill-opacity:0.0; 
stroke:#000000; stroke-width:31; stroke-opacity:1; 
stroke-linecap:round; stroke-linejoin:round;">
<circle cx="58912" cy="38337" r="62.6256" /> 
<path d="M59250 39300
L58850 39300
" />
<path d="M59250 38275
L58850 38275
" />
<path d="M58850 39300
L58850 38275
" />
<path d="M59250 38275
L59250 39300
" />
</g>
<g style="fill:#000000; fill-opacity:0.0; 
stroke:#000000; stroke-width:50; stroke-opacity:1; 
stroke-linecap:round; stroke-linejoin:round;">
<path d="M45050 39200
L46250 39200
" />
<path d="M46250 37750
L46250 37000
" />
<path d="M46250 37000
L45050 37000
" />
<path d="M45050 37000
L45050 37750
" />
<path d="M45050 38400
L45050 39200
" />
<path d="M45050 39121
L46250 39121
" />
<path d="M46250 39200
L46250 38400
" />
</g>
<g style="fill:#000000; fill-opacity:0.0; 
stroke:#000000; stroke-width:39; stroke-opacity:1; 
stroke-linecap:round; stroke-linejoin:round;">
<circle cx="46000" cy="40850" r="50" /> 
<path d="M46000 40400
L46000 40800
" />
<path d="M46000 40800
L45400 40800
" />
<path d="M45400 40800
L45400 40400
" />
<path d="M45400 40000
L45400 39600
" />
<path d="M45400 39600
L46000 39600
" />
<path d="M46000 39600
L46000 40000
" />
<circle cx="50750" cy="39100" r="50" /> 
<path d="M50750 39550
L50750 39150
" />
<path d="M50750 39150
L51350 39150
" />
<path d="M51350 39150
L51350 39550
" />
<path d="M51350 39950
L51350 40350
" />
<path d="M51350 40350
L50750 40350
" />
<path d="M50750 40350
L50750 39950
" />
<circle cx="52800" cy="38350" r="50" /> 
<path d="M52800 38800
L52800 38400
" />
<path d="M52800 38400
L53400 38400
" />
<path d="M53400 38400
L53400 38800
" />
<path d="M53400 39200
L53400 39600
" />
<path d="M53400 39600
L52800 39600
" />
<path d="M52800 39600
L52800 39200
" />
<circle cx="50350" cy="39650" r="50" /> 
<path d="M50350 39200
L50350 39600
" />
<path d="M50350 39600
L49750 39600
" />
<path d="M49750 39600
L49750 39200
" />
<path d="M49750 38800
L49750 38400
" />
<path d="M49750 38400
L50350 38400
" />
<path d="M50350 38400
L50350 38800
" />
</g>
<g style="fill:#000000; fill-opacity:0.0; 
stroke:#000000; stroke-width:26; stroke-opacity:1; 
stroke-linecap:round; stroke-linejoin:round;">
<path d="M50796 37718
L50796 37846
" />
<path d="M50796 37846
L50993 37846
" />
<path d="M50993 37718
L50993 37846
" />
<path d="M50796 37718
L50993 37718
" />
<path d="M50796 37473
L50796 37532
" />
<path d="M50796 37532
L50895 37532
" />
<path d="M50895 37473
L50895 37532
" />
<path d="M50796 37473
L50895 37473
" />
<path d="M50796 37668
L50796 37727
" />
<path d="M50796 37727
L50895 37727
" />
<path d="M50895 37668
L50895 37727
" />
<path d="M50796 37668
L50895 37668
" />
<path d="M50796 37522
L50796 37678
" />
<path d="M50796 37678
L50865 37678
" />
<path d="M50865 37522
L50865 37678
" />
<path d="M50796 37522
L50865 37522
" />
<path d="M50207 37718
L50207 37846
" />
<path d="M50207 37846
L50404 37846
" />
<path d="M50404 37718
L50404 37846
" />
<path d="M50207 37718
L50404 37718
" />
<path d="M50207 37354
L50207 37482
" />
<path d="M50207 37482
L50404 37482
" />
<path d="M50404 37354
L50404 37482
" />
<path d="M50207 37354
L50404 37354
" />
<path d="M50305 37668
L50305 37727
" />
<path d="M50305 37727
L50404 37727
" />
<path d="M50404 37668
L50404 37727
" />
<path d="M50305 37668
L50404 37668
" />
<path d="M50305 37473
L50305 37532
" />
<path d="M50305 37532
L50404 37532
" />
<path d="M50404 37473
L50404 37532
" />
<path d="M50305 37473
L50404 37473
" />
<path d="M50335 37522
L50335 37678
" />
<path d="M50335 37678
L50404 37678
" />
<path d="M50404 37522
L50404 37678
" />
<path d="M50335 37522
L50404 37522
" />
<path d="M50600 37561
L50600 37639
" />
<path d="M50600 37639
L50678 37639
" />
<path d="M50678 37561
L50678 37639
" />
<path d="M50600 37561
L50678 37561
" />
<path d="M50796 37364
L50796 37482
" />
<path d="M50796 37482
L50914 37482
" />
<path d="M50914 37364
L50914 37482
" />
<path d="M50796 37364
L50914 37364
" />
<path d="M50964 37354
L50964 37443
" />
<path d="M50964 37443
L50993 37443
" />
<path d="M50993 37354
L50993 37443
" />
<path d="M50964 37354
L50993 37354
" />
</g>
<g style="fill:#000000; fill-opacity:0.0; 
stroke:#000000; stroke-width:40; stroke-opacity:1; 
stroke-linecap:round; stroke-linejoin:round;">
<path d="M50806 37826
L50394 37826
" />
<path d="M50404 37374
L50964 37374
" />
</g>
<g style="fill:#000000; fill-opacity:0.0; 
stroke:#000000; stroke-width:20; stroke-opacity:1; 
stroke-linecap:round; stroke-linejoin:round;">
<circle cx="50934" cy="37423" r="28.2843" /> 
</g>
<g style="fill:#000000; fill-opacity:0.0; 
stroke:#000000; stroke-width:40; stroke-opacity:1; 
stroke-linecap:round; stroke-linejoin:round;">
<path d="M50993 37463 A137 137 0.0 0 0 50993 37737 " />
<path d="M50207 37737 A137 137 0.0 0 0 50207 37463 " />
</g>
<g style="fill:#000000; fill-opacity:0.0; 
stroke:#000000; stroke-width:39; stroke-opacity:1; 
stroke-linecap:round; stroke-linejoin:round;">
<circle cx="58650" cy="40500" r="50" /> 
<path d="M59100 40500
L58700 40500
" />
<path d="M58700 40500
L58700 39900
" />
<path d="M58700 39900
L59100 39900
" />
<path d="M59500 39900
L59900 39900
" />
<path d="M59900 39900
L59900 40500
" />
<path d="M59900 40500
L59500 40500
" />
</g>
<g style="fill:#000000; fill-opacity:0.0; 
stroke:#000000; stroke-width:31; stroke-opacity:1; 
stroke-linecap:round; stroke-linejoin:round;">
<circle cx="58787" cy="41638" r="62.6256" /> 
<path d="M59750 41300
L59750 41700
" />
<path d="M58725 41300
L58725 41700
" />
<path d="M59750 41700
L58725 41700
" />
<path d="M58725 41300
L59750 41300
" />
</g>
<g style="fill:#000000; fill-opacity:0.0; 
stroke:#000000; stroke-width:80; stroke-opacity:1; 
stroke-linecap:round; stroke-linejoin:round;">
<path d="M60100 41100
L60100 38100
" />
<path d="M62100 38100
L62100 41100
" />
<path d="M62100 41100
L60100 41100
" />
<path d="M60100 38100
L62100 38100
" />
</g>
<g style="fill:#000000; fill-opacity:0.0; 
stroke:#000000; stroke-width:60; stroke-opacity:1; 
stroke-linecap:round; stroke-linejoin:round;">
<path d="M52100 37600
L52100 36600
" />
<path d="M52100 36600
L54100 36600
" />
<path d="M54100 36600
L54100 37600
" />
<path d="M54100 37600
L52100 37600
" />
</g>
<g style="fill:#000000; fill-opacity:0.0; 
stroke:#000000; stroke-width:50; stroke-opacity:1; 
stroke-linecap:round; stroke-linejoin:round;">
<circle cx="47000" cy="38850" r="70.7106" /> 
<path d="M47650 37700
L47050 37700
" />
<path d="M47050 37700
L47050 38800
" />
<path d="M47050 38800
L47650 38800
" />
<path d="M48250 38800
L48850 38800
" />
<path d="M48850 38800
L48850 37700
" />
<path d="M48850 37700
L48250 37700
" />
</g>
<g style="fill:#000000; fill-opacity:0.0; 
stroke:#000000; stroke-width:80; stroke-opacity:1; 
stroke-linecap:round; stroke-linejoin:round;">
<path d="M55254 36261
L55254 35861
L55407 35861
L55445 35880
L55464 35900
L55483 35938
L55483 35995
L55464 36033
L55445 36052
L55407 36071
L55254 36071
" />
<path d="M55864 36261
L55635 36261
" />
<path d="M55750 36261
L55750 35861
L55711 35919
L55673 35957
L55635 35976
" />
<path d="M51404 36211
L51404 35811
L51557 35811
L51595 35830
L51614 35850
L51633 35888
L51633 35945
L51614 35983
L51595 36002
L51557 36021
L51404 36021
" />
<path d="M51785 35850
L51804 35830
L51842 35811
L51938 35811
L51976 35830
L51995 35850
L52014 35888
L52014 35926
L51995 35983
L51766 36211
L52014 36211
" />
<path d="M51304 43011
L51304 42611
L51457 42611
L51495 42630
L51514 42650
L51533 42688
L51533 42745
L51514 42783
L51495 42802
L51457 42821
L51304 42821
" />
<path d="M51666 42611
L51914 42611
L51780 42764
L51838 42764
L51876 42783
L51895 42802
L51914 42840
L51914 42935
L51895 42973
L51876 42992
L51838 43011
L51723 43011
L51685 42992
L51666 42973
" />
<path d="M55304 43311
L55304 42911
L55457 42911
L55495 42930
L55514 42950
L55533 42988
L55533 43045
L55514 43083
L55495 43102
L55457 43121
L55304 43121
" />
<path d="M55876 43045
L55876 43311
" />
<path d="M55780 42892
L55685 43178
L55933 43178
" />
</g>
<g style="fill:#000000; fill-opacity:0.0; 
stroke:#000000; stroke-width:35; stroke-opacity:1; 
stroke-linecap:round; stroke-linejoin:round;">
<path d="M51619 40502
L51619 40907
L51642 40954
L51666 40978
L51714 41002
L51809 41002
L51857 40978
L51880 40954
L51904 40907
L51904 40502
" />
<path d="M52119 40550
L52142 40526
L52190 40502
L52309 40502
L52357 40526
L52380 40550
L52404 40597
L52404 40645
L52380 40716
L52095 41002
L52404 41002
" />
</g>
<g style="fill:#000000; fill-opacity:0.0; 
stroke:#000000; stroke-width:50; stroke-opacity:1; 
stroke-linecap:round; stroke-linejoin:round;">
<path d="M56054 40385
L56040 40398
L56001 40411
L55975 40411
L55935 40398
L55909 40372
L55896 40345
L55883 40293
L55883 40254
L55896 40201
L55909 40175
L55935 40149
L55975 40135
L56001 40135
L56040 40149
L56054 40162
" />
<path d="M56290 40135
L56237 40135
L56211 40149
L56198 40162
L56172 40201
L56159 40254
L56159 40359
L56172 40385
L56185 40398
L56211 40411
L56264 40411
L56290 40398
L56303 40385
L56316 40359
L56316 40293
L56303 40267
L56290 40254
L56264 40240
L56211 40240
L56185 40254
L56172 40267
L56159 40293
" />
</g>
<g style="fill:#000000; fill-opacity:0.0; 
stroke:#000000; stroke-width:43; stroke-opacity:1; 
stroke-linecap:round; stroke-linejoin:round;">
<path d="M57717 38029
L57651 37935
" />
<path d="M57604 38029
L57604 37832
L57679 37832
L57698 37842
L57707 37851
L57717 37870
L57717 37898
L57707 37917
L57698 37926
L57679 37935
L57604 37935
" />
<path d="M57886 37898
L57886 38029
" />
<path d="M57839 37823
L57792 37964
L57914 37964
" />
<path d="M56817 38029
L56751 37935
" />
<path d="M56704 38029
L56704 37832
L56779 37832
L56798 37842
L56807 37851
L56817 37870
L56817 37898
L56807 37917
L56798 37926
L56779 37935
L56704 37935
" />
<path d="M56995 37832
L56901 37832
L56892 37926
L56901 37917
L56920 37907
L56967 37907
L56986 37917
L56995 37926
L57004 37945
L57004 37992
L56995 38010
L56986 38020
L56967 38029
L56920 38029
L56901 38020
L56892 38010
" />
<path d="M56617 36979
L56551 36885
" />
<path d="M56504 36979
L56504 36782
L56579 36782
L56598 36792
L56607 36801
L56617 36820
L56617 36848
L56607 36867
L56598 36876
L56579 36885
L56504 36885
" />
<path d="M56692 36801
L56701 36792
L56720 36782
L56767 36782
L56786 36792
L56795 36801
L56804 36820
L56804 36839
L56795 36867
L56682 36979
L56804 36979
" />
<path d="M60067 37279
L60001 37185
" />
<path d="M59954 37279
L59954 37082
L60029 37082
L60048 37092
L60057 37101
L60067 37120
L60067 37148
L60057 37167
L60048 37176
L60029 37185
L59954 37185
" />
<path d="M60132 37082
L60254 37082
L60189 37157
L60217 37157
L60236 37167
L60245 37176
L60254 37195
L60254 37242
L60245 37260
L60236 37270
L60217 37279
L60160 37279
L60142 37270
L60132 37260
" />
<path d="M54017 38229
L53951 38135
" />
<path d="M53904 38229
L53904 38032
L53979 38032
L53998 38042
L54007 38051
L54017 38070
L54017 38098
L54007 38117
L53998 38126
L53979 38135
L53904 38135
" />
<path d="M54186 38032
L54148 38032
L54129 38042
L54120 38051
L54101 38079
L54092 38117
L54092 38192
L54101 38210
L54110 38220
L54129 38229
L54167 38229
L54186 38220
L54195 38210
L54204 38192
L54204 38145
L54195 38126
L54186 38117
L54167 38107
L54129 38107
L54110 38117
L54101 38126
L54092 38145
" />
</g>
<g style="fill:#000000; fill-opacity:0.0; 
stroke:#000000; stroke-width:50; stroke-opacity:1; 
stroke-linecap:round; stroke-linejoin:round;">
<path d="M46309 40001
L46309 40203
L46321 40227
L46333 40239
L46357 40251
L46404 40251
L46428 40239
L46440 40227
L46452 40203
L46452 40001
" />
<path d="M46702 40251
L46559 40251
" />
<path d="M46630 40251
L46630 40001
L46607 40036
L46583 40060
L46559 40072
" />
</g>
<g style="fill:#000000; fill-opacity:0.0; 
stroke:#000000; stroke-width:43; stroke-opacity:1; 
stroke-linecap:round; stroke-linejoin:round;">
<path d="M47217 42179
L47151 42085
" />
<path d="M47104 42179
L47104 41982
L47179 41982
L47198 41992
L47207 42001
L47217 42020
L47217 42048
L47207 42067
L47198 42076
L47179 42085
L47104 42085
" />
<path d="M47404 42179
L47292 42179
" />
<path d="M47348 42179
L47348 41982
L47329 42010
L47310 42029
L47292 42039
" />
</g>
<g style="fill:#000000; fill-opacity:0.0; 
stroke:#000000; stroke-width:50; stroke-opacity:1; 
stroke-linecap:round; stroke-linejoin:round;">
<path d="M55850 39242
L55835 39257
L55792 39271
L55764 39271
L55721 39257
L55692 39228
L55678 39200
L55664 39142
L55664 39100
L55678 39042
L55692 39014
L55721 38985
L55764 38971
L55792 38971
L55835 38985
L55850 39000
" />
<path d="M55950 38971
L56135 38971
L56035 39085
L56078 39085
L56107 39100
L56121 39114
L56135 39142
L56135 39214
L56121 39242
L56107 39257
L56078 39271
L55992 39271
L55964 39257
L55950 39242
" />
</g>
<g style="fill:#000000; fill-opacity:0.0; 
stroke:#000000; stroke-width:43; stroke-opacity:1; 
stroke-linecap:round; stroke-linejoin:round;">
<path d="M51967 38160
L51957 38170
L51929 38179
L51910 38179
L51882 38170
L51863 38151
L51854 38132
L51845 38095
L51845 38067
L51854 38029
L51863 38010
L51882 37992
L51910 37982
L51929 37982
L51957 37992
L51967 38001
" />
<path d="M52154 38179
L52042 38179
" />
<path d="M52098 38179
L52098 37982
L52079 38010
L52060 38029
L52042 38039
" />
<path d="M45567 42260
L45557 42270
L45529 42279
L45510 42279
L45482 42270
L45463 42251
L45454 42232
L45445 42195
L45445 42167
L45454 42129
L45463 42110
L45482 42092
L45510 42082
L45529 42082
L45557 42092
L45567 42101
" />
<path d="M45642 42101
L45651 42092
L45670 42082
L45717 42082
L45736 42092
L45745 42101
L45754 42120
L45754 42139
L45745 42167
L45632 42279
L45754 42279
" />
</g>
<g style="fill:#000000; fill-opacity:0.0; 
stroke:#000000; stroke-width:50; stroke-opacity:1; 
stroke-linecap:round; stroke-linejoin:round;">
<path d="M50450 41592
L50435 41607
L50392 41621
L50364 41621
L50321 41607
L50292 41578
L50278 41550
L50264 41492
L50264 41450
L50278 41392
L50292 41364
L50321 41335
L50364 41321
L50392 41321
L50435 41335
L50450 41350
" />
<path d="M50721 41321
L50578 41321
L50564 41464
L50578 41450
L50607 41435
L50678 41435
L50707 41450
L50721 41464
L50735 41492
L50735 41564
L50721 41592
L50707 41607
L50678 41621
L50607 41621
L50578 41607
L50564 41592
" />
</g>
<g style="fill:#000000; fill-opacity:0.0; 
stroke:#000000; stroke-width:43; stroke-opacity:1; 
stroke-linecap:round; stroke-linejoin:round;">
<path d="M49117 39760
L49107 39770
L49079 39779
L49060 39779
L49032 39770
L49013 39751
L49004 39732
L48995 39695
L48995 39667
L49004 39629
L49013 39610
L49032 39592
L49060 39582
L49079 39582
L49107 39592
L49117 39601
" />
<path d="M49286 39648
L49286 39779
" />
<path d="M49239 39573
L49192 39714
L49314 39714
" />
</g>
<g style="fill:#000000; fill-opacity:0.0; 
stroke:#000000; stroke-width:47; stroke-opacity:1; 
stroke-linecap:round; stroke-linejoin:round;">
<path d="M59721 38350
L59692 38335
L59664 38307
L59621 38264
L59592 38250
L59564 38250
" />
<path d="M59578 38321
L59550 38307
L59521 38278
L59507 38221
L59507 38121
L59521 38064
L59550 38035
L59578 38021
L59635 38021
L59664 38035
L59692 38064
L59707 38121
L59707 38221
L59692 38278
L59664 38307
L59635 38321
L59578 38321
" />
<path d="M59992 38321
L59821 38321
" />
<path d="M59907 38321
L59907 38021
L59878 38064
L59850 38092
L59821 38107
" />
</g>
<g style="fill:#000000; fill-opacity:0.0; 
stroke:#000000; stroke-width:50; stroke-opacity:1; 
stroke-linecap:round; stroke-linejoin:round;">
<path d="M46654 37335
L46640 37348
L46601 37361
L46575 37361
L46535 37348
L46509 37322
L46496 37295
L46483 37243
L46483 37204
L46496 37151
L46509 37125
L46535 37099
L46575 37085
L46601 37085
L46640 37099
L46654 37112
" />
<path d="M46745 37085
L46929 37085
L46811 37361
" />
</g>
<g style="fill:#000000; fill-opacity:0.0; 
stroke:#000000; stroke-width:43; stroke-opacity:1; 
stroke-linecap:round; stroke-linejoin:round;">
<path d="M44967 40229
L44901 40135
" />
<path d="M44854 40229
L44854 40032
L44929 40032
L44948 40042
L44957 40051
L44967 40070
L44967 40098
L44957 40117
L44948 40126
L44929 40135
L44854 40135
" />
<path d="M45032 40032
L45164 40032
L45079 40229
" />
<path d="M51017 38879
L50951 38785
" />
<path d="M50904 38879
L50904 38682
L50979 38682
L50998 38692
L51007 38701
L51017 38720
L51017 38748
L51007 38767
L50998 38776
L50979 38785
L50904 38785
" />
<path d="M51110 38879
L51148 38879
L51167 38870
L51176 38860
L51195 38832
L51204 38795
L51204 38720
L51195 38701
L51186 38692
L51167 38682
L51129 38682
L51110 38692
L51101 38701
L51092 38720
L51092 38767
L51101 38785
L51110 38795
L51129 38804
L51167 38804
L51186 38795
L51195 38785
L51204 38767
" />
<path d="M52846 38032
L52959 38032
" />
<path d="M52903 38229
L52903 38032
" />
<path d="M53024 38229
L53024 38032
" />
<path d="M53024 38126
L53137 38126
" />
<path d="M53137 38229
L53137 38032
" />
<path d="M53334 38229
L53221 38229
" />
<path d="M53278 38229
L53278 38032
L53259 38060
L53240 38079
L53221 38089
" />
<path d="M50017 38229
L49951 38135
" />
<path d="M49904 38229
L49904 38032
L49979 38032
L49998 38042
L50007 38051
L50017 38070
L50017 38098
L50007 38117
L49998 38126
L49979 38135
L49904 38135
" />
<path d="M50129 38117
L50110 38107
L50101 38098
L50092 38079
L50092 38070
L50101 38051
L50110 38042
L50129 38032
L50167 38032
L50186 38042
L50195 38051
L50204 38070
L50204 38079
L50195 38098
L50186 38107
L50167 38117
L50129 38117
L50110 38126
L50101 38135
L50092 38154
L50092 38192
L50101 38210
L50110 38220
L50129 38229
L50167 38229
L50186 38220
L50195 38210
L50204 38192
L50204 38154
L50195 38135
L50186 38126
L50167 38117
" />
</g>
<g style="fill:#000000; fill-opacity:0.0; 
stroke:#000000; stroke-width:50; stroke-opacity:1; 
stroke-linecap:round; stroke-linejoin:round;">
<path d="M50428 37121
L50428 36821
L50500 36821
L50542 36835
L50571 36864
L50585 36892
L50600 36950
L50600 36992
L50585 37050
L50571 37078
L50542 37107
L50500 37121
L50428 37121
" />
<path d="M50885 37121
L50714 37121
" />
<path d="M50800 37121
L50800 36821
L50771 36864
L50742 36892
L50714 36907
" />
</g>
<g style="fill:#000000; fill-opacity:0.0; 
stroke:#000000; stroke-width:43; stroke-opacity:1; 
stroke-linecap:round; stroke-linejoin:round;">
<path d="M59523 39679
L59457 39585
" />
<path d="M59410 39679
L59410 39482
L59485 39482
L59504 39492
L59513 39501
L59523 39520
L59523 39548
L59513 39567
L59504 39576
L59485 39585
L59410 39585
" />
<path d="M59710 39679
L59598 39679
" />
<path d="M59654 39679
L59654 39482
L59635 39510
L59617 39529
L59598 39539
" />
<path d="M59832 39482
L59851 39482
L59870 39492
L59879 39501
L59889 39520
L59898 39557
L59898 39604
L59889 39642
L59879 39660
L59870 39670
L59851 39679
L59832 39679
L59814 39670
L59804 39660
L59795 39642
L59786 39604
L59786 39557
L59795 39520
L59804 39501
L59814 39492
L59832 39482
" />
</g>
<g style="fill:#000000; fill-opacity:0.0; 
stroke:#000000; stroke-width:47; stroke-opacity:1; 
stroke-linecap:round; stroke-linejoin:round;">
<path d="M60271 42050
L60242 42035
L60214 42007
L60171 41964
L60142 41950
L60114 41950
" />
<path d="M60128 42021
L60100 42007
L60071 41978
L60057 41921
L60057 41821
L60071 41764
L60100 41735
L60128 41721
L60185 41721
L60214 41735
L60242 41764
L60257 41821
L60257 41921
L60242 41978
L60214 42007
L60185 42021
L60128 42021
" />
<path d="M60371 41750
L60385 41735
L60414 41721
L60485 41721
L60514 41735
L60528 41750
L60542 41778
L60542 41807
L60528 41850
L60357 42021
L60542 42021
" />
</g>
<g style="fill:#000000; fill-opacity:0.0; 
stroke:#000000; stroke-width:80; stroke-opacity:1; 
stroke-linecap:round; stroke-linejoin:round;">
<path d="M61454 41761
L61454 41361
L61607 41361
L61645 41380
L61664 41400
L61683 41438
L61683 41495
L61664 41533
L61645 41552
L61607 41571
L61454 41571
" />
<path d="M62045 41361
L61854 41361
L61835 41552
L61854 41533
L61892 41514
L61988 41514
L62026 41533
L62045 41552
L62064 41590
L62064 41685
L62045 41723
L62026 41742
L61988 41761
L61892 41761
L61854 41742
L61835 41723
" />
</g>
<g style="fill:#000000; fill-opacity:0.0; 
stroke:#000000; stroke-width:60; stroke-opacity:1; 
stroke-linecap:round; stroke-linejoin:round;">
<path d="M54228 36971
L54228 36671
L54342 36671
L54371 36685
L54385 36700
L54400 36728
L54400 36771
L54385 36800
L54371 36814
L54342 36828
L54228 36828
" />
<path d="M54657 36671
L54600 36671
L54571 36685
L54557 36700
L54528 36742
L54514 36800
L54514 36914
L54528 36942
L54542 36957
L54571 36971
L54628 36971
L54657 36957
L54671 36942
L54685 36914
L54685 36842
L54671 36814
L54657 36800
L54628 36785
L54571 36785
L54542 36800
L54528 36814
L54514 36842
" />
</g>
<g style="fill:#000000; fill-opacity:0.0; 
stroke:#000000; stroke-width:50; stroke-opacity:1; 
stroke-linecap:round; stroke-linejoin:round;">
<path d="M47950 37421
L47807 37421
L47807 37121
" />
<path d="M48207 37421
L48035 37421
" />
<path d="M48121 37421
L48121 37121
L48092 37164
L48064 37192
L48035 37207
" />
</g> 
</svg>
